<svg version="1.1" xmlns="http://www.w3.org/2000/svg" width="32" height="32" viewBox="0 0 32 32">
<title>man</title>
<path d="M26.799 28.317v3.15c0 0.294-0.239 0.533-0.533 0.533s-0.533-0.239-0.533-0.533v-3.15c0-2.453-1.985-4.438-4.438-4.437-1.161 0-2.214-0.591-2.817-1.582-0.153-0.252-0.074-0.58 0.178-0.733s0.58-0.074 0.733 0.178c0.408 0.67 1.121 1.070 1.906 1.070 3.042-0 5.504 2.462 5.504 5.504zM17.493 22.971c0.063 0.288-0.12 0.572-0.407 0.635-1.403 0.306-2.831-0-3.967-0.776-1.125 1.206-2.611 1.049-2.412 1.049-2.453-0-4.438 1.985-4.438 4.437v3.15c0 0.294-0.239 0.533-0.533 0.533s-0.533-0.239-0.533-0.533v-3.15c0-3.042 2.462-5.504 5.504-5.504 1.231 0 2.228-0.992 2.228-2.223v-0.14c-2.328-1.113-3.961-3.452-4.061-6.175-0.958-0.23-1.672-1.088-1.672-2.108v-2.764c-0.029-1.353 0.172-4.742 2.643-7.124 3.051-2.941 7.944-2.755 11.543-1.022 0.351 0.169 0.404 0.643 0.113 0.888 1.823 0.445 3.395 1.565 4.404 3.169 0.052 0.083 0.148 0.212 0.123 0.419-0.015 0.129-0.054 0.238-0.153 0.338-0.65 0.659-1.008 1.533-1.008 2.459v3.638c0 0.294-0.239 0.533-0.533 0.533s-0.533-0.239-0.533-0.533v-3.638c0-1.069 0.365-2.084 1.036-2.899-1.022-1.462-2.618-2.403-4.422-2.596l-0.937-0.1c-0.548-0.059-0.656-0.814-0.146-1.023l0.426-0.175c-5.552-1.935-11.489 0.215-11.489 7.661v2.77c0 0.423 0.244 0.791 0.6 0.976v-3.457c0-2.058 1.675-3.733 3.733-3.733h6.799c2.058 0 3.733 1.674 3.733 3.733v4.366c0 4.638-4.532 8.16-9.143 6.803-0.030 0.38-0.125 0.748-0.279 1.089 0.897 0.616 2.030 0.865 3.148 0.621 0.288-0.063 0.572 0.12 0.635 0.408zM16 20.077c3.345 0 6.066-2.721 6.066-6.066v-4.326c0-1.47-1.196-2.666-2.666-2.666h-6.799c-1.47 0-2.666 1.196-2.666 2.666v4.326c0 3.345 2.721 6.066 6.066 6.066zM21.399 29.267h-1.6c-0.294 0-0.533 0.239-0.533 0.533s0.239 0.533 0.533 0.533h1.6c0.294 0 0.533-0.239 0.533-0.533s-0.239-0.533-0.533-0.533z"></path>
</svg>
