<svg version="1.1" xmlns="http://www.w3.org/2000/svg" width="32" height="32" viewBox="0 0 32 32">
<title>globalization</title>
<path d="M22.732 8.839c-1.825 0.381-3.779 0.607-5.794 0.66v5.564h6.594c-0.061-2.191-0.334-4.298-0.8-6.224z"></path>
<path d="M6.592 15.062c0.062-2.339 0.354-4.596 0.856-6.668-1.643-0.461-3.145-1.057-4.449-1.774-1.785 2.463-2.824 5.371-3 8.441h6.592z"></path>
<path d="M6.592 16.938h-6.592c0.176 3.071 1.215 5.978 3 8.441 1.303-0.716 2.806-1.312 4.449-1.774-0.502-2.072-0.794-4.329-0.856-6.668z"></path>
<path d="M18.696 1.084c-0.573-0.485-1.162-0.812-1.759-0.979v7.519c1.841-0.051 3.622-0.253 5.283-0.591-0.305-0.931-0.659-1.806-1.061-2.61-0.722-1.444-1.551-2.567-2.463-3.339z"></path>
<path d="M7.952 25.408c-1.373 0.385-2.634 0.872-3.742 1.449 0.149 0.161 0.3 0.321 0.456 0.477 1.803 1.803 3.959 3.123 6.312 3.896-0.659-0.779-1.269-1.72-1.816-2.814-0.463-0.925-0.867-1.934-1.211-3.008z"></path>
<path d="M10.84 4.423c-0.402 0.804-0.756 1.678-1.061 2.61 1.66 0.338 3.442 0.539 5.283 0.591v-7.519c-0.597 0.168-1.185 0.494-1.759 0.979-0.913 0.772-1.741 1.896-2.463 3.339z"></path>
<path d="M25.408 16.938c-0.062 2.339-0.354 4.596-0.856 6.668 1.642 0.461 3.145 1.057 4.449 1.774 1.785-2.463 2.824-5.371 3-8.441h-6.592z"></path>
<path d="M24.048 6.592c1.373-0.385 2.634-0.872 3.742-1.449-0.149-0.161-0.3-0.321-0.456-0.477-1.802-1.802-3.959-3.123-6.312-3.896 0.659 0.779 1.269 1.72 1.816 2.814 0.463 0.925 0.867 1.934 1.211 3.008z"></path>
<path d="M21.16 27.577c0.402-0.804 0.756-1.678 1.061-2.61-1.66-0.338-3.442-0.539-5.283-0.591v7.519c0.597-0.168 1.185-0.494 1.759-0.979 0.913-0.772 1.741-1.895 2.463-3.339z"></path>
<path d="M24.552 8.395c0.502 2.072 0.794 4.329 0.856 6.668h6.592c-0.176-3.071-1.215-5.978-3-8.441-1.303 0.716-2.806 1.312-4.449 1.773z"></path>
<path d="M16.938 16.938v5.564c2.014 0.054 3.969 0.279 5.794 0.66 0.466-1.926 0.739-4.032 0.8-6.224h-6.594z"></path>
<path d="M15.062 15.062v-5.564c-2.014-0.054-3.969-0.279-5.794-0.66-0.466 1.926-0.739 4.032-0.8 6.224h6.594z"></path>
<path d="M7.952 6.592c0.344-1.074 0.748-2.083 1.211-3.008 0.547-1.093 1.156-2.034 1.816-2.814-2.353 0.773-4.51 2.093-6.312 3.896-0.156 0.156-0.308 0.315-0.456 0.477 1.108 0.577 2.369 1.063 3.742 1.449z"></path>
<path d="M24.048 25.408c-0.344 1.074-0.748 2.083-1.211 3.008-0.547 1.093-1.156 2.034-1.816 2.814 2.353-0.773 4.51-2.093 6.312-3.896 0.156-0.156 0.308-0.315 0.456-0.477-1.108-0.577-2.369-1.063-3.742-1.449z"></path>
<path d="M15.062 16.938h-6.594c0.061 2.191 0.334 4.298 0.8 6.224 1.825-0.381 3.78-0.607 5.794-0.66v-5.564z"></path>
<path d="M13.304 30.916c0.573 0.485 1.162 0.812 1.759 0.979v-7.519c-1.841 0.051-3.622 0.253-5.283 0.591 0.305 0.931 0.659 1.806 1.061 2.61 0.722 1.444 1.551 2.567 2.463 3.339z"></path>
</svg>
