<svg version="1.1" xmlns="http://www.w3.org/2000/svg" width="32" height="32" viewBox="0 0 32 32">
<title>programming</title>
<path d="M27.471 4.294h-22.942c-2.497 0-4.529 2.032-4.529 4.529v14.354c0 2.497 2.032 4.529 4.529 4.529h22.942c2.497 0 4.529-2.032 4.529-4.529v-14.354c0-2.498-2.032-4.529-4.529-4.529zM11.613 11.499l-4.764 4.764 4.237 4.237c0.366 0.366 0.366 0.96 0 1.326s-0.959 0.366-1.326 0l-4.9-4.9c-0.366-0.366-0.366-0.959 0-1.326l5.427-5.427c0.366-0.366 0.96-0.366 1.326 0s0.366 0.959 0 1.326zM19.346 9.294l-4.957 14.037c-0.172 0.489-0.708 0.744-1.196 0.572s-0.744-0.708-0.572-1.196l4.957-14.037c0.172-0.488 0.707-0.744 1.196-0.572s0.744 0.708 0.572 1.196zM27.14 16.399l-5.427 5.427c-0.366 0.366-0.96 0.366-1.326 0s-0.366-0.959 0-1.326l4.764-4.764-4.237-4.237c-0.366-0.366-0.366-0.96 0-1.326s0.959-0.366 1.326 0l4.9 4.9c0.366 0.366 0.366 0.959 0 1.326z"></path>
</svg>
