<!-- Generated by IcoMoon.io -->
<svg version="1.1" xmlns="http://www.w3.org/2000/svg"  viewBox="0 0 32 32">
<title>logo</title>
<path d="M30.997 21.974h-1.656v-14.925c0-1.793-1.459-3.252-3.252-3.252h-20.18c-1.793 0-3.252 1.459-3.252 3.252v14.925h-1.656c-0.554 0-1.003 0.449-1.003 1.003v2.694c0 1.396 1.136 2.532 2.532 2.532h26.937c1.396 0 2.532-1.136 2.532-2.532v-2.694c0-0.554-0.449-1.003-1.003-1.003zM4.664 7.050c0-0.687 0.559-1.247 1.247-1.247h20.18c0.687 0 1.247 0.559 1.247 1.247v14.925h-22.673zM29.995 25.671c0 0.29-0.236 0.526-0.526 0.526h-26.937c-0.29 0-0.526-0.236-0.526-0.526v-1.691h10.759c0.084 0.469 0.493 0.826 0.986 0.826h4.498c0.493 0 0.903-0.357 0.986-0.826h10.759v1.691z"></path>
<path d="M12.295 10.686c-0.392-0.392-1.026-0.392-1.418 0l-2.933 2.933c-0.391 0.391-0.392 1.027 0 1.418l2.933 2.933c0.196 0.196 0.452 0.294 0.709 0.294 0.885 0 1.343-1.078 0.709-1.712l-2.224-2.224 2.224-2.224c0.392-0.392 0.392-1.027 0-1.418z"></path>
<path d="M21.123 10.686c-0.392-0.392-1.026-0.392-1.418 0s-0.392 1.026 0 1.418l2.224 2.224-2.224 2.224c-0.634 0.634-0.176 1.712 0.709 1.712 0.257 0 0.513-0.098 0.709-0.294l2.933-2.933c0.391-0.391 0.392-1.027 0-1.418z"></path>
<path d="M17.819 9.649c-0.516-0.201-1.097 0.055-1.298 0.571l-2.912 7.488c-0.257 0.66 0.234 1.366 0.934 1.366 0.402 0 0.78-0.243 0.935-0.64l2.912-7.488c0.201-0.516-0.055-1.097-0.571-1.298z"></path>
</svg>
