<svg version="1.1" xmlns="http://www.w3.org/2000/svg" width="32" height="32" viewBox="0 0 32 32">
<title>Education</title>
<path d="M31.383 9.82l-6.755-2.283c-0.245-0.082-0.511 0.049-0.594 0.294s0.049 0.511 0.294 0.594l6.691 2.261-3.149 1.535c-0.131-0.088-0.278-0.156-0.437-0.197l-9.447-2.469c-0.3-1.545-2.202-2.193-3.37-1.094-0.404 0.381-0.636 0.917-0.636 1.472v0.010c0.003 0.654 0.544 1.185 1.206 1.185h1.631c0.421 0 0.842-0.22 1.061-0.633l8.809 2.302c-2.784 1.357-9.032 4.404-9.829 4.792-0.562 0.274-1.189 0.256-1.714 0l-14.161-6.904 14.392-4.864c0.404-0.136 0.849-0.136 1.252 0l5.619 1.899c0.245 0.083 0.511-0.049 0.594-0.294s-0.049-0.511-0.294-0.594l-5.619-1.899c-0.597-0.202-1.255-0.202-1.853 0l-14.456 4.886c-0.768 0.26-0.837 1.323-0.107 1.679l7.419 3.617c-0.408 1.94-1.031 4.029-1.709 5.884-0.277 0.758-0.038 1.602 0.594 2.099 2.141 1.683 4.671 2.983 7.264 3.818 1.218 0.393 2.577 0.408 3.843 0 2.594-0.836 5.124-2.136 7.264-3.818 0.635-0.499 0.871-1.343 0.594-2.099-0.663-1.813-1.295-3.916-1.709-5.884l3.49-1.701v7.055c-0.596 0.046-1.068 0.545-1.068 1.152v1.366c0 0.203 0.088 0.385 0.227 0.512l-0.174 2.633c-0.034 0.514 0.375 0.951 0.891 0.951h1.186c0.515 0 0.925-0.437 0.891-0.951l-0.174-2.633c0.139-0.127 0.227-0.309 0.227-0.512v-1.366c0-0.608-0.472-1.107-1.068-1.152v-7.066c0-0.144-0.023-0.284-0.063-0.416l3.055-1.489c0.729-0.355 0.662-1.419-0.107-1.679zM16.816 10.192h-1.631c-0.145 0-0.268-0.116-0.268-0.25v-0.008c0-0.302 0.121-0.582 0.341-0.789 0.675-0.635 1.781-0.178 1.825 0.736 0.010 0.219-0.13 0.312-0.267 0.312zM24.371 19.795c-2.533 1.982-6.127 3.4-7.365 3.636-0.254 0.049-0.421 0.294-0.373 0.548s0.295 0.421 0.548 0.373c1.295-0.247 4.843-1.626 7.507-3.619 0.066 0.187 0.141 0.4 0.211 0.589 0.137 0.376 0.020 0.794-0.293 1.040-2.525 1.984-5.185 3.087-6.972 3.663-1.067 0.344-2.227 0.336-3.268 0-1.787-0.576-4.447-1.679-6.972-3.663-0.313-0.246-0.431-0.664-0.293-1.040 0.003-0.008 0.005-0.015 0.008-0.023 0.068-0.187 0.144-0.398 0.202-0.566 2.601 1.946 6.139 3.359 7.506 3.619 0.255 0.048 0.5-0.118 0.548-0.373s-0.118-0.5-0.373-0.548c-1.169-0.223-4.775-1.611-7.365-3.637 0.381-1.164 0.822-2.66 1.169-4.255l5.935 2.893c0.79 0.385 1.715 0.4 2.536 0l5.934-2.893c0.347 1.595 0.788 3.091 1.169 4.255zM27.484 26.148l0.163-2.465h0.764l0.163 2.465zM28.629 21.623v1.122h-1.199v-1.122c0-0.119 0.1-0.219 0.219-0.219h0.76c0.119 0 0.22 0.101 0.22 0.219z"></path>
</svg>
