<svg version="1.1" xmlns="http://www.w3.org/2000/svg" width="32" height="32" viewBox="0 0 32 32">
<title>mortarboard</title>
<path d="M31.374 8.022l-15.063-5.314c-0.202-0.071-0.422-0.071-0.624 0l-15.063 5.314c-0.374 0.132-0.625 0.486-0.626 0.883s0.249 0.751 0.624 0.884l15.063 5.355c0.102 0.036 0.208 0.054 0.314 0.054s0.212-0.018 0.314-0.054l15.063-5.355c0.374-0.133 0.624-0.487 0.623-0.884s-0.251-0.751-0.626-0.883z"></path>
<path d="M29.748 20.536v-8.178l-1.875 0.667v7.511c-0.565 0.325-0.945 0.934-0.945 1.633s0.381 1.308 0.945 1.633v4.607c0 0.518 0.42 0.938 0.938 0.938s0.938-0.42 0.938-0.938v-4.607c0.565-0.325 0.945-0.934 0.945-1.633s-0.381-1.308-0.945-1.633z"></path>
<path d="M16 17.074c-0.322 0-0.639-0.055-0.942-0.163l-8.468-3.010v4.126c0 1.009 1.053 1.863 3.13 2.537 1.81 0.587 4.040 0.911 6.28 0.911s4.47-0.324 6.28-0.911c2.077-0.674 3.13-1.528 3.13-2.537v-4.125l-8.468 3.010c-0.303 0.108-0.62 0.163-0.942 0.163z"></path>
</svg>
