<svg version="1.1" xmlns="http://www.w3.org/2000/svg" width="32" height="32" viewBox="0 0 32 32">
<title>clipboard</title>
<path d="M21.34 2.425h-2.341c-0.292-0.009-0.543-0.21-0.616-0.493-0.222-1.153-1.25-1.972-2.423-1.931-1.18-0.021-2.204 0.812-2.423 1.972-0.076 0.275-0.331 0.462-0.616 0.452h-2.259v4.108h10.68v-4.108z"></path>
<path d="M27.912 30.11v-23.537c0.003-0.93-0.75-1.686-1.68-1.689-0.043-0-0.085 0.001-0.128 0.004h-3.533v2.095c0 0.329-0.205 0.78-0.534 0.78h-12.117c-0.329 0-0.493-0.452-0.493-0.78v-2.095h-3.533c-0.928-0.068-1.735 0.629-1.803 1.556-0.003 0.043-0.005 0.085-0.004 0.128v23.537c-0.023 1.021 0.786 1.867 1.806 1.889 0 0 0.001 0 0.001 0h20.21c1.021-0.022 1.83-0.868 1.807-1.889-0-0-0-0.001-0-0.001zM12.673 24.688l-3.204 2.999c-0.102 0.123-0.251 0.197-0.411 0.205-0.172-0.007-0.334-0.081-0.452-0.205l-1.684-1.725c-0.224-0.251-0.206-0.634 0.041-0.863 0.24-0.235 0.623-0.235 0.863 0l1.232 1.314 2.793-2.629c0.28-0.193 0.664-0.123 0.857 0.157 0.158 0.228 0.143 0.534-0.036 0.747zM12.673 18.116v0l-3.204 2.999c-0.102 0.123-0.251 0.197-0.411 0.205-0.172-0.007-0.334-0.081-0.452-0.205l-1.684-1.725c-0.224-0.251-0.206-0.634 0.041-0.863 0.24-0.235 0.623-0.235 0.863 0l1.232 1.314 2.793-2.629c0.28-0.193 0.664-0.123 0.857 0.157 0.158 0.228 0.143 0.534-0.036 0.747zM12.673 11.544l-3.204 2.999c-0.102 0.123-0.251 0.197-0.411 0.205-0.172-0.007-0.334-0.081-0.452-0.205l-1.684-1.725c-0.224-0.251-0.206-0.634 0.041-0.863 0.24-0.235 0.623-0.235 0.863 0l1.232 1.314 2.793-2.629c0.28-0.193 0.664-0.123 0.857 0.157 0.158 0.228 0.143 0.534-0.036 0.747zM24.626 27.071h-9.448c-0.34 0-0.616-0.276-0.616-0.616s0.276-0.616 0.616-0.616h9.448c0.34 0 0.616 0.276 0.616 0.616s-0.276 0.616-0.616 0.616zM24.626 20.499h-9.448c-0.34 0-0.616-0.276-0.616-0.616s0.276-0.616 0.616-0.616h9.448c0.34 0 0.616 0.276 0.616 0.616s-0.276 0.616-0.616 0.616zM24.626 13.926h-9.448c-0.34 0-0.616-0.276-0.616-0.616s0.276-0.616 0.616-0.616h9.448c0.34 0 0.616 0.276 0.616 0.616s-0.276 0.616-0.616 0.616z"></path>
</svg>
