<svg version="1.1" xmlns="http://www.w3.org/2000/svg" width="32" height="32" viewBox="0 0 32 32">
<title>to-do-list</title>
<path d="M8.95 13.686l2.922-3.515c0.165-0.199 0.138-0.495-0.061-0.66s-0.495-0.138-0.66 0.061l-2.505 3.013-0.547-0.889c-0.136-0.22-0.424-0.289-0.645-0.153s-0.289 0.425-0.153 0.645l0.89 1.445c0.168 0.273 0.555 0.3 0.76 0.054z"></path>
<path d="M7.3 18.374l0.89 1.445c0.168 0.273 0.555 0.3 0.76 0.054l2.922-3.515c0.165-0.199 0.138-0.495-0.061-0.66s-0.495-0.138-0.66 0.061l-2.505 3.013-0.547-0.889c-0.136-0.22-0.424-0.289-0.645-0.153s-0.289 0.425-0.153 0.645z"></path>
<path d="M7.3 24.604l0.89 1.445c0.168 0.273 0.555 0.3 0.76 0.054l2.922-3.515c0.165-0.199 0.138-0.495-0.061-0.66s-0.495-0.138-0.66 0.061l-2.505 3.013-0.547-0.889c-0.136-0.22-0.424-0.289-0.645-0.153s-0.289 0.425-0.153 0.645z"></path>
<path d="M28.031 26.463c-0.259 0-0.469 0.21-0.469 0.469v3.412c0 0.396-0.322 0.719-0.719 0.719h-21.688c-0.396 0-0.719-0.322-0.719-0.719v-20.543c0-0.259-0.21-0.469-0.469-0.469s-0.469 0.21-0.469 0.469v20.543c0 0.913 0.743 1.656 1.656 1.656h21.688c0.913 0 1.656-0.743 1.656-1.656v-3.412c0-0.259-0.21-0.469-0.469-0.469z"></path>
<path d="M26.844 3.612h-2.293v-1.937c0-0.924-0.751-1.675-1.675-1.675s-1.675 0.751-1.675 1.675v1.937h-3.526v-1.937c0-0.924-0.751-1.675-1.675-1.675s-1.675 0.751-1.675 1.675v1.937h-3.526v-1.937c0-0.924-0.751-1.675-1.675-1.675s-1.675 0.751-1.675 1.675v1.937h-2.293c-0.913 0-1.656 0.743-1.656 1.656v2.345c0 0.259 0.21 0.469 0.469 0.469s0.469-0.21 0.469-0.469v-2.345c0-0.396 0.322-0.719 0.719-0.719h2.293v0.744c0 0.924 0.751 1.675 1.675 1.675s1.675-0.751 1.675-1.675v-0.744h3.526v0.744c0 0.924 0.751 1.675 1.675 1.675s1.675-0.751 1.675-1.675v-0.744h3.526v0.744c0 0.924 0.751 1.675 1.675 1.675s1.675-0.751 1.675-1.675v-0.744h2.293c0.396 0 0.719 0.322 0.719 0.719v19.476c0 0.259 0.21 0.469 0.469 0.469s0.469-0.21 0.469-0.469v-19.476c0-0.913-0.743-1.656-1.656-1.656zM9.862 5.294c0 0.407-0.331 0.737-0.738 0.737s-0.738-0.331-0.738-0.737c0-0.999 0-3.306 0-3.619 0-0.407 0.331-0.738 0.738-0.738s0.738 0.331 0.738 0.738zM16.738 5.294c0 0.407-0.331 0.737-0.738 0.737s-0.738-0.331-0.738-0.737c0-0.999 0-3.306 0-3.619 0-0.407 0.331-0.738 0.738-0.738s0.738 0.331 0.738 0.738zM23.613 5.294c0 0.407-0.331 0.737-0.738 0.737s-0.738-0.331-0.738-0.737c0-0.999 0-3.306 0-3.619 0-0.407 0.331-0.738 0.738-0.738s0.738 0.331 0.738 0.738z"></path>
<path d="M13.859 14.074h9.875c0.81 0 1.469-0.659 1.469-1.469s-0.659-1.469-1.469-1.469h-9.875c-0.81 0-1.469 0.659-1.469 1.469s0.659 1.469 1.469 1.469zM13.859 12.074h9.875c0.293 0 0.531 0.238 0.531 0.531s-0.238 0.531-0.531 0.531h-9.875c-0.293 0-0.531-0.238-0.531-0.531s0.238-0.531 0.531-0.531z"></path>
<path d="M13.859 20.275h9.875c0.81 0 1.469-0.659 1.469-1.469s-0.659-1.469-1.469-1.469h-9.875c-0.81 0-1.469 0.659-1.469 1.469s0.659 1.469 1.469 1.469zM13.859 18.275h9.875c0.293 0 0.531 0.238 0.531 0.531s-0.238 0.531-0.531 0.531h-9.875c-0.293 0-0.531-0.238-0.531-0.531s0.238-0.531 0.531-0.531z"></path>
<path d="M13.859 26.476h9.875c0.81 0 1.469-0.659 1.469-1.469s-0.659-1.469-1.469-1.469h-9.875c-0.81 0-1.469 0.659-1.469 1.469s0.659 1.469 1.469 1.469zM13.859 24.476h9.875c0.293 0 0.531 0.238 0.531 0.531s-0.238 0.531-0.531 0.531h-9.875c-0.293 0-0.531-0.238-0.531-0.531s0.238-0.531 0.531-0.531z"></path>
</svg>
