<svg version="1.1" xmlns="http://www.w3.org/2000/svg" width="32" height="32" viewBox="0 0 32 32">
<title>info</title>
<path d="M16 32c-8.823 0-16-7.177-16-16s7.177-16 16-16 16 7.177 16 16-7.177 16-16 16zM16 1.333c-8.087 0-14.667 6.58-14.667 14.667s6.58 14.667 14.667 14.667 14.667-6.58 14.667-14.667-6.58-14.667-14.667-14.667z"></path>
<path d="M16 10.667c-1.103 0-2-0.897-2-2s0.897-2 2-2 2 0.897 2 2-0.897 2-2 2zM16 8c-0.367 0-0.667 0.299-0.667 0.667s0.3 0.667 0.667 0.667 0.667-0.299 0.667-0.667-0.3-0.667-0.667-0.667z"></path>
<path d="M16 24c-0.368 0-0.667-0.299-0.667-0.667v-8.667h-1.333c-0.368 0-0.667-0.299-0.667-0.667s0.299-0.667 0.667-0.667h2c0.368 0 0.667 0.299 0.667 0.667v9.333c0 0.368-0.299 0.667-0.667 0.667z"></path>
<path d="M18.667 24h-5.333c-0.368 0-0.667-0.299-0.667-0.667s0.299-0.667 0.667-0.667h5.333c0.368 0 0.667 0.299 0.667 0.667s-0.299 0.667-0.667 0.667z"></path>
</svg>
