<svg version="1.1" xmlns="http://www.w3.org/2000/svg" width="32" height="32" viewBox="0 0 32 32">
<title>resume</title>
<path d="M25.875 9.297c0.345 0 0.625-0.28 0.625-0.625v-6.797c0-1.034-0.841-1.875-1.875-1.875h-22.75c-1.034 0-1.875 0.841-1.875 1.875v28.25c0 1.034 0.841 1.875 1.875 1.875h22.75c1.034 0 1.875-0.841 1.875-1.875v-4.605c0-0.345-0.28-0.625-0.625-0.625s-0.625 0.28-0.625 0.625v4.605c0 0.345-0.28 0.625-0.625 0.625h-22.75c-0.345 0-0.625-0.28-0.625-0.625v-28.25c0-0.345 0.28-0.625 0.625-0.625h22.75c0.345 0 0.625 0.28 0.625 0.625v6.797c0 0.345 0.28 0.625 0.625 0.625z"></path>
<path d="M13.25 3.375c-3.171 0-5.75 2.579-5.75 5.75 0 1.645 0.694 3.13 1.805 4.179 0.021 0.022 0.043 0.043 0.067 0.063 1.023 0.936 2.385 1.508 3.878 1.508s2.854-0.572 3.878-1.508c0.024-0.019 0.046-0.040 0.067-0.063 1.111-1.049 1.805-2.534 1.805-4.179 0-3.171-2.579-5.75-5.75-5.75zM13.25 13.625c-1.021 0-1.962-0.342-2.718-0.917 0.549-0.974 1.574-1.583 2.718-1.583s2.169 0.609 2.718 1.583c-0.756 0.575-1.698 0.917-2.718 0.917zM12.25 8.875v-0.406c0-0.551 0.449-1 1-1s1 0.449 1 1v0.406c0 0.551-0.449 1-1 1s-1-0.449-1-1zM16.872 11.793c-0.461-0.684-1.1-1.215-1.841-1.544 0.294-0.38 0.47-0.857 0.47-1.374v-0.406c0-1.241-1.009-2.25-2.25-2.25s-2.25 1.009-2.25 2.25v0.406c0 0.517 0.176 0.994 0.47 1.374-0.742 0.328-1.38 0.86-1.841 1.544-0.552-0.747-0.879-1.67-0.879-2.668 0-2.481 2.019-4.5 4.5-4.5s4.5 2.019 4.5 4.5c0 0.998-0.327 1.921-0.879 2.668z"></path>
<path d="M16.625 27.375h-3.375c-0.345 0-0.625 0.28-0.625 0.625s0.28 0.625 0.625 0.625h3.375c0.345 0 0.625-0.28 0.625-0.625s-0.28-0.625-0.625-0.625z"></path>
<path d="M16.625 23.875h-8.875c-0.345 0-0.625 0.28-0.625 0.625s0.28 0.625 0.625 0.625h8.875c0.345 0 0.625-0.28 0.625-0.625s-0.28-0.625-0.625-0.625z"></path>
<path d="M16.625 20.375h-8.875c-0.345 0-0.625 0.28-0.625 0.625s0.28 0.625 0.625 0.625h8.875c0.345 0 0.625-0.28 0.625-0.625s-0.28-0.625-0.625-0.625z"></path>
<path d="M5.523 17.058c-0.116-0.116-0.277-0.183-0.442-0.183s-0.326 0.067-0.442 0.183c-0.116 0.116-0.183 0.277-0.183 0.442s0.067 0.326 0.183 0.442c0.117 0.116 0.277 0.183 0.442 0.183s0.326-0.067 0.442-0.183c0.116-0.116 0.183-0.277 0.183-0.442s-0.067-0.326-0.183-0.442z"></path>
<path d="M5.523 20.558c-0.117-0.116-0.277-0.183-0.442-0.183s-0.325 0.067-0.442 0.183c-0.116 0.116-0.183 0.277-0.183 0.442s0.067 0.326 0.183 0.442c0.117 0.116 0.277 0.183 0.442 0.183s0.326-0.067 0.442-0.183c0.116-0.116 0.183-0.277 0.183-0.442s-0.067-0.326-0.183-0.442z"></path>
<path d="M5.523 24.058c-0.117-0.116-0.277-0.183-0.442-0.183s-0.325 0.067-0.442 0.183c-0.116 0.116-0.183 0.277-0.183 0.442s0.067 0.326 0.183 0.442c0.116 0.116 0.277 0.183 0.442 0.183s0.326-0.067 0.442-0.183c0.116-0.116 0.183-0.277 0.183-0.442s-0.067-0.326-0.183-0.442z"></path>
<path d="M16.625 16.875h-8.875c-0.345 0-0.625 0.28-0.625 0.625s0.28 0.625 0.625 0.625h8.875c0.345 0 0.625-0.28 0.625-0.625s-0.28-0.625-0.625-0.625z"></path>
<path d="M30.688 8.145c-0.607-0.351-1.315-0.444-1.992-0.262s-1.243 0.616-1.594 1.223l-7.865 13.623c-0.043 0.075-0.070 0.157-0.080 0.243l-0.554 4.959c-0.027 0.247 0.094 0.486 0.309 0.611 0.097 0.056 0.205 0.084 0.312 0.084 0.131 0 0.261-0.041 0.371-0.122l4.018-2.959c0.069-0.051 0.128-0.116 0.171-0.191l7.865-13.623c0.724-1.254 0.293-2.862-0.961-3.586zM20.004 26.65l0.289-2.59 1.809 1.044-2.098 1.545zM23.013 24.187l-2.382-1.375 6.312-10.932 2.382 1.375-6.312 10.932zM30.566 11.106l-0.616 1.067-2.382-1.375 0.616-1.067c0.184-0.318 0.48-0.546 0.835-0.641s0.725-0.046 1.043 0.137c0.318 0.184 0.546 0.48 0.641 0.835s0.046 0.725-0.137 1.043z"></path>
</svg>
