<svg height="512pt" viewBox="0 0 512 512" width="512pt" xmlns="http://www.w3.org/2000/svg"><path d="m341.070312 219.390625c0-18.429687-5.820312-35.976563-16.835937-50.742187-6.339844-8.5-14.273437-15.761719-23.210937-21.375v77.109374h-90.046876v-77.109374c-8.9375 5.613281-16.871093 12.875-23.210937 21.375-11.015625 14.765624-16.835937 32.3125-16.835937 50.742187 0 33.769531 20.042968 64.375 51.058593 77.96875l8.980469 3.933594v69.433593c16.449219 3.128907 33.613281 3.128907 50.0625 0v-69.433593l8.980469-3.9375c31.019531-13.589844 51.058593-44.195313 51.058593-77.964844zm0 0"/><path d="m512 319.019531v-126.039062h-40.730469c-4.539062-15.484375-10.742187-30.40625-18.535156-44.59375l28.847656-28.847657-89.125-89.117187-28.847656 28.84375c-14.183594-7.792969-29.105469-13.996094-44.589844-18.53125v-40.734375h-126.039062v40.730469c-15.480469 4.539062-30.40625 10.742187-44.59375 18.535156l-28.84375-28.84375-89.125 89.121094 28.847656 28.847656c-7.789063 14.179687-13.996094 29.109375-18.53125 44.589844h-40.734375v126.039062h40.734375c4.535156 15.480469 10.742187 30.410157 18.53125 44.59375l-28.847656 28.847657 89.125 89.121093 28.84375-28.847656c14.1875 7.792969 29.113281 13.996094 44.59375 18.535156v40.730469h126.039062v-40.730469c15.484375-4.539062 30.40625-10.742187 44.59375-18.535156l28.847657 28.847656 89.121093-89.121093-28.847656-28.847657c7.792969-14.1875 13.996094-29.109375 18.535156-44.59375zm-256 84.058594c-14.9375 0-29.765625-2.03125-44.074219-6.035156l-10.957031-3.066407v-73.546874c-36.777344-20.0625-60.039062-58.707032-60.039062-101.039063 0-24.945313 7.878906-48.691406 22.789062-68.679687 14.398438-19.304688 34.910156-33.898438 57.75-41.097657l19.507812-6.144531v90.914062h30.046876v-90.914062l19.507812 6.144531c22.839844 7.199219 43.351562 21.792969 57.746094 41.097657 14.914062 19.984374 22.792968 43.734374 22.792968 68.679687 0 42.332031-23.261718 80.976563-60.039062 101.039063v73.546874l-10.957031 3.066407c-14.308594 4.003906-29.136719 6.035156-44.074219 6.035156zm0 0"/></svg>