<svg version="1.1" xmlns="http://www.w3.org/2000/svg" width="32" height="32" viewBox="0 0 32 32">
<title>summary</title>
<path d="M24.345 5.464c0-0.751-0.293-1.457-0.824-1.989l-2.651-2.651c-0.524-0.524-1.267-0.824-2.007-0.824h-0.161v5.625h5.643l-0-0.161z"></path>
<path d="M17.121 19.346c0.179-0.545 0.493-1.052 0.901-1.463l6.348-6.322v-4.061h-6.587c-0.518 0-0.907-0.419-0.907-0.938v-6.563h-14.063c-1.551 0-2.813 1.262-2.813 2.813v26.375c0 1.551 1.262 2.813 2.813 2.813h18.72c1.551 0 2.837-1.262 2.837-2.813v-6.997l-1.030 1.005c-0.417 0.414-0.906 0.715-1.457 0.899l-2.981 0.995-0.454 0.025c-0.751 0-1.461-0.365-1.902-0.977-0.438-0.609-0.557-1.398-0.319-2.111l0.895-2.681zM4.688 16.875h9.345c0.518 0 0.938 0.419 0.938 0.938s-0.419 0.938-0.938 0.938h-9.345c-0.518 0-0.938-0.419-0.938-0.938s0.419-0.938 0.938-0.938zM3.75 14.063c0-0.518 0.419-0.938 0.938-0.938h9.345c0.518 0 0.938 0.419 0.938 0.938s-0.419 0.938-0.938 0.938h-9.345c-0.518 0-0.938-0.419-0.938-0.938zM3.75 21.563c0-0.518 0.419-0.938 0.938-0.938h9.345c0.518 0 0.938 0.419 0.938 0.938s-0.419 0.938-0.938 0.938h-9.345c-0.518 0-0.938-0.419-0.938-0.938zM17.782 26.25c0.518 0 0.938 0.419 0.938 0.938s-0.419 0.938-0.938 0.938h-5.625c-0.518 0-0.938-0.419-0.938-0.938s0.419-0.938 0.938-0.938h5.625zM4.688 11.25c-0.518 0-0.938-0.419-0.938-0.938s0.419-0.938 0.938-0.938h13.095c0.518 0 0.938 0.419 0.938 0.938s-0.419 0.938-0.938 0.938h-13.095z"></path>
<path d="M18.819 20.175l-0.816 2.447c-0.122 0.367 0.227 0.715 0.593 0.593l2.445-0.817-2.223-2.223z"></path>
<path d="M26.101 12.457l-6.174 6.174 2.663 2.663c1.395-1.396 4.111-4.111 6.174-6.175l-2.663-2.662z"></path>
<path d="M31.449 9.768c-0.33-0.331-0.815-0.521-1.329-0.521s-1 0.19-1.331 0.522l-1.362 1.362 2.662 2.662c0.746-0.746 1.261-1.261 1.362-1.362 0.732-0.733 0.732-1.928-0.002-2.663z"></path>
<path d="M31.451 12.431c0 0 0-0 0-0 0.002-0.002 0.003-0.003 0.005-0.005-0.002 0.002-0.003 0.003-0.006 0.005z"></path>
<path d="M31.456 12.425c0.003-0.003 0.006-0.007 0.008-0.008-0.002 0.002-0.005 0.005-0.008 0.008z"></path>
<path d="M31.465 12.417c0.006-0.006 0.006-0.006 0 0v0z"></path>
</svg>
