<!-- Generated by IcoMoon.io -->
<svg version="1.1" xmlns="http://www.w3.org/2000/svg" width="32" height="32" viewBox="0 0 32 32">
<title>language</title>
<path d="M8.669 8.563h-0.401l-0.75 3.75h1.901z"></path>
<path d="M23.836 16.063c0.405 1.087 0.943 1.968 1.539 2.717 0.596-0.749 1.197-1.629 1.602-2.717h-3.141z"></path>
<path d="M29.188 5.688h-11.643l2.428 19.48c0.043 0.797-0.175 1.547-0.695 2.134l-4.111 4.698h14.021c1.551 0 2.813-1.262 2.813-2.813v-20.625c0-1.551-1.262-2.875-2.813-2.875zM29.188 16.063h-0.25c-0.533 1.711-1.379 3.051-2.259 4.106 0.689 0.63 1.425 1.146 2.157 1.725 0.404 0.323 0.47 0.913 0.146 1.317-0.323 0.404-0.915 0.47-1.317 0.146-0.796-0.628-1.542-1.154-2.289-1.839-0.747 0.685-1.431 1.211-2.227 1.839-0.403 0.324-0.995 0.259-1.317-0.146-0.324-0.405-0.258-0.994 0.146-1.317 0.732-0.579 1.406-1.095 2.095-1.725-0.879-1.056-1.663-2.395-2.196-4.106h-0.25c-0.518 0-0.938-0.419-0.938-0.938s0.419-0.938 0.938-0.938h2.813v-0.938c0-0.518 0.419-0.938 0.938-0.938s0.938 0.419 0.938 0.938v0.938h2.875c0.518 0 0.938 0.419 0.938 0.938s-0.419 0.938-0.938 0.938z"></path>
<path d="M15.26 2.464c-0.175-1.404-1.375-2.464-2.79-2.464h-9.657c-1.551 0-2.813 1.262-2.813 2.813v20.75c0 1.551 1.262 2.813 2.813 2.813 5.604 0 9.636 0 14.784 0 0.273-0.313 0.503-0.508 0.512-0.916 0.002-0.102-2.836-22.893-2.849-22.995zM11.496 17.919c-0.497 0.102-1.001-0.22-1.103-0.735l-0.599-2.997h-2.651l-0.599 2.997c-0.101 0.507-0.59 0.84-1.103 0.735-0.507-0.102-0.837-0.595-0.735-1.103l1.875-9.375c0.088-0.438 0.472-0.753 0.919-0.753h1.938c0.447 0 0.831 0.316 0.919 0.753l1.875 9.375c0.102 0.508-0.228 1.002-0.735 1.103z"></path>
<path d="M10.954 28.25l0.161 1.286c0.107 0.861 0.68 1.74 1.621 2.178 1.777-1.956 0.702-0.773 3.147-3.465h-4.929z"></path>
</svg>
