<svg version="1.1" xmlns="http://www.w3.org/2000/svg" width="32" height="32" viewBox="0 0 32 32">
<title>adobe-illustrator-cc</title>
<path fill="#000" d="M1.333 1.733h29.333v28.533h-29.333v-28.533z"></path>
<path fill="#ff7f18" d="M1.333 1.733h29.333v28.533h-29.333v-28.533zM0 31.6h32v-31.2h-32v31.2zM20.96 11.52c0-0.107 0.040-0.16 0.16-0.16h2.093c0.107 0 0.16 0.040 0.16 0.16v10.52c0 0.107-0.027 0.16-0.16 0.16h-2.067c-0.133 0-0.173-0.067-0.173-0.173v-10.507h-0.013zM20.813 8.493c0-0.853 0.6-1.36 1.36-1.36 0.813 0 1.36 0.547 1.36 1.36 0 0.88-0.573 1.36-1.387 1.36-0.773 0-1.333-0.48-1.333-1.36zM14.813 15.907c-0.373-1.48-1.253-4.707-1.587-6.267h-0.027c-0.28 1.56-0.987 4.2-1.547 6.267h3.16zM11.107 18.067l-1.053 4c-0.027 0.107-0.067 0.133-0.2 0.133h-1.96c-0.133 0-0.16-0.040-0.133-0.2l3.787-13.253c0.067-0.24 0.107-0.453 0.133-1.107 0-0.093 0.040-0.133 0.107-0.133h2.8c0.093 0 0.133 0.027 0.16 0.133l4.24 14.387c0.027 0.107 0 0.173-0.107 0.173h-2.213c-0.107 0-0.173-0.027-0.2-0.12l-1.093-4.013h-4.267z"></path>
</svg>
