<svg version="1.1" xmlns="http://www.w3.org/2000/svg" width="32" height="32" viewBox="0 0 32 32">
<title>adobe-xd</title>
<path fill="#2e001e" d="M1.333 1.733h29.333v28.533h-29.333z"></path>
<path fill="#ff2bc2" d="M0 0.4v31.2h32v-31.2h-32zM1.333 1.733h29.333v28.533h-29.333v-28.533z"></path>
<path fill="#ff2bc2" d="M23.24 13.507c-0.2-0.093-0.453-0.133-0.773-0.133-1.68 0-2.8 1.293-2.8 3.44 0 2.453 1.147 3.44 2.64 3.44 0.32 0 0.667-0.040 0.92-0.147v-6.6h0.013zM17.267 16.92c0-3.107 2-5.533 5.28-5.533 0.28 0 0.427 0 0.693 0.027v-3.467c0-0.080 0.067-0.133 0.133-0.133h2.147c0.107 0 0.133 0.040 0.133 0.107v12.187c0 0.36 0 0.813 0.067 1.307 0 0.093 0 0.107-0.080 0.147-1.12 0.533-2.293 0.773-3.413 0.773-2.893 0-4.96-1.787-4.96-5.413zM12.72 14.76l3.733 7.24c0.067 0.107 0.027 0.213-0.080 0.213h-2.32c-0.147 0-0.213-0.040-0.28-0.173-0.853-1.76-1.72-3.587-2.613-5.48h-0.027c-0.8 1.787-1.68 3.733-2.533 5.493-0.067 0.107-0.133 0.147-0.24 0.147h-2.213c-0.133 0-0.147-0.107-0.080-0.187l3.653-7.027-3.533-6.987c-0.080-0.107 0-0.2 0.093-0.2h2.293c0.133 0 0.2 0.027 0.24 0.147 0.84 1.773 1.693 3.52 2.493 5.307h0.027c0.773-1.76 1.627-3.533 2.44-5.28 0.067-0.107 0.107-0.173 0.24-0.173h2.147c0.107 0 0.147 0.080 0.080 0.2l-3.52 6.76z"></path>
</svg>
