<svg version="1.1" xmlns="http://www.w3.org/2000/svg" width="64" height="32" viewBox="0 0 64 32">
<title>axios</title>
<path fill="#fff" d="M33.462 9.665v12.67h-3.151v-12.67z"></path>
<path fill="#fff" d="M41.282 9.257c3.763 0 6.8 2.924 6.8 6.709 0 3.808-3.060 6.777-6.845 6.777s-6.845-2.947-6.845-6.732c0.023-3.785 3.128-6.755 6.891-6.755zM41.259 19.661c1.995 0 3.468-1.723 3.468-3.672s-1.473-3.649-3.468-3.649c-1.995 0-3.468 1.7-3.468 3.649s1.473 3.672 3.468 3.672z"></path>
<path fill="#fff" d="M48.444 18.482l2.879-0.68c0.204 1.519 1.315 2.063 2.471 2.063s1.564-0.68 1.564-1.224c0-0.431-0.249-0.861-1.088-1.020l-1.768-0.34c-2.108-0.408-3.604-1.723-3.604-3.763 0-2.425 2.199-4.125 4.715-4.125 3.219 0 4.533 1.995 4.76 3.695l-2.788 0.816c-0.159-1.043-0.793-1.791-1.949-1.791-0.997 0-1.473 0.657-1.473 1.179 0 0.431 0.204 0.907 0.952 1.043l1.836 0.34c2.403 0.476 3.717 1.927 3.717 3.831 0 2.063-1.791 4.057-4.851 4.057-3.241 0.023-4.941-1.655-5.372-4.080z"></path>
<path fill="#0a99e0" d="M8.711 22.313h-3.377l5.576-12.648h3.4z"></path>
<path fill="#fff" d="M16.53 22.313h4.239l2.652-4.012 2.629 4.012h3.468l-4.193-6.46 4.216-6.21h-3.853l-2.267 3.763-2.199-3.763h-3.899l4.239 6.21-2.743 4.012-4.511-10.2h-3.4z"></path>
<path fill="#222" d="M33.462 9.665v12.67h-3.151v-12.67z"></path>
<path fill="#222" d="M41.282 9.257c3.763 0 6.8 2.924 6.8 6.709 0 3.808-3.060 6.777-6.845 6.777s-6.845-2.947-6.845-6.732c0.023-3.785 3.128-6.755 6.891-6.755zM41.259 19.661c1.995 0 3.468-1.723 3.468-3.672s-1.473-3.649-3.468-3.649c-1.995 0-3.468 1.7-3.468 3.649s1.473 3.672 3.468 3.672z"></path>
<path fill="#222" d="M48.444 18.482l2.879-0.68c0.204 1.519 1.315 2.063 2.471 2.063s1.564-0.68 1.564-1.224c0-0.431-0.249-0.861-1.088-1.020l-1.768-0.34c-2.108-0.408-3.604-1.723-3.604-3.763 0-2.425 2.199-4.125 4.715-4.125 3.219 0 4.533 1.995 4.76 3.695l-2.788 0.816c-0.159-1.043-0.793-1.791-1.949-1.791-0.997 0-1.473 0.657-1.473 1.179 0 0.431 0.204 0.907 0.952 1.043l1.836 0.34c2.403 0.476 3.717 1.927 3.717 3.831 0 2.063-1.791 4.057-4.851 4.057-3.241 0.023-4.941-1.655-5.372-4.080z"></path>
<path fill="#222" d="M10.909 9.665h3.4l4.511 10.2 2.743-4.012-4.239-6.21h3.899l2.199 3.763 2.267-3.763h3.853l-4.216 6.21 4.193 6.46h-3.468l-2.629-4.012-2.652 4.012h-4.239l-3.866-8.851z"></path>
<path fill="#222" d="M10.909 9.665l5.621 12.648-1.305-7.592-4.316-5.055z"></path>
</svg>
