<svg version="1.1" xmlns="http://www.w3.org/2000/svg" width="32" height="32" viewBox="0 0 32 32">
<title>bcrypt-js</title>
<path fill="#0077b7" d="M15.639 15.335l-8.685 8.685c-0.283 0.283-0.283 0.741 0 1.024 0.141 0.141 0.327 0.212 0.512 0.212s0.371-0.071 0.512-0.212l8.685-8.685c0.283-0.283 0.283-0.741 0-1.024s-0.741-0.283-1.024-0z"></path>
<path fill="#0077b7" d="M29.191 2.807c-1.81-1.81-4.216-2.807-6.776-2.807s-4.966 0.997-6.776 2.807c-2.799 2.799-3.579 6.994-2.018 10.588l-13.394 13.395c-0.135 0.135-0.212 0.319-0.212 0.51l-0.008 3.966c0 0.007 0 0.014 0 0.021 0 0 0 0 0 0s0 0 0 0c0.005 0.179 0.075 0.356 0.212 0.492 0.138 0.138 0.318 0.209 0.499 0.212 0 0 0 0 0 0s0 0 0.001 0c0.003-0.001 0.007 0 0.011 0l7.691 0.009c0 0 0.001 0 0.001 0 0.192 0 0.376-0.076 0.512-0.212s0.212-0.32 0.212-0.512v-3.016h3.016c0.4 0 0.724-0.324 0.724-0.724l0-3.016h3.016c0.4 0 0.724-0.324 0.724-0.724v-3.441l1.977-1.977c1.227 0.533 2.524 0.793 3.812 0.793 2.484-0 4.933-0.968 6.776-2.811 3.736-3.736 3.736-9.816-0-13.552zM28.167 15.335c-2.482 2.482-6.257 3.095-9.394 1.524-0.279-0.14-0.616-0.085-0.836 0.135l-2.548 2.548c-0.136 0.136-0.212 0.32-0.212 0.512v3.016h-3.016c-0.4 0-0.724 0.324-0.724 0.724l-0 3.016h-3.016c-0.4 0-0.724 0.324-0.724 0.724v3.016l-5.221-0.006 3.453-3.453c0.283-0.283 0.283-0.741 0-1.024s-0.741-0.283-1.024 0l-3.448 3.448 0.004-1.914 13.541-13.542c0.22-0.22 0.275-0.557 0.135-0.836-1.57-3.137-0.958-6.912 1.524-9.394 1.537-1.536 3.579-2.383 5.752-2.383s4.216 0.846 5.752 2.383c1.537 1.536 2.383 3.579 2.383 5.752s-0.846 4.216-2.383 5.752z"></path>
<path fill="#0077b7" d="M21.964 5.222c0 0 0 0 0 0-1.327 1.327-1.327 3.485 0 4.812 0.663 0.663 1.535 0.995 2.406 0.995s1.743-0.332 2.406-0.995c1.327-1.327 1.327-3.485 0-4.812s-3.485-1.327-4.812 0zM25.752 9.010c-0.762 0.762-2.002 0.762-2.764 0s-0.762-2.002 0-2.765v0c0.762-0.762 2.002-0.762 2.764 0s0.762 2.002 0 2.765z"></path>
</svg>
