<svg version="1.1" xmlns="http://www.w3.org/2000/svg" width="32" height="32" viewBox="0 0 32 32">
<title>CSS-3</title>
<path fill="#1f72b5" d="M9.325 25.67l-1.485-16.666h16.32l-1.485 16.659-6.688 1.856z"></path>
<path fill="#51a3dc" d="M16 26.106l5.402-1.498 1.274-14.24h-6.675z"></path>
<path fill="#ebebeb" d="M10.694 14.214l-0.198-1.926h11.008l-0.128 2.234-4.653 2.054h4.461l-0.48 6.336-4.499 1.21-4.666-1.133-0.288-3.213h2.061l0.115 1.696 2.701 0.506 2.496-0.768 0.115-2.714h-7.667l-0.141-2.016 5.069-2.221z"></path>
<path fill="#cecece" d="M10.931 16.48l0.141 2.016h4.928v-4.237z"></path>
<path fill="#cecece" d="M13.427 21.472l-0.115-1.696h-2.061l0.288 3.213 4.461 1.082v-2.118z"></path>
<path fill="#cecece" d="M10.496 12.288l0.198 1.926 5.306 0.045v-1.971z"></path>
<path fill="#000" d="M17.536 5.248v-0.768h-3.072v1.792h2.112v0.576h-2.176v0.704h3.072v-1.856h-2.176v-0.448z"></path>
<path fill="#000" d="M11.968 6.291v0.557h2.176v0.704h-3.072v-3.072h3.008v0.768h-2.112z"></path>
<path fill="#000" d="M20.928 5.248v-0.768h-3.072v1.792h2.112v0.576h-2.176v0.704h3.072v-1.856h-2.176v-0.448z"></path>
</svg>
