<svg version="1.1" xmlns="http://www.w3.org/2000/svg" width="32" height="32" viewBox="0 0 32 32">
<title>express-validator</title>
<path fill="#9a00ff" d="M30.4 16c0 0.001 0 0.002 0 0.003 0 0.993-0.101 1.963-0.293 2.899l0.016-0.093c-0.207 1.030-0.49 1.934-0.855 2.796l0.035-0.094c-0.4 0.956-0.846 1.774-1.363 2.541l0.032-0.051c-0.55 0.817-1.139 1.531-1.791 2.182l-0 0c-0.651 0.652-1.365 1.241-2.131 1.758l-0.051 0.032c-0.715 0.485-1.534 0.931-2.395 1.296l-0.094 0.035c-0.767 0.329-1.671 0.612-2.609 0.804l-0.093 0.016c-0.844 0.176-1.813 0.277-2.807 0.277-0.001 0-0.002 0-0.003 0h0c-0.001 0-0.002 0-0.003 0-0.993 0-1.963-0.101-2.899-0.293l0.093 0.016c-1.030-0.207-1.934-0.49-2.796-0.855l0.094 0.035c-0.956-0.4-1.774-0.846-2.541-1.363l0.051 0.032c-0.817-0.55-1.531-1.139-2.182-1.791l-0-0c-0.652-0.651-1.241-1.365-1.758-2.131l-0.032-0.051c-0.485-0.715-0.931-1.534-1.296-2.395l-0.035-0.094c-0.329-0.767-0.612-1.671-0.804-2.609l-0.016-0.093c-0.176-0.844-0.277-1.813-0.277-2.807 0-0.001 0-0.002 0-0.003v0c0-0.001 0-0.002 0-0.003 0-0.993 0.101-1.963 0.292-2.899l-0.016 0.093c0.207-1.030 0.49-1.934 0.855-2.796l-0.035 0.094c0.4-0.956 0.846-1.774 1.363-2.541l-0.032 0.051c0.55-0.817 1.139-1.531 1.791-2.182l0-0c0.651-0.652 1.365-1.241 2.131-1.758l0.051-0.032c0.715-0.485 1.534-0.931 2.395-1.296l0.094-0.035c0.767-0.329 1.671-0.612 2.609-0.804l0.093-0.016c0.844-0.176 1.813-0.277 2.807-0.277 0.001 0 0.002 0 0.003 0h-0c0.001 0 0.002 0 0.003 0 0.993 0 1.963 0.101 2.899 0.292l-0.093-0.016c1.030 0.207 1.934 0.49 2.796 0.855l-0.094-0.035c0.956 0.4 1.774 0.846 2.541 1.363l-0.051-0.032c0.817 0.55 1.531 1.139 2.182 1.791l0 0c0.652 0.651 1.241 1.365 1.758 2.131l0.032 0.051c0.485 0.715 0.931 1.534 1.296 2.395l0.035 0.094c0.329 0.767 0.612 1.671 0.804 2.609l0.016 0.093c0.176 0.844 0.277 1.813 0.277 2.807 0 0.001 0 0.002 0 0.003v-0z"></path>
<path fill="#fff" d="M12.429 25.93l-7.853-7.852 3.129-3.129 4.724 4.723 11.865-11.866 3.13 3.129z"></path>
</svg>
