<svg version="1.1" xmlns="http://www.w3.org/2000/svg" width="32" height="32" viewBox="0 0 32 32">
<title>express-109</title>
<path d="M0.208 18.571v-3.561h4.447v-0.208h-4.447v-3.249h4.728v-0.208h-4.936v7.435h4.978v-0.208h-4.769zM8.987 13.426l-1.843 2.426-1.802-2.426h-0.271l1.947 2.583-2.135 2.77h0.25l2.010-2.614 2.020 2.614h0.26l-2.145-2.77 1.958-2.582h-0.25zM10.049 20.612v-3.332h0.021c0.125 0.486 0.371 0.876 0.739 1.172s0.837 0.443 1.406 0.443c0.368 0 0.694-0.075 0.979-0.224s0.522-0.352 0.713-0.609c0.191-0.257 0.337-0.555 0.437-0.896s0.151-0.698 0.151-1.073c0-0.403-0.052-0.774-0.156-1.114s-0.255-0.635-0.453-0.885c-0.198-0.25-0.437-0.444-0.719-0.583s-0.599-0.208-0.953-0.208c-0.271 0-0.522 0.040-0.755 0.12s-0.439 0.193-0.62 0.338c-0.181 0.147-0.336 0.317-0.463 0.507l-0.005 0.008c-0.132 0.198-0.233 0.415-0.302 0.651h-0.021v-1.5h-0.208v7.185h0.208zM12.215 18.695c-0.652 0-1.177-0.224-1.572-0.672s-0.594-1.092-0.594-1.932c0-0.347 0.049-0.677 0.146-0.989s0.238-0.587 0.422-0.823c0.184-0.236 0.411-0.424 0.682-0.562s0.576-0.208 0.916-0.208c0.347 0 0.651 0.069 0.911 0.208s0.476 0.328 0.646 0.568 0.299 0.514 0.385 0.823c0.087 0.309 0.13 0.637 0.13 0.984 0 0.312-0.040 0.623-0.12 0.932s-0.203 0.587-0.37 0.833c-0.167 0.246-0.38 0.448-0.64 0.604s-0.575 0.234-0.942 0.234zM15.641 18.779v-3.030c0-0.292 0.042-0.576 0.125-0.854s0.212-0.522 0.385-0.734c0.174-0.212 0.394-0.378 0.661-0.5s0.585-0.172 0.953-0.151v-0.208c-0.319-0.007-0.599 0.028-0.838 0.104s-0.446 0.181-0.62 0.312c-0.174 0.132-0.312 0.286-0.416 0.463-0.098 0.163-0.177 0.353-0.226 0.553l-0.003 0.014h-0.021v-1.322h-0.208v5.353h0.208zM18.025 16.144h4.478c0.014-0.368-0.023-0.722-0.109-1.062s-0.226-0.642-0.416-0.906c-0.191-0.264-0.437-0.476-0.739-0.635s-0.661-0.239-1.078-0.239c-0.299 0-0.59 0.063-0.875 0.188s-0.535 0.307-0.75 0.547-0.389 0.533-0.521 0.88c-0.132 0.347-0.198 0.743-0.198 1.187 0 0.396 0.045 0.765 0.135 1.109s0.229 0.642 0.416 0.896c0.188 0.253 0.429 0.45 0.724 0.588s0.651 0.205 1.067 0.198c0.611 0 1.125-0.172 1.541-0.515s0.663-0.828 0.739-1.453h-0.208c-0.090 0.59-0.321 1.033-0.692 1.328s-0.838 0.443-1.401 0.443c-0.382 0-0.705-0.066-0.968-0.198s-0.479-0.312-0.646-0.541c-0.167-0.229-0.29-0.498-0.37-0.807s-0.123-0.644-0.13-1.005zM22.295 15.936h-4.269c0.021-0.375 0.090-0.712 0.208-1.010s0.273-0.554 0.463-0.765c0.191-0.212 0.413-0.373 0.666-0.484s0.526-0.167 0.817-0.167c0.347 0 0.652 0.064 0.916 0.193s0.484 0.304 0.661 0.526c0.177 0.222 0.311 0.481 0.401 0.776s0.135 0.606 0.135 0.932zM26.825 15.009h0.208c0-0.597-0.174-1.031-0.521-1.302s-0.819-0.406-1.416-0.406c-0.333 0-0.614 0.042-0.843 0.125s-0.416 0.191-0.562 0.323c-0.146 0.132-0.25 0.278-0.312 0.437s-0.094 0.312-0.094 0.458c0 0.292 0.052 0.524 0.156 0.698s0.267 0.309 0.489 0.406c0.153 0.069 0.326 0.132 0.521 0.188s0.42 0.114 0.677 0.177c0.229 0.056 0.455 0.111 0.677 0.167s0.418 0.13 0.588 0.224c0.17 0.094 0.309 0.213 0.417 0.359s0.161 0.337 0.161 0.573c0 0.229-0.054 0.424-0.161 0.583s-0.245 0.29-0.406 0.387l-0.006 0.003c-0.167 0.101-0.352 0.174-0.557 0.219s-0.404 0.068-0.599 0.068c-0.632 0-1.116-0.141-1.453-0.422s-0.505-0.724-0.505-1.328h-0.208c0 0.673 0.182 1.166 0.547 1.479s0.904 0.469 1.619 0.469c0.229 0 0.46-0.026 0.692-0.078s0.441-0.137 0.625-0.255c0.183-0.118 0.333-0.272 0.444-0.452l0.003-0.006c0.115-0.188 0.172-0.417 0.172-0.687 0-0.257-0.050-0.465-0.151-0.625s-0.233-0.292-0.396-0.396c-0.163-0.104-0.347-0.186-0.552-0.245 0.022-0.003-0.185-0.062-0.393-0.119l-0.226-0.053c0.499 0.104 0.242 0.036-0.015-0.031l-0.751-0.167c-0.219-0.056-0.422-0.121-0.609-0.198-0.18-0.076-0.325-0.186-0.432-0.328s-0.161-0.345-0.161-0.609c0-0.049 0.014-0.135 0.042-0.26s0.094-0.252 0.198-0.38c0.104-0.128 0.264-0.243 0.479-0.344s0.51-0.151 0.885-0.151c0.257 0 0.491 0.028 0.703 0.083s0.394 0.144 0.547 0.266c0.153 0.121 0.271 0.276 0.354 0.463s0.125 0.417 0.125 0.687zM31.646 15.009h0.208c0-0.597-0.174-1.031-0.521-1.302s-0.819-0.406-1.416-0.406c-0.333 0-0.614 0.042-0.843 0.125s-0.417 0.191-0.562 0.323c-0.146 0.132-0.25 0.278-0.312 0.437s-0.094 0.312-0.094 0.458c0 0.292 0.052 0.524 0.156 0.698s0.267 0.309 0.489 0.406c0.153 0.069 0.326 0.132 0.521 0.188s0.42 0.114 0.677 0.177c0.229 0.056 0.455 0.111 0.677 0.167s0.418 0.13 0.588 0.224c0.17 0.094 0.309 0.213 0.416 0.359s0.161 0.337 0.161 0.573c0 0.229-0.054 0.424-0.161 0.583s-0.245 0.29-0.405 0.387l-0.006 0.003c-0.167 0.101-0.352 0.174-0.557 0.219s-0.404 0.068-0.599 0.068c-0.632 0-1.116-0.141-1.453-0.422s-0.505-0.724-0.505-1.328h-0.208c0 0.673 0.182 1.166 0.547 1.479s0.904 0.469 1.619 0.469c0.229 0 0.46-0.026 0.692-0.078s0.441-0.137 0.625-0.255c0.183-0.118 0.333-0.272 0.444-0.452l0.003-0.006c0.115-0.188 0.172-0.417 0.172-0.687 0-0.257-0.050-0.465-0.151-0.625s-0.233-0.292-0.396-0.396c-0.163-0.104-0.347-0.186-0.552-0.245 0.022-0.003-0.185-0.062-0.393-0.119l-0.226-0.053c0.499 0.104 0.243 0.036-0.014-0.031l-0.751-0.167c-0.219-0.056-0.422-0.121-0.609-0.198-0.18-0.076-0.325-0.186-0.432-0.328s-0.161-0.345-0.161-0.609c0-0.049 0.014-0.135 0.042-0.26s0.094-0.252 0.198-0.38c0.104-0.128 0.264-0.243 0.479-0.344s0.51-0.151 0.885-0.151c0.257 0 0.491 0.028 0.703 0.083s0.394 0.144 0.547 0.266 0.271 0.276 0.354 0.463c0.083 0.188 0.125 0.417 0.125 0.687z"></path>
</svg>
