<svg version="1.1" xmlns="http://www.w3.org/2000/svg" width="32" height="32" viewBox="0 0 32 32" fill="#0077b7">
<title>flip-move</title>
<path d="M26.898 17.942l4.689-5.265c0.297-0.334 0.444-0.775 0.406-1.22s-0.257-0.855-0.606-1.134c-0.713-0.53-1.714-0.417-2.291 0.258l-3.546 3.981c-0.095 0.107-0.23 0.173-0.374 0.181s-0.285-0.041-0.392-0.136l-5.265-4.689c-0.107-0.096-0.249-0.145-0.392-0.136s-0.278 0.073-0.374 0.181l-16.893 18.967c-0.604 0.651-0.6 1.659 0.008 2.306 0.317 0.315 0.75 0.486 1.196 0.473s0.868-0.21 1.166-0.543l14.789-16.608c0.096-0.108 0.23-0.173 0.374-0.181s0.285 0.041 0.392 0.136l4.051 3.607c0.895 0.797 2.266 0.717 3.063-0.177z"></path>
<path d="M4.676 11.221c0.713 0.53 1.714 0.417 2.292-0.258l3.546-3.981c0.096-0.107 0.23-0.173 0.374-0.181s0.285 0.041 0.392 0.136l3.645 3.247c0.107 0.096 0.249 0.145 0.392 0.136s0.278-0.073 0.374-0.181l1.443-1.62c0.096-0.107 0.145-0.249 0.136-0.392s-0.073-0.278-0.181-0.374l-4.86-4.329c-0.895-0.797-2.266-0.717-3.063 0.177l-4.689 5.265c-0.297 0.334-0.444 0.775-0.407 1.22s0.257 0.855 0.606 1.134z"></path>
<path d="M17.145 28.933c-0.604 0.651-0.6 1.659 0.008 2.306 0.317 0.314 0.75 0.485 1.196 0.471s0.868-0.211 1.165-0.545l4.692-5.264c0.383-0.43 0.579-0.994 0.546-1.568s-0.293-1.112-0.723-1.495l-4.86-4.329c-0.107-0.096-0.249-0.145-0.392-0.136s-0.278 0.073-0.374 0.181l-1.443 1.62c-0.096 0.107-0.145 0.249-0.136 0.392s0.073 0.278 0.181 0.374l3.645 3.246c0.107 0.096 0.172 0.23 0.181 0.374s-0.041 0.285-0.137 0.392z"></path>
<path d="M20.979 7.829c1.789 1.594 4.532 1.435 6.126-0.354s1.435-4.532-0.354-6.126c-1.789-1.594-4.532-1.435-6.126 0.354-0.765 0.859-1.158 1.988-1.092 3.136s0.587 2.224 1.446 2.989z"></path>
<path d="M0.542 14.894h4.339c0.3 0 0.542-0.243 0.542-0.542s-0.243-0.542-0.542-0.542h-4.339c-0.3 0-0.542 0.243-0.542 0.542s0.243 0.542 0.542 0.542z"></path>
<path d="M2.169 16.521c0 0.3 0.243 0.542 0.542 0.542h4.339c0.3 0 0.542-0.243 0.542-0.542s-0.243-0.542-0.542-0.542h-4.339c-0.3 0-0.542 0.243-0.542 0.542z"></path>
</svg>
