<svg version="1.1" xmlns="http://www.w3.org/2000/svg" width="32" height="32" viewBox="0 0 32 32">
<title>flip-move</title>
<path d="M1.92 13.69v1.39h1.76v0.58h-1.76v2.42h-0.69v-5.010h3.090v0.62h-2.4z"></path>
<path d="M4.91 17.050v-4.13h0.65v4.020c0 0.2 0.060 0.35 0.17 0.46s0.26 0.17 0.44 0.17v0.58c-0.84 0-1.26-0.37-1.26-1.1z"></path>
<path d="M7.24 18.080v-3.11h-0.5v-0.55h1.15v3.66h-0.65zM7.59 13.040c0.11 0 0.21 0.040 0.29 0.12s0.12 0.17 0.12 0.28c0 0.11-0.040 0.21-0.12 0.29-0.080 0.070-0.18 0.11-0.29 0.11s-0.2-0.040-0.28-0.12c-0.080-0.080-0.12-0.17-0.12-0.29s0.040-0.21 0.12-0.28 0.17-0.11 0.28-0.11z"></path>
<path d="M9.57 17.88v1.64h-0.65v-5.1h0.65v0.3c0.25-0.25 0.54-0.37 0.89-0.37 0.52 0 0.92 0.16 1.21 0.49s0.43 0.8 0.43 1.42c0 0.56-0.15 1.010-0.44 1.36s-0.71 0.53-1.26 0.53c-0.15 0-0.32-0.030-0.5-0.080-0.17-0.050-0.28-0.12-0.33-0.19zM9.57 15.21v2.13c0.040 0.060 0.13 0.12 0.26 0.18s0.26 0.080 0.39 0.080c0.81 0 1.21-0.46 1.21-1.37 0-0.46-0.1-0.8-0.29-1.020s-0.5-0.32-0.92-0.32c-0.090 0-0.2 0.030-0.33 0.1s-0.24 0.14-0.32 0.22z"></path>
<path d="M19.17 18.080v-2.32c0-0.58-0.25-0.86-0.75-0.86-0.16 0-0.3 0.050-0.44 0.15s-0.23 0.21-0.28 0.33v2.71h-0.65v-2.6c0-0.18-0.070-0.32-0.2-0.43-0.14-0.1-0.31-0.16-0.54-0.16-0.13 0-0.27 0.050-0.41 0.15-0.15 0.1-0.25 0.21-0.31 0.33v2.7h-0.65v-3.66h0.42l0.22 0.42c0.25-0.33 0.56-0.49 0.94-0.49 0.52 0 0.89 0.16 1.1 0.49 0.070-0.14 0.21-0.26 0.41-0.35s0.4-0.14 0.61-0.14c0.38 0 0.67 0.11 0.88 0.34 0.21 0.22 0.31 0.54 0.31 0.95v2.45h-0.66z"></path>
<path d="M20.5 16.25c0-0.56 0.15-1.020 0.46-1.37 0.3-0.35 0.7-0.52 1.2-0.52 0.52 0 0.93 0.17 1.22 0.5s0.43 0.8 0.43 1.39c0 0.59-0.15 1.060-0.44 1.4s-0.7 0.51-1.21 0.51c-0.52 0-0.93-0.17-1.22-0.52-0.3-0.35-0.44-0.81-0.44-1.39zM21.18 16.25c0 0.92 0.32 1.38 0.97 1.38 0.3 0 0.54-0.12 0.71-0.37s0.26-0.58 0.26-1.010c0-0.91-0.32-1.36-0.97-1.36-0.3 0-0.53 0.12-0.71 0.36s-0.26 0.57-0.26 1z"></path>
<path d="M25.81 18.15h-0.17l-1.57-3.74h0.71l0.97 2.56 0.99-2.56h0.68l-1.61 3.74z"></path>
<path d="M31 16.32h-2.64c0 0.43 0.12 0.76 0.35 0.99 0.21 0.2 0.47 0.3 0.8 0.3 0.37 0 0.68-0.11 0.93-0.32l0.27 0.47c-0.1 0.1-0.25 0.19-0.46 0.26-0.26 0.1-0.55 0.14-0.87 0.14-0.46 0-0.85-0.16-1.17-0.47-0.36-0.34-0.54-0.81-0.54-1.39 0-0.6 0.18-1.090 0.55-1.45 0.33-0.33 0.72-0.49 1.17-0.49 0.52 0 0.93 0.15 1.23 0.44 0.29 0.28 0.43 0.66 0.43 1.12 0.010 0.14-0.010 0.28-0.050 0.4zM29.43 14.9c-0.29 0-0.53 0.090-0.73 0.28-0.19 0.18-0.29 0.4-0.32 0.66h2.030c0-0.26-0.080-0.48-0.25-0.66-0.18-0.18-0.42-0.28-0.73-0.28z"></path>
</svg>
