<svg version="1.1" xmlns="http://www.w3.org/2000/svg" width="32" height="32" viewBox="0 0 32 32">
<title>Gatsby-Monogram</title>
<path fill="#639" d="M32 16c0 8.837-7.163 16-16 16s-16-7.163-16-16c0-8.837 7.163-16 16-16s16 7.163 16 16z"></path>
<path fill="#fff" d="M7.086 24.914c-2.4-2.4-3.657-5.6-3.657-8.686l12.457 12.343c-3.2-0.114-6.4-1.257-8.8-3.657zM18.743 28.229l-14.971-14.971c1.257-5.6 6.286-9.829 12.229-9.829 4.229 0 7.886 2.057 10.171 5.143l-1.714 1.486c-1.943-2.629-5.029-4.343-8.457-4.343-4.457 0-8.229 2.857-9.714 6.857l13.143 13.143c3.314-1.143 5.829-4 6.629-7.429h-5.486v-2.286h8c0 5.943-4.229 10.971-9.829 12.229z"></path>
</svg>
