<svg version="1.1" xmlns="http://www.w3.org/2000/svg" width="32" height="32" viewBox="0 0 32 32">
<title>html5</title>
<path fill="#000" d="M6.774 0h1.442v1.425h1.319v-1.425h1.442v4.315h-1.442v-1.445h-1.319v1.445h-1.442l-0-4.315z"></path>
<path fill="#000" d="M12.875 1.431h-1.27v-1.431h3.982v1.431h-1.27v2.884h-1.442l-0-2.884z"></path>
<path fill="#000" d="M16.219 0h1.504l0.925 1.516 0.924-1.516h1.505v4.315h-1.436v-2.139l-0.992 1.534h-0.025l-0.993-1.534v2.139h-1.411v-4.315z"></path>
<path fill="#000" d="M21.795 0h1.443v2.889h2.028v1.426h-3.471v-4.315z"></path>
<path fill="#e34e26" d="M6.695 29.42l-2.070-23.214h22.731l-2.072 23.216-9.299 2.578z"></path>
<path fill="#ef662a" d="M15.991 8.104v21.924l7.519-2.084 1.772-19.84z"></path>
<path fill="#fff" d="M8.86 10.951l0.768 8.61h9.868l-0.331 3.693-3.177 0.859-3.171-0.858-0.212-2.371h-2.858l0.409 4.571 5.832 1.62 5.839-1.62 0.783-8.741h-10.377l-0.261-2.916h10.896l0.255-2.848z"></path>
<path fill="#ebebeb" d="M15.991 10.951h-7.131l0.768 8.61h6.364v-2.847h-3.759l-0.261-2.916h4.020z"></path>
<path fill="#ebebeb" d="M15.991 24.112l-0.004 0.001-3.171-0.858-0.212-2.371h-2.858l0.409 4.571 5.836 1.619z"></path>
</svg>
