<svg xmlns="http://www.w3.org/2000/svg" xmlns:xlink="http://www.w3.org/1999/xlink" xmlns:v="http://vecta.io" width="109" height="29" viewBox="0 0 109 29"><style>svg{stroke:#000;stroke-linecap:round;stroke-linejoin:round;fill:#fff;fill-rule:evenodd;font-family:Roboto;font-size:14px;text-anchor:middle}svg text{paint-order:stroke;white-space:pre}svg .Text\.cls{stroke:none}</style><style>svg{stroke:#000;stroke-linecap:round;stroke-linejoin:round;fill:#fff;fill-rule:evenodd;font-family:Roboto;font-size:14px;text-anchor:middle}svg text{paint-order:stroke;white-space:pre}svg .Text\.cls{stroke:none}</style><defs><style>@import url("https://fonts.googleapis.com/css?family=Cousine:400,400i,700,700i");</style></defs><rect x="0" y="0" width="108" height="28" rx="2" fill="#ffea00" stroke="none" stroke-opacity="0"/><g transform="translate(23.5 9.8)"><path d="M 0 0 L 82 0 L 82 8.4 L 0 8.4 Z" fill-opacity="0" stroke="none" stroke-opacity="0"/><g class="Text.cls"><rect x="0" y="0" width="82" height="8.39999962" fill="none" stroke="none"/><text font-family="Cousine" fill="#000000" fill-opacity="1" font-weight="bold" font-size="13px"><tspan x="41" y="8.48999981">JavaScript</tspan></text></g></g><path d="M 0 0 L 15.5 0 L 15.5 15.5 L 0 15.5 Z" stroke="none" fill="#ffffff" fill-opacity="1" transform="translate(4.5 6.5)"/><path d="M 2.9063 5.2197 L 2.9063 0.1822 L 4.2625 0.1822 L 4.2625 5.2197 C 4.2625 7.1572 1.55 8.3197 0 5.9947 L 1.1625 5.2197 C 1.7438 6.3822 2.9063 5.9947 2.9063 5.2197 Z M 8.7188 1.926 C 7.9437 0.8604 6.975 1.3447 6.975 2.0229 C 6.975 3.0885 10.1719 2.8948 10.1719 5.2197 C 10.075 7.9322 6.2969 7.8354 5.1344 5.801 L 6.2969 5.1229 C 7.1688 6.4791 8.7188 5.9947 8.7188 5.2197 C 8.6219 3.8635 5.6188 4.5416 5.6188 2.0229 C 5.5219 0.0854 8.4281 -0.9802 9.7844 1.2479 L 8.7188 1.926" stroke="none" fill="#000000" fill-opacity="1" transform="translate(8.5691 13.4863)"/></svg>