<svg xmlns="http://www.w3.org/2000/svg" xmlns:xlink="http://www.w3.org/1999/xlink" xmlns:v="http://vecta.io" width="108" height="25" viewBox="0 0 108 25"><style>svg{stroke:#000;stroke-linecap:round;stroke-linejoin:round;fill:#fff;fill-rule:evenodd;font-family:Roboto;font-size:14px;text-anchor:middle}svg text{paint-order:stroke;white-space:pre}svg .Text\.cls{stroke:none}</style><style>svg{stroke:#000;stroke-linecap:round;stroke-linejoin:round;fill:#fff;fill-rule:evenodd;font-family:Roboto;font-size:14px;text-anchor:middle}svg text{paint-order:stroke;white-space:pre}svg .Text\.cls{stroke:none}</style><defs><style>@import url("https://fonts.googleapis.com/css?family=Cousine:400,400i,700,700i");</style></defs><g><g ><g><path d="M 0 5 C 0 2.23001099 2.22998047 0 5 0 L 100.5 0 C 103.27001953 0 105.5 2.23001099 105.5 5 L 105.5 20 C 105.5 22.76998901 103.27001953 25 100.5 25 L 5 25 C 2.22998047 25 0 22.76998901 0 20 Z" stroke="none" fill="#efd001"/></g><g transform="translate(28 8.05999899)"><rect x="0" y="0" width="80" height="8.4" stroke="none" fill="none"/><g class="Text.cls"><rect x="0" y="0" width="80" height="8.39999962" fill="none" stroke="none"/><text font-family="Cousine" fill="#ffffff" fill-opacity="1" font-size="10.879539999999999" font-weight="bold"><tspan x="40" y="7.79024801">JavaScript</tspan></text></g></g><g transform="translate(5.5 4.5)"><path d="M 0 0 L 16.5 0 L 16.5 16.5 L 0 16.5 Z" stroke="none"/></g><g transform="translate(9.83123779 11.93725844)"><path d="M 3.09375 5.55648546 L 3.09375 0.19399766 L 4.53753662 0.19399766 L 4.53753662 5.55648546 C 4.53753662 7.61898546 1.65002441 8.85650377 0 6.38149766 L 1.23748779 5.55648546 C 1.85626221 6.79400377 3.09375 6.38149766 3.09375 5.55648546 Z M 9.28125 2.05025987 C 8.45623779 0.91586046 7.42498779 1.43148546 7.42498779 2.15337877 C 7.42498779 3.28774766 10.828125 3.08150987 10.828125 5.55648546 C 10.72503662 8.44399766 6.703125 8.34087877 5.46563721 6.17525987 L 6.703125 5.45336656 C 7.63128662 6.89712266 9.28125 6.38149766 9.28125 5.55648546 C 9.17816162 4.11275987 5.98126221 4.83462266 5.98126221 2.15337877 C 5.87811279 0.09087877 8.97186279 -1.04349013 10.41564941 1.32836656 L 9.28125 2.05025987" stroke="none" fill="#323232"/></g></g></g></svg>