<svg xmlns="http://www.w3.org/2000/svg" xmlns:xlink="http://www.w3.org/1999/xlink" width="103" height="29" stroke="#000" stroke-linecap="round" stroke-linejoin="round" fill="#fff" fill-rule="evenodd"><g stroke="none"><rect rx="2" width="101.5" height="28" fill="#ffea00"/><path d="M4.5 6.5H20V22H4.5z"/><g fill="#000"><path d="M11.4754 18.706v-5.0375h1.3562v5.0375c0 1.9375-2.7125 3.1-4.2625.775l1.1625-.775c.5813 1.1625 1.7438.775 1.7438 0zm5.8125-3.2937c-.7751-1.0656-1.7438-.5813-1.7438.0969 0 1.0656 3.1969.8719 3.1969 3.1968-.0969 2.7125-3.875 2.6157-5.0375.5813l1.1625-.6781c.8719 1.3562 2.4219.8718 2.4219.0968-.0969-1.3562-3.1-.6781-3.1-3.1968-.0969-1.9375 2.8093-3.0031 4.1656-.775l-1.0656.6781m14.23254375-5.35659687v5.44335938q0 1.22460937-.61523437 1.90136718-.61523438.67675782-1.72851563.67675782-1.00195312 0-1.59960937-.52148438-.59765625-.52148437-.80273438-1.64648437l1.09570313-.18164063q.10546875.69140625.44824218 1.06640625.34277344.375.86425782.375 1.22460937 0 1.22460937-1.64648437v-4.55273438h-1.82226562v-.9140625h2.93554687z"/><use xlink:href="#B"/><path d="M46.93645938 11.62015625L44.33489688 17.96h-1.24804687l-2.53710938-6.33984375h1.18359375l1.5703125 4.125.09960938.31054688.3046875 1.078125.20507812-.68554688.22851563-.69140625 1.6171875-4.13671875h1.17773437z"/><use xlink:href="#B" x="14.40234375"/><path d="M61.15716251 15.79203125q0 1.078125-.78808594 1.68164063-.78808594.60351562-2.24707031.60351562-2.67773438 0-3.11132813-2.09765625l1.08398438-.21679687q.1640625.75585937.6796875 1.09863281.515625.34277344 1.37695312.34277344.93164063 0 1.41503906-.36328125.48339844-.36328125.48339844-1.03125 0-.41015625-.19042969-.66796875-.19042968-.2578125-.50097656-.421875-.31054687-.1640625-.70019531-.26660157-.38964844-.10253906-.78808594-.20214843-.94335937-.24609375-1.34472656-.43945313-.40136719-.19335937-.64160156-.44238281-.24023438-.24902344-.36328125-.57128906-.12304688-.32226563-.12304688-.75585938 0-1.01367187.71191406-1.56152344.71191407-.54785156 2.04199219-.54785156 1.2421875 0 1.8984375.43359375.65625.43359375.9140625 1.46484375l-1.1015625.19335938q-.140625-.65625-.5625-.95214844-.421875-.29589844-1.15429687-.29589844-1.65820313 0-1.65820313 1.24804688 0 .3515625.15527344.57128906.15527344.21972656.421875.36328125.26660156.14355469.62109375.23730469.35449219.09375.75878906.19921875.81445313.20507812 1.171875.34277343.35742188.13769532.63574219.31347657.27832031.17578125.47753906.41601562.19921875.24023438.31347656.5625.11425782.32226563.11425782.76171875zm1.35351562-1.0078125q0-1.58203125.75585938-2.43164062.75585937-.84960938 2.18554687-.84960938 1.06640625 0 1.7578125.51269531.69140625.51269532.85546875 1.37988282l-1.125.08203125q-.09375-.53320313-.46875-.84082032-.375-.30761718-1.06640625-.30761718-.92578125 0-1.35644531.57421875-.43066406.57421875-.43066406 1.85742187 0 1.30078125.43066406 1.90136719.43066406.60058594 1.35058594.60058594.6328125 0 1.04882812-.31054688.41601563-.31054687.515625-.94921875l1.11328125.0703125q-.07617187.5625-.42480469 1.02246094-.34863281.45996094-.92285156.72070312-.57421875.26074219-1.28320312.26074219-1.43554688 0-2.18554688-.84375-.75-.84375-.75-2.44921875zm12.5625-3.18164062v.97851562q-.65625-.11132812-1.2421875-.11132812-.94335938 0-1.5234375.70898437-.58007813.70898438-.58007813 1.8046875V17.96h-1.0546875v-4.10742187q0-.4453125-.07910156-1.04882813-.07910156-.60351562-.22558594-1.18359375h1.00195313q.234375.80859375.28125 1.46484375H71.6806q.29296875-.65625.57421875-.96386719.28125-.30761718.66796875-.46289062.38671875-.15527344.94335938-.15527344.609375 0 1.20703125.09960938zm5.44335937.01757812v5.5078125H82.7431V17.96h-5.75390625v-.83203125H79.46185V12.4521875h-1.86914062v-.83203125h2.92382812zm0-1.23046875h-1.171875v-1.125h1.171875v1.125zm9.22265626 4.37109375q0 3.31640625-2.296875 3.31640625-1.44140625 0-1.93945313-1.078125h-.02929687q.0234375.046875.0234375.97265625v2.47851563h-1.06054688v-7.51757813q0-.99609375-.03515625-1.3125h1.02539063q.00585937.0234375.01757812.17285156.01171875.14941407.02636719.43945313.01464844.29003906.01464844.43066406h.0234375q.29296875-.61523437.74707031-.89355469.45410156-.27832031 1.18652344-.27832031 1.16015625 0 1.72851562.79980469.56835938.79980469.56835938 2.46972656zm-1.08984375 0q0-1.32421875-.35742188-1.88964844-.35742187-.56542968-1.125-.56542968-.88476562 0-1.27734375.64160156-.39257812.64160156-.39257812 1.94238281 0 1.24804688.39257812 1.828125.39257813.58007813 1.265625.58007813.77929688 0 1.13671875-.59179688.35742188-.59179687.35742188-1.9453125zm4.00195312-2.30859375h-.984375v-.83203125h.99609375l.33984375-1.65234375h.703125v1.65234375h2.53125v.83203125h-2.53125V16.2725q0 .46289063.24902344.68554688.24902344.22265625.81738281.22265625.78515625 0 1.74023438-.19921875v.80273437q-.99023438.26953125-1.96289063.26953125-.94921875 0-1.42382812-.40136719-.47460938-.40136718-.47460938-1.26855468V12.4521875z"/></g></g><defs ><path id="B" d="M39.39544376 17.30960938q.15234375 0 .34570312-.04101563v.65625q-.3984375.09375-.81445312.09375-.5859375 0-.85253907-.30761719-.26660156-.30761718-.30175781-.96386718h-.03515625q-.38085937.70898437-.89941406 1.01953125-.51855469.31054687-1.28027344.31054687-.92578125 0-1.39453125-.50390625-.46875-.50390625-.46875-1.3828125 0-2.04492187 2.66015625-2.07421875l1.3828125-.0234375v-.34570312q0-.76757813-.31054687-1.10449219-.31054688-.33691406-.99023438-.33691406-.69140625 0-.99609375.24609375-.3046875.24609375-.36328125.76171875l-1.1015625-.09960938q.26953125-1.7109375 2.47851563-1.7109375 1.171875 0 1.76074218.54785156.58886719.54785157.58886719 1.58496094V16.36625q0 .46875.12304688.70605469.12304687.23730469.46875.23730469zm-3.56835938-.03515625q.5625 0 .99609375-.26953125.43359375-.26953125.67382813-.72070313.24023437-.45117187.24023437-.93164062v-.52148438l-1.11328125.0234375q-.69140625.01171875-1.0546875.15234375-.36328125.140625-.56542969.43066406-.20214843.29003907-.20214843.77050782 0 .48046875.26074218.7734375.26074219.29296875.76464844.29296875z"/></defs></svg>