<!-- Generated by IcoMoon.io -->
<svg version="1.1" xmlns="http://www.w3.org/2000/svg" width="32" height="32" viewBox="0 0 32 32">
<title>logo-javascript</title>
<path fill="#f0db4f" d="M0 0h32v32h-32z"></path>
<path fill="#323330" d="M29.381 24.368c-0.234-1.46-1.186-2.686-4.006-3.83-0.979-0.45-2.071-0.773-2.397-1.515-0.116-0.432-0.131-0.675-0.058-0.937 0.21-0.849 1.223-1.113 2.026-0.87 0.517 0.173 1.007 0.572 1.302 1.208 1.381-0.894 1.378-0.888 2.342-1.503-0.353-0.548-0.541-0.8-0.773-1.034-0.83-0.928-1.962-1.405-3.772-1.369-0.313 0.040-0.63 0.082-0.943 0.122-0.903 0.228-1.764 0.703-2.269 1.338-1.515 1.719-1.083 4.727 0.76 5.965 1.816 1.363 4.484 1.673 4.824 2.948 0.332 1.56-1.147 2.065-2.616 1.886-1.083-0.225-1.685-0.776-2.336-1.776-1.198 0.694-1.198 0.694-2.43 1.402 0.292 0.639 0.599 0.928 1.089 1.481 2.318 2.351 8.119 2.236 9.159-1.323 0.043-0.122 0.322-0.937 0.097-2.193zM17.396 14.707h-2.993c0 2.586-0.012 5.153-0.012 7.738 0 1.646 0.085 3.154-0.182 3.617-0.438 0.909-1.573 0.797-2.090 0.62-0.526-0.259-0.794-0.627-1.104-1.147-0.085-0.149-0.149-0.265-0.17-0.274-0.812 0.496-1.621 0.995-2.433 1.491 0.405 0.83 1.001 1.551 1.764 2.020 1.141 0.684 2.674 0.894 4.277 0.526 1.043-0.304 1.944-0.934 2.415-1.892 0.681-1.256 0.535-2.777 0.529-4.459 0.015-2.744 0-5.487 0-8.24z"></path>
</svg>
