<svg xmlns="http://www.w3.org/2000/svg" width="107" height="26" stroke="#000" stroke-linecap="round" stroke-linejoin="round" fill="#fff" fill-rule="evenodd" font-family="Roboto" font-size="14" text-anchor="middle"><style><![CDATA[svg text{white-space:pre}]]></style><defs><style>@import url("https://fonts.googleapis.com/css?family=Cousine:400,400i,700,700i"); </style></defs><rect height="25" rx="5" stroke="none" width="105.5" fill="#efd001"/><text font-family="Cousine" fill="#fff" text-anchor="start" font-size="12" font-weight="bold" stroke="none"><tspan x="30" y="16.46">JavaScript</tspan></text><g stroke="none"><path d="M5.5 4.5H22V21H5.5z"/><path d="M12.925 17.49375v-5.3625h1.44375v5.3625c0 2.0625-2.8875 3.3-4.5375.825l1.2375-.825c.61875 1.2375 1.85625.825 1.85625 0zm6.1875-3.506245c-.825-1.134375-1.85625-.61875-1.85625.103125 0 1.134375 3.403125.928125 3.403125 3.403125-.103125 2.8875-4.125 2.784375-5.3625.61875l1.2375-.721875c.928125 1.44375 2.578125.928125 2.578125.103125-.103125-1.44375-3.3-.721875-3.3-3.403125-.103125-2.0625 2.990625-3.196875 4.434375-.825l-1.134375.721875" fill="#323232"/></g></svg>