<svg xmlns="http://www.w3.org/2000/svg" width="110" height="29" stroke="none" stroke-linecap="round" stroke-linejoin="round" fill="#fff" fill-rule="evenodd"><rect rx="4" fill="#ffea00" height="28" width="109"/><path d="M6 5h18v18H6z"/><path d="M14.11 19.17v-5.85h1.57v5.85c0 2.25-3.15 3.6-4.95.9l1.35-.9c.68 1.35 2.03.9 2.03 0zm6.75-3.82c-.91-1.24-2.03-.68-2.03.11 0 1.24 3.71 1.01 3.71 3.71-.11 3.15-4.5 3.04-5.85.68l1.35-.79c1.02 1.57 2.82 1.01 2.82.11-.12-1.57-3.6-.79-3.6-3.71-.12-2.25 3.26-3.49 4.83-.9l-1.23.79m13.36 2.41q-.78 0-1.44-.29-.65-.29-1.07-.83l.99-1.19q.63.85 1.43.85 1.09 0 1.09-1.28v-3.66h-2.71V9.93h4.48v4.99q0 1.42-.7 2.13-.71.71-2.07.71zm10.28-.13l-.68-1.65h-3.57l-.68 1.65h-1.83l3.43-7.7h1.76l3.44 7.7H44.5zm-3.68-3h2.44l-1.22-2.95-1.22 2.95zm11.98-4.7h1.77l-3.33 7.7h-1.76l-3.32-7.7h1.92l2.35 5.5 2.37-5.5zm8.33 7.7l-.68-1.65h-3.57l-.68 1.65h-1.83l3.43-7.7h1.76l3.44 7.7h-1.87zm-3.68-3h2.44l-1.22-2.95-1.22 2.95zm8.88 3.13q-.91 0-1.76-.24-.85-.25-1.37-.65l.6-1.34q.5.36 1.18.58.68.22 1.37.22.75 0 1.12-.22.36-.23.36-.6 0-.28-.21-.46-.22-.18-.55-.29-.34-.11-.91-.24-.88-.21-1.44-.42-.56-.21-.96-.67-.41-.46-.41-1.23 0-.67.37-1.22.36-.54 1.09-.86.73-.32 1.79-.32.74 0 1.44.18.7.17 1.23.5l-.55 1.36q-1.06-.61-2.13-.61-.75 0-1.11.24-.35.24-.35.64 0 .4.41.59.41.19 1.26.38.88.21 1.44.42.56.21.96.66.4.45.4 1.22 0 .66-.37 1.2-.37.55-1.1.87-.74.31-1.8.31zm8.18 0q-1.18 0-2.13-.51-.95-.51-1.5-1.42-.54-.9-.54-2.05 0-1.14.54-2.05.55-.91 1.5-1.42.95-.51 2.14-.51 1 0 1.81.35.81.35 1.36 1.01l-1.15 1.06q-.78-.9-1.93-.9-.72 0-1.28.31-.56.32-.87.88-.32.56-.32 1.27 0 .72.32 1.28.31.56.87.87.56.32 1.28.32 1.15 0 1.93-.92l1.15 1.06q-.55.67-1.37 1.02-.81.35-1.81.35zm11.2-.13H83.8l-1.49-2.14h-.09-1.55v2.14h-1.78v-7.7h3.33q1.03 0 1.78.34.75.34 1.16.97.41.63.41 1.48 0 .86-.42 1.48-.41.62-1.17.96l1.73 2.47zm-1.95-4.91q0-.65-.42-.99-.41-.35-1.22-.35h-1.45v2.69h1.45q.81 0 1.22-.36.42-.35.42-.99zm3.21 4.91v-7.7h1.78v7.7h-1.78zm6.94-7.7q1.03 0 1.78.34.75.34 1.16.97.41.63.41 1.48 0 .85-.41 1.48-.41.64-1.16.97-.75.34-1.78.34h-1.55v2.12h-1.78v-7.7h3.33zm-.1 4.13q.81 0 1.22-.35.42-.35.42-.99 0-.65-.42-.99-.41-.35-1.22-.35h-1.45v2.68h1.45zm6.42 3.57v-6.25h-2.46V9.93h6.71v1.45h-2.46v6.25h-1.79z" fill="#000"/></svg>