<svg version="1.1" xmlns="http://www.w3.org/2000/svg" width="32" height="32" viewBox="0 0 32 32">
<title>jwt-3</title>
<path fill="#fff" d="M18.416 8.608l-0.032-8.608h-4.8l0.032 8.608 2.4 3.296zM13.616 23.36v8.64h4.8v-8.64l-2.4-3.296z"></path>
<path fill="#00f2e6" d="M18.416 23.36l5.056 6.976 3.872-2.816-5.056-6.976-3.872-1.248zM13.616 8.608l-5.088-6.976-3.872 2.816 5.056 6.976 3.904 1.248z"></path>
<path fill="#00b9f1" d="M9.712 11.424l-8.192-2.656-1.472 4.544 8.192 2.688 3.872-1.28zM19.888 17.248l2.4 3.296 8.192 2.656 1.472-4.544-8.192-2.656z"></path>
<path fill="#d63aff" d="M23.76 16l8.192-2.688-1.472-4.544-8.192 2.656-2.4 3.296zM8.24 16l-8.192 2.656 1.472 4.544 8.192-2.656 2.4-3.296z"></path>
<path fill="#fb015b" d="M9.712 20.544l-5.056 6.976 3.872 2.816 5.088-6.976v-4.064zM22.288 11.424l5.056-6.976-3.872-2.816-5.056 6.976v4.064z"></path>
</svg>
