<!-- Generated by IcoMoon.io -->
<svg version="1.1" xmlns="http://www.w3.org/2000/svg" width="32" height="32" viewBox="0 0 32 32">
<title>lazy-load</title>
<path fill="#2d50a7" d="M15.273 23.273c-0.803 0-1.455 0.651-1.455 1.455v5.818c0 0.803 0.651 1.455 1.455 1.455s1.455-0.651 1.455-1.455v-5.818c-0-0.803-0.651-1.455-1.455-1.455z"></path>
<path fill="#73a1fb" d="M15.273 0c-0.803 0-1.455 0.651-1.455 1.455v5.818c0 0.803 0.651 1.455 1.455 1.455s1.455-0.651 1.455-1.455v-5.818c-0-0.803-0.651-1.455-1.455-1.455z"></path>
<path fill="#355ec9" d="M22.472 21.143c-0.568-0.568-1.489-0.568-2.057 0s-0.568 1.489 0 2.057l4.114 4.114c0.284 0.284 0.656 0.426 1.028 0.426s0.745-0.142 1.029-0.426c0.568-0.568 0.568-1.489 0-2.057l-4.114-4.114z"></path>
<path fill="#c4d9fd" d="M5.091 14.545h-2.909c-0.803 0-1.455 0.651-1.455 1.455s0.651 1.455 1.455 1.455h2.909c0.803 0 1.455-0.651 1.455-1.455s-0.651-1.455-1.454-1.455z"></path>
<path fill="#c4d9fd" d="M6.016 4.686c-0.568-0.568-1.489-0.568-2.057 0s-0.568 1.489 0 2.057l4.114 4.114c0.284 0.284 0.656 0.426 1.028 0.426s0.745-0.142 1.028-0.426c0.568-0.568 0.568-1.489 0-2.057l-4.114-4.114z"></path>
<path fill="#3d6deb" d="M29.818 14.545h-5.818c-0.803 0-1.455 0.651-1.455 1.455s0.651 1.455 1.455 1.455h5.818c0.803 0 1.455-0.651 1.455-1.455s-0.651-1.455-1.455-1.455z"></path>
<path fill="#5286fa" d="M24.529 4.686l-4.114 4.114c-0.568 0.568-0.568 1.489 0 2.057 0.284 0.284 0.656 0.426 1.028 0.426s0.745-0.142 1.029-0.426l4.114-4.114c0.568-0.568 0.568-1.489 0-2.057s-1.489-0.568-2.057 0z"></path>
</svg>
