<svg version="1.1" xmlns="http://www.w3.org/2000/svg" width="45" height="45" viewBox="0 0 32 32">
<title>mongodb-icon-1</title>
<path fill="#599636" d="M14.727 4.16l0.694 1.303c0.156 0.24 0.325 0.453 0.524 0.651 0.572 0.565 1.105 1.165 1.597 1.799l0.031 0.041c1.175 1.543 1.968 3.256 2.534 5.109 0.339 1.132 0.524 2.293 0.538 3.467 0.057 3.511-1.147 6.525-3.573 9.030-0.386 0.389-0.802 0.746-1.246 1.069l-0.029 0.020c-0.24 0-0.354-0.184-0.453-0.354-0.171-0.294-0.296-0.637-0.352-1.003l-0.002-0.016c-0.085-0.425-0.141-0.849-0.114-1.288v-0.198c-0.020-0.042-0.231-19.532-0.147-19.631z"></path>
<path fill="#6cac48" d="M14.727 4.117c-0.028-0.057-0.057-0.014-0.085 0.014 0.014 0.284-0.085 0.538-0.24 0.78-0.171 0.24-0.396 0.425-0.623 0.623-1.259 1.090-2.249 2.406-3.043 3.878-1.056 1.981-1.6 4.105-1.754 6.341-0.071 0.806 0.255 3.652 0.509 4.473 0.694 2.18 1.939 4.006 3.553 5.591 0.396 0.382 0.82 0.736 1.259 1.076 0.127 0 0.141-0.114 0.171-0.198 0.050-0.153 0.094-0.339 0.125-0.53l0.003-0.022 0.284-2.123z"></path>
<path fill="#c2bfbf" d="M15.42 27.513c0.028-0.325 0.184-0.594 0.354-0.863-0.171-0.071-0.297-0.211-0.396-0.368-0.078-0.133-0.149-0.287-0.206-0.448l-0.006-0.018c-0.198-0.594-0.24-1.218-0.297-1.825v-0.368c-0.071 0.057-0.085 0.538-0.085 0.609-0.047 0.71-0.137 1.364-0.271 2.003l0.016-0.092c-0.042 0.255-0.071 0.509-0.227 0.736 0 0.028 0 0.057 0.014 0.099 0.255 0.75 0.325 1.514 0.368 2.293v0.284c0 0.339-0.014 0.268 0.268 0.382 0.114 0.042 0.24 0.057 0.354 0.141 0.085 0 0.099-0.071 0.099-0.128l-0.042-0.467v-1.303c-0.014-0.227 0.028-0.453 0.057-0.666z"></path>
</svg>
