<!-- Generated by IcoMoon.io -->
<svg version="1.1" xmlns="http://www.w3.org/2000/svg" width="112" height="32" viewBox="0 0 112 32">
<title>mongodb-seeklogocom</title>
<path fill="#8e714e" d="M104.485 13.252c-0.101 0.020-0.202 0.243-0.202 0.364-0.020 0.809-0.040 2.953-0.040 4.409 0 0.041 0.061 0.121 0.121 0.121 0.303 0.020 1.032 0.041 1.659 0.041 0.87 0 1.375-0.121 1.659-0.243 0.728-0.364 1.072-1.153 1.072-2.023 0-1.962-1.375-2.71-3.418-2.71-0.142-0.020-0.546-0.020-0.85 0.040v0 0zM109.704 22.293c0-2.002-1.477-3.115-4.146-3.115-0.121 0-0.971-0.020-1.173 0.020-0.061 0.020-0.142 0.061-0.142 0.122 0 1.436-0.020 3.722 0.040 4.611 0.040 0.384 0.324 0.93 0.667 1.092 0.364 0.202 1.193 0.243 1.76 0.243 1.598 0 2.994-0.89 2.994-2.973v0 0zM100.359 12.14c0.202 0 0.809 0.061 2.366 0.061 1.476 0 2.65-0.040 4.086-0.040 1.76 0 4.187 0.627 4.187 3.256 0 1.295-0.91 2.326-2.104 2.832-0.061 0.020-0.061 0.061 0 0.081 1.699 0.425 3.196 1.477 3.196 3.459 0 1.942-1.214 3.175-2.973 3.944-1.072 0.465-2.407 0.627-3.762 0.627-1.032 0-3.802-0.121-5.34-0.081-0.162-0.061 0.142-0.789 0.283-0.91 0.364-0.020 0.647-0.041 1.032-0.162 0.546-0.142 0.607-0.303 0.688-1.133 0.040-0.708 0.040-3.216 0.040-4.996 0-2.447 0.020-4.106 0-4.915-0.020-0.627-0.243-0.829-0.688-0.951-0.344-0.061-0.91-0.142-1.375-0.202-0.101-0.101 0.243-0.789 0.364-0.87v0 0zM88.689 24.72c0.486 0.384 1.436 0.546 2.286 0.546 1.092 0 2.184-0.202 3.236-1.153 1.072-0.971 1.82-2.468 1.82-4.854 0-2.286-0.87-4.146-2.65-5.239-1.011-0.627-2.306-0.89-3.803-0.89-0.445 0-0.87 0.020-1.133 0.142-0.061 0.040-0.202 0.223-0.202 0.324-0.040 0.405-0.040 3.519-0.040 5.34 0 1.881 0 4.51 0.040 4.814 0 0.304 0.142 0.769 0.445 0.971v0 0zM84.097 12.14c0.384 0 1.861 0.061 2.569 0.061 1.274 0 2.184-0.061 4.591-0.061 2.023 0 3.722 0.546 4.935 1.578 1.476 1.274 2.245 3.034 2.245 5.178 0 3.054-1.396 4.814-2.791 5.825-1.395 1.032-3.216 1.638-5.805 1.638-1.375 0-3.742-0.041-5.704-0.061h-0.020c-0.101-0.182 0.162-0.89 0.324-0.91 0.526-0.061 0.667-0.081 0.93-0.182 0.425-0.162 0.506-0.384 0.566-1.133 0.061-1.396 0.040-3.074 0.040-4.976 0-1.355 0.020-4.005-0.020-4.854-0.061-0.708-0.364-0.89-0.971-1.011-0.303-0.061-0.708-0.142-1.274-0.202-0.081-0.142 0.283-0.769 0.384-0.89v0 0z"></path>
<path fill="#442d22" d="M59.624 25.509c-0.506-0.061-0.87-0.142-1.315-0.344-0.061-0.041-0.162-0.243-0.162-0.324-0.041-0.708-0.041-2.731-0.041-4.086 0-1.092-0.182-2.043-0.647-2.71-0.546-0.769-1.335-1.214-2.346-1.214-0.89 0-2.083 0.607-3.074 1.456-0.020 0.020-0.182 0.162-0.162-0.061 0-0.223 0.041-0.667 0.061-0.971 0.020-0.283-0.142-0.425-0.142-0.425-0.647 0.324-2.468 0.748-3.135 0.809-0.485 0.101-0.607 0.566-0.101 0.728h0.020c0.546 0.162 0.91 0.344 1.193 0.526 0.202 0.162 0.182 0.384 0.182 0.566 0.020 1.517 0.020 3.843-0.040 5.117-0.020 0.506-0.162 0.688-0.526 0.768l0.040-0.020c-0.283 0.061-0.506 0.121-0.849 0.162-0.121 0.121-0.121 0.769 0 0.91 0.223 0 1.396-0.061 2.367-0.061 1.335 0 2.023 0.061 2.366 0.061 0.142-0.162 0.182-0.769 0.101-0.91-0.384-0.020-0.667-0.061-0.93-0.142-0.364-0.081-0.465-0.263-0.486-0.688-0.040-1.072-0.040-3.337-0.040-4.874 0-0.425 0.121-0.627 0.243-0.748 0.465-0.404 1.214-0.688 1.881-0.688 0.647 0 1.072 0.202 1.396 0.465 0.445 0.364 0.586 0.89 0.647 1.274 0.101 0.87 0.061 2.589 0.061 4.086 0 0.809-0.061 1.011-0.364 1.112-0.142 0.061-0.506 0.142-0.931 0.182-0.142 0.142-0.101 0.769 0 0.91 0.587 0 1.274-0.061 2.286-0.061 1.254 0 2.063 0.061 2.387 0.061 0.101-0.121 0.142-0.708 0.061-0.87h0zM65.226 17.783c-1.072 0-1.739 0.829-1.739 2.124 0 1.315 0.586 2.832 2.245 2.832 0.283 0 0.809-0.121 1.052-0.404 0.384-0.364 0.647-1.092 0.647-1.861 0-1.679-0.829-2.69-2.205-2.69v0 0zM65.085 26.723c-0.404 0-0.688 0.121-0.87 0.223-0.85 0.546-1.234 1.072-1.234 1.699 0 0.586 0.222 1.052 0.708 1.456 0.586 0.506 1.395 0.748 2.427 0.748 2.063 0 2.973-1.113 2.973-2.205 0-0.769-0.384-1.274-1.173-1.557-0.566-0.243-1.598-0.364-2.832-0.364v0 0zM65.226 31.982c-1.234 0-2.124-0.263-2.892-0.849-0.748-0.566-1.072-1.416-1.072-2.002 0-0.162 0.041-0.607 0.405-1.011 0.222-0.243 0.708-0.708 1.861-1.497 0.040-0.020 0.061-0.041 0.061-0.081s-0.041-0.081-0.081-0.101c-0.951-0.364-1.234-0.951-1.315-1.274v-0.041c-0.020-0.121-0.061-0.243 0.121-0.364 0.142-0.101 0.344-0.222 0.566-0.364 0.344-0.202 0.708-0.425 0.931-0.607 0.041-0.041 0.041-0.081 0.041-0.121s-0.041-0.081-0.081-0.101c-1.416-0.465-2.124-1.517-2.124-3.095 0-1.032 0.465-1.962 1.294-2.549 0.566-0.445 1.982-0.991 2.913-0.991h0.061c0.951 0.020 1.476 0.222 2.225 0.485 0.405 0.142 0.789 0.202 1.315 0.202 0.789 0 1.133-0.243 1.416-0.526 0.020 0.040 0.061 0.142 0.081 0.404s-0.061 0.647-0.263 0.93c-0.162 0.222-0.526 0.384-0.89 0.384h-0.101c-0.364-0.041-0.526-0.081-0.526-0.081l-0.081 0.041c-0.020 0.041 0 0.081 0.020 0.142l0.020 0.041c0.040 0.182 0.121 0.728 0.121 0.87 0 1.659-0.667 2.386-1.375 2.933-0.688 0.506-1.476 0.829-2.366 0.91-0.020 0-0.101 0-0.283 0.020-0.101 0-0.243 0.020-0.263 0.020h-0.020c-0.162 0.040-0.566 0.243-0.566 0.586 0 0.303 0.182 0.667 1.052 0.728 0.182 0.020 0.364 0.020 0.566 0.041 1.153 0.081 2.589 0.182 3.256 0.404 0.93 0.344 1.517 1.173 1.517 2.164 0 1.497-1.072 2.892-2.852 3.762-0.87 0.384-1.74 0.587-2.69 0.587v0 0zM76.755 17.884c-0.425 0-0.809 0.101-1.092 0.303-0.789 0.485-1.193 1.456-1.193 2.872 0 2.65 1.335 4.511 3.236 4.511 0.566 0 1.011-0.162 1.396-0.485 0.586-0.486 0.89-1.456 0.89-2.812 0-2.629-1.315-4.389-3.236-4.389v0 0zM77.119 26.541c-3.439 0-4.672-2.528-4.672-4.895 0-1.659 0.667-2.933 2.002-3.843 0.951-0.586 2.083-0.91 3.095-0.91 2.629 0 4.47 1.881 4.47 4.591 0 1.841-0.728 3.297-2.124 4.187-0.667 0.445-1.82 0.87-2.771 0.87h0zM41.076 17.884c-0.425 0-0.809 0.101-1.092 0.303-0.789 0.485-1.193 1.456-1.193 2.872 0 2.65 1.335 4.511 3.236 4.511 0.566 0 1.011-0.162 1.396-0.485 0.586-0.486 0.89-1.456 0.89-2.812 0-2.629-1.295-4.389-3.236-4.389v0 0zM41.44 26.541c-3.438 0-4.672-2.528-4.672-4.895 0-1.659 0.667-2.933 2.002-3.843 0.951-0.586 2.083-0.91 3.095-0.91 2.63 0 4.47 1.881 4.47 4.591 0 1.841-0.728 3.297-2.124 4.187-0.647 0.445-1.8 0.87-2.771 0.87v0 0zM18.322 26.338c-0.041-0.061-0.081-0.243-0.061-0.465 0-0.162 0.041-0.263 0.061-0.303 0.425-0.061 0.647-0.122 0.89-0.182 0.405-0.101 0.566-0.324 0.587-0.829 0.061-1.214 0.061-3.519 0.041-5.117v-0.041c0-0.182 0-0.405-0.223-0.566-0.324-0.202-0.708-0.384-1.214-0.526-0.182-0.061-0.303-0.162-0.283-0.283 0-0.121 0.121-0.263 0.384-0.303 0.667-0.061 2.407-0.485 3.094-0.789 0.041 0.040 0.101 0.162 0.101 0.324l-0.020 0.222c-0.020 0.223-0.041 0.486-0.041 0.748 0 0.081 0.081 0.142 0.162 0.142 0.041 0 0.081-0.020 0.122-0.041 1.294-1.011 2.468-1.375 3.074-1.375 0.991 0 1.76 0.465 2.346 1.436 0.040 0.061 0.081 0.081 0.142 0.081 0.041 0 0.101-0.020 0.121-0.061 1.193-0.91 2.387-1.456 3.175-1.456 1.881 0 2.994 1.396 2.994 3.762 0 0.667 0 1.537-0.020 2.326 0 0.708-0.020 1.355-0.020 1.82 0 0.101 0.142 0.425 0.364 0.485 0.283 0.142 0.667 0.202 1.173 0.283h0.020c0.041 0.142-0.041 0.667-0.121 0.769-0.121 0-0.304 0-0.506-0.020-0.384-0.020-0.931-0.041-1.537-0.041-1.254 0-1.901 0.020-2.528 0.061-0.040-0.162-0.061-0.647 0-0.769 0.364-0.061 0.546-0.121 0.769-0.182 0.405-0.121 0.506-0.303 0.526-0.829 0-0.384 0.081-3.661-0.041-4.45-0.121-0.809-0.728-1.76-2.063-1.76-0.506 0-1.294 0.202-2.063 0.789-0.040 0.041-0.081 0.142-0.081 0.202v0.020c0.081 0.425 0.081 0.91 0.081 1.659v1.315c0 0.91-0.020 1.76 0 2.407 0 0.445 0.263 0.546 0.486 0.627 0.121 0.020 0.202 0.040 0.303 0.061 0.182 0.041 0.364 0.081 0.647 0.142 0.041 0.081 0.041 0.344-0.020 0.566-0.020 0.121-0.061 0.182-0.081 0.202-0.688-0.020-1.396-0.041-2.427-0.041-0.303 0-0.829 0.020-1.274 0.020-0.364 0-0.708 0.020-0.91 0.020-0.020-0.041-0.061-0.182-0.061-0.405 0-0.182 0.041-0.324 0.081-0.364 0.101-0.020 0.182-0.040 0.283-0.040 0.243-0.041 0.445-0.081 0.647-0.122 0.344-0.101 0.465-0.283 0.485-0.728 0.061-1.011 0.121-3.904-0.020-4.632-0.243-1.173-0.91-1.76-1.982-1.76-0.627 0-1.416 0.303-2.063 0.789-0.101 0.081-0.182 0.283-0.182 0.465v1.193c0 1.456 0 3.277 0.020 4.065 0.020 0.243 0.101 0.526 0.566 0.627 0.101 0.020 0.263 0.061 0.465 0.081l0.364 0.061c0.041 0.122 0.020 0.607-0.061 0.769-0.202 0-0.445-0.020-0.728-0.020-0.425-0.020-0.971-0.041-1.578-0.041-0.708 0-1.214 0.020-1.618 0.041-0.283-0.041-0.506-0.041-0.748-0.041v0 0z"></path>
<path fill="#fff" d="M7.683 31.193l-0.829-0.283c0 0 0.101-4.227-1.416-4.531-1.011-1.173 0.162-49.756 3.802-0.162 0 0-1.254 0.627-1.476 1.699-0.243 1.052-0.081 3.277-0.081 3.277v0 0z"></path>
<path fill="#a6a385" d="M7.683 31.193l-0.829-0.283c0 0 0.101-4.227-1.416-4.531-1.011-1.173 0.162-49.756 3.802-0.162 0 0-1.254 0.627-1.476 1.699-0.243 1.052-0.081 3.277-0.081 3.277v0 0z"></path>
<path fill="#fff" d="M8.128 27.107c0 0 7.261-4.773 5.562-14.704-1.638-7.221-5.502-9.587-5.926-10.497-0.465-0.647-0.91-1.78-0.91-1.78l0.304 20.084c0 0.020-0.627 6.149 0.971 6.897z"></path>
<path fill="#499d4a" d="M8.128 27.107c0 0 7.261-4.773 5.562-14.704-1.638-7.221-5.502-9.587-5.926-10.497-0.465-0.647-0.91-1.78-0.91-1.78l0.304 20.084c0 0.020-0.627 6.149 0.971 6.897z"></path>
<path fill="#fff" d="M6.429 27.37c0 0-6.816-4.652-6.412-12.844 0.384-8.192 5.198-12.217 6.128-12.945 0.607-0.647 0.627-0.89 0.668-1.537 0.425 0.91 0.344 13.612 0.404 15.109 0.182 5.764-0.324 11.124-0.789 12.217v0 0z"></path>
<path fill="#58aa50" d="M6.429 27.37c0 0-6.816-4.652-6.412-12.844 0.384-8.192 5.198-12.217 6.128-12.945 0.607-0.647 0.627-0.89 0.668-1.537 0.425 0.91 0.344 13.612 0.404 15.109 0.182 5.764-0.324 11.124-0.789 12.217v0 0z"></path>
</svg>
