<svg xmlns="http://www.w3.org/2000/svg" width="79" height="26" stroke="#000" stroke-linecap="round" stroke-linejoin="round" fill="#fff" fill-rule="evenodd" font-family="Roboto" font-size="14" text-anchor="middle"><style><![CDATA[svg text{white-space:pre}]]></style><defs><style>@import url("https://fonts.googleapis.com/css?family=Cousine:400,400i,700,700i"); </style></defs><rect fill="#000" height="25" rx="5" stroke="none" width="77.5"/><text font-family="Cousine" fill="#fff" text-anchor="start" font-size="12" font-weight="bold" stroke="none"><tspan x="30" y="16.46">NextJs</tspan></text><path d="M12.7119 4.0677l-.2642.0238c-2.4763.2233-4.7958 1.5594-6.2649 3.613-.818 1.1419-1.3412 2.4371-1.5388 3.809-.0699.479-.0785.6203-.0785 1.2697s.0086.7907.0785 1.2697c.4737 3.2738 2.8034 6.0245 5.963 7.0437.5659.1823 1.1624.3067 1.8407.3817.2642.0289 1.4059.0289 1.6702 0 1.1708-.1295 2.1626-.4193 3.1409-.9186.15-.0767.1789-.0972.1584-.1142-.0136-.0102-.6527-.8674-1.4196-1.9036l-1.3941-1.8833-1.7469-2.5853-1.7586-2.5836c-.0068-.0017-.0137 1.1469-.0171 2.5496l-.0376 2.6125c-.0442.0835-.0783.1177-.15.1551-.0544.0274-.1021.0325-.3596.0325h-.2947l-.0785-.0495c-.0511-.0323-.0885-.075-.1142-.1244l-.0357-.0767.0034-3.417.0051-3.4188.0529-.0664c.0272-.0358.0851-.0818.1261-.104.0699-.0341.0971-.0375.3919-.0375.3478 0 .4057.0137.496.1125.0256.0273.9714 1.452 2.103 3.1682l3.4393 5.2099 1.3804 2.0911.0699-.0459c.6185-.4023 1.2731-.9749 1.7911-1.5714 1.1027-1.2663 1.8133-2.8103 2.0519-4.4566.0699-.479.0784-.6203.0784-1.2697s-.0085-.7907-.0784-1.2697c-.4738-3.2738-2.8035-6.0245-5.9631-7.0437-.5574-.1806-1.1504-.305-1.8152-.38-.1635-.017-1.2901-.0358-1.4314-.0221zm3.5686 5.2729c.0819.0409.1483.1193.1722.2011.0136.0443.017.9919.0136 3.1274l-.0051 3.0642-.5403-.8283-.5419-.8283v-2.2274l.017-2.2889c.0272-.0954.0869-.1704.1688-.2146.0699-.0359.0953-.0393.3629-.0393.2522 0 .2966.0034.3528.0341zm1.643 10.8238c-.0597.0375-.0785.0631-.0257.0341.0375-.0222.099-.0682.0888-.0699s-.0341.017-.0631.0358zm-.1176.0767c-.0308.0239-.0308.0255.0068.0068.0205-.0102.0375-.0222.0375-.0256 0-.0136-.0086-.0102-.0443.0188zm-.0853.0511c-.0306.0238-.0306.0256.0068.0068.0205-.0102.0375-.0222.0375-.0256 0-.0136-.0084-.0102-.0443.0188zm-.0852.0511c-.0307.024-.0307.0256.0069.0068.0205-.0103.0375-.0221.0375-.0255 0-.0136-.0086-.0102-.0444.0187zm-.1294.0682c-.0649.0341-.0615.0477.0034.0153.0288-.0153.0511-.0307.0511-.0341 0-.0118-.0018-.0102-.0545.0188z" stroke="none" fill-rule="nonzero"/></svg>