<svg version="1.1" xmlns="http://www.w3.org/2000/svg" width="66" height="32" viewBox="0 0 66 32">
<title>next.js</title>
<path d="M15.51 6.468h12.347v0.984h-11.214v7.402h10.546v0.984h-10.546v8.126h11.343v0.984h-12.475v-18.479zM28.962 6.468h1.312l5.813 8.126 5.942-8.126 8.082-10.322-13.277 19.303 6.842 9.498h-1.363l-6.224-8.644-6.25 8.644h-1.338l6.893-9.498-6.43-8.981zM44.164 7.452v-0.984h14.069v0.984h-6.482v17.495h-1.132v-17.495h-6.455zM0.064 6.468h1.415l19.508 29.255-8.062-10.777-11.678-17.081-0.051 17.081h-1.132v-18.479zM58.12 23.666c-0.232 0-0.405-0.18-0.405-0.411s0.173-0.412 0.405-0.412c0.234 0 0.405 0.18 0.405 0.412s-0.171 0.411-0.405 0.411zM59.232 22.584h0.606c0.008 0.329 0.248 0.55 0.6 0.55 0.394 0 0.617-0.237 0.617-0.682v-2.817h0.617v2.82c0 0.801-0.462 1.263-1.228 1.263-0.718 0-1.211-0.448-1.211-1.133zM62.477 22.548h0.611c0.052 0.378 0.421 0.618 0.953 0.618 0.495 0 0.859-0.257 0.859-0.61 0-0.304-0.231-0.486-0.757-0.61l-0.512-0.124c-0.718-0.168-1.046-0.517-1.046-1.102 0-0.71 0.578-1.183 1.445-1.183 0.807 0 1.396 0.473 1.432 1.144h-0.6c-0.058-0.367-0.377-0.597-0.84-0.597-0.488 0-0.812 0.235-0.812 0.594 0 0.285 0.209 0.448 0.727 0.569l0.437 0.108c0.815 0.191 1.151 0.522 1.151 1.121 0 0.762-0.59 1.241-1.531 1.241-0.881 0-1.473-0.456-1.517-1.169z"></path>
</svg>
