<svg xmlns="http://www.w3.org/2000/svg" width="78" height="26" stroke="#000" stroke-linecap="round" stroke-linejoin="round" fill="#fff" fill-rule="evenodd" font-family="Roboto" font-size="14" text-anchor="middle"><style><![CDATA[svg text{white-space:pre}]]></style><defs><style>@import url("https://fonts.googleapis.com/css?family=Cousine:400,400i,700,700i"); </style></defs><rect height="25" rx="5" stroke="none" width="76.5" fill="#8cc84b"/><text font-family="Cousine" fill="#fff" text-anchor="start" font-size="12" font-weight="bold" stroke="none"><tspan x="30" y="16.46">NodeJs</tspan></text><path d="M12.312478 4.676265c.414132-.234502.942151-.235537 1.34593 0l6.182997 3.485442c.386696.21742.645529.648635.641905 1.094345v6.988484c.002589.464346-.28161.90488-.68953 1.118158l-6.149866 3.469394c-.428369.236728-.951495.22226-1.36612-.03779l-1.845477-1.066391c-.125793-.075061-.267116-.134593-.356154-.256244.078685-.105604.218455-.119063.332341-.165653.256762-.081791.491782-.207066.727838-.339589.059531-.041413.132522-.025883.189466.011389l1.573703.910056c.112333.064708.226219-.020707.322505-.075061l6.038568-3.407792c.074544-.036237.115957-.114922.109745-.196713V9.287112c.008283-.09318-.045037-.178077-.129416-.215867l-6.129159-3.454381c-.07237-.050059-.168138-.050266-.240715-.000518L6.740327 9.077975c-.082827.03779-.13977.121651-.129417.214831v6.921188c-.007247.081791.036237.158923.111298.194125l1.636859.924032c.307493.165653.684871.258833 1.023424.137182.303404-.114353.503818-.405151.502653-.729391l.001553-6.884951c-.007247-.10198.089039-.18636.187913-.176006h.786852c.103533-.002589.184806.107156.170829.209654l-.001553 6.928435c.000518.614987-.252103 1.283811-.821017 1.58561-.700919.362366-1.567491.286269-2.260128-.06212l-1.760063-.973211c-.420007-.215375-.685648-.646176-.68953-1.118158V9.260711c.003494-.46256.257564-.886839.663647-1.108322l6.148831-3.476124zm1.78284 4.844314c.894008-.051766 1.851172-.034166 2.655624.406367.622752.337518.968034 1.045685.979423 1.738321-.017601.09318-.114922.144947-.20396.138217-.258833-.000518-.518701.003624-.778569-.001553-.110263.004141-.173936-.097321-.187913-.194642-.074543-.331306-.255209-.658988-.566843-.818947-.478323-.239679-1.033261-.227773-1.555067-.222596-.381002.020706-.790476.053319-1.112981.276951-.24848.169794-.323024.517665-.234503.787887.082827.198266.312153.261938.49903.320952 1.077779.28161 2.219232.258833 3.276822.624823.437428.151158.865537.445192 1.01566.903326.195678.613951.110263 1.348001-.326129 1.840818-.354083.40585-.869678.621199-1.384755.746474-.684872.152711-1.395109.156335-2.090334.088003-.653811-.074544-1.334024-.246409-1.838748-.691601-.431733-.37479-.641905-.958717-.621198-1.521937.005177-.09525.099909-.161511.191536-.153746h.776498c.104569-.007248.181183.082826.18636.181183.048143.310599.166688.647082.442086.828264.531125.342695 1.197361.318882 1.8051.328718.503688-.02226 1.068979-.028989 1.480523-.362366.21742-.189983.281093-.507312.222596-.780639-.063673-.230879-.310599-.338036-.517665-.414133-1.063803-.336482-2.218197-.214313-3.271646-.595315-.427592-.151158-.841207-.43691-1.005307-.876408-.229325-.621198-.124239-1.390967.358743-1.867219.465899-.473664 1.149217-.6564 1.796299-.721626z" stroke="none" fill-rule="nonzero"/></svg>