<svg version="1.1" xmlns="http://www.w3.org/2000/svg" width="32" height="32" viewBox="0 0 32 32" fill="#0077b7">
<title>notistack</title>
<path d="M29.333 14.509c-0.736 0-1.333-0.597-1.333-1.333 0-3.74-1.456-7.255-4.1-9.9-0.521-0.521-0.521-1.364 0-1.885s1.364-0.521 1.885 0c3.148 3.148 4.881 7.333 4.881 11.785 0 0.736-0.597 1.333-1.333 1.333z"></path>
<path d="M2.667 14.509c-0.736 0-1.333-0.597-1.333-1.333 0-4.452 1.733-8.637 4.881-11.785 0.521-0.521 1.364-0.521 1.885 0s0.521 1.364 0 1.885c-2.644 2.644-4.1 6.16-4.1 9.9 0 0.736-0.597 1.333-1.333 1.333z"></path>
<path d="M28.505 22.551c-2.016-1.704-3.172-4.195-3.172-6.833v-3.717c0-4.692-3.485-8.576-8-9.227v-1.44c0-0.737-0.597-1.333-1.333-1.333s-1.333 0.596-1.333 1.333v1.44c-4.516 0.651-8 4.535-8 9.227v3.717c0 2.639-1.156 5.129-3.184 6.844-0.519 0.444-0.816 1.089-0.816 1.772 0 1.287 1.047 2.333 2.333 2.333h22c1.287 0 2.333-1.047 2.333-2.333 0-0.683-0.297-1.328-0.828-1.783z"></path>
<path d="M16 32c2.415 0 4.435-1.721 4.899-4h-9.797c0.464 2.279 2.484 4 4.899 4z"></path>
</svg>
