<svg version="1.1" xmlns="http://www.w3.org/2000/svg" width="32" height="32" viewBox="0 0 32 32">
<title>photoshop-cc</title>
<path fill="#000" d="M1.333 1.733h29.333v28.533h-29.333v-28.533z"></path>
<path fill="#31c5f0" d="M1.333 1.733h29.333v28.533h-29.333v-28.533zM0 31.6h32v-31.2h-32v31.2zM21.573 13.2c-1.053 0-1.413 0.533-1.413 0.973 0 0.48 0.24 0.813 1.653 1.547 2.093 1.013 2.747 1.987 2.747 3.413 0 2.133-1.627 3.28-3.827 3.28-1.16 0-2.16-0.24-2.733-0.573-0.093-0.040-0.107-0.107-0.107-0.213v-1.96c0-0.133 0.067-0.173 0.16-0.107 0.84 0.547 1.8 0.787 2.68 0.787 1.053 0 1.493-0.44 1.493-1.040 0-0.48-0.307-0.907-1.653-1.6-1.893-0.907-2.68-1.827-2.68-3.36 0-1.72 1.347-3.147 3.68-3.147 1.147 0 1.947 0.173 2.387 0.373 0.107 0.067 0.133 0.173 0.133 0.267v1.827c0 0.107-0.067 0.173-0.2 0.133-0.587-0.373-1.453-0.6-2.32-0.6zM10.107 14.787c0.307 0.027 0.547 0.027 1.080 0.027 1.56 0 3.027-0.547 3.027-2.667 0-1.693-1.053-2.547-2.827-2.547-0.533 0-1.040 0.027-1.28 0.040v5.147zM7.733 7.707c0-0.093 0.187-0.16 0.293-0.16 0.853-0.040 2.12-0.067 3.44-0.067 3.693 0 5.133 2.027 5.133 4.613 0 3.387-2.453 4.84-5.467 4.84-0.507 0-0.68-0.027-1.040-0.027v5.12c0 0.107-0.040 0.16-0.16 0.16h-2.040c-0.107 0-0.16-0.040-0.16-0.16v-14.32z"></path>
</svg>
