<!-- Generated by IcoMoon.io -->
<svg version="1.1" xmlns="http://www.w3.org/2000/svg" width="32" height="32" viewBox="0 0 32 32">
<title>physics</title>
<path fill="#5ed3f3" d="M29.469 7.385c-1.194-1.87-3.754-2.646-7.213-2.2-0.122 0.014-0.252 0.036-0.374 0.050-0.050-0.115-0.101-0.23-0.158-0.345-1.489-3.15-3.516-4.89-5.731-4.89s-4.25 1.74-5.731 4.89c-0.050 0.115-0.108 0.23-0.158 0.345-0.129-0.022-0.252-0.036-0.374-0.050-3.459-0.453-6.019 0.331-7.213 2.2s-0.827 4.516 1.028 7.464c0.244 0.388 0.511 0.777 0.798 1.158-0.288 0.388-0.554 0.769-0.798 1.158-1.855 2.941-2.222 5.602-1.028 7.464 0.971 1.524 2.848 2.323 5.386 2.323 0.604 0 1.215-0.043 1.819-0.122 0.122-0.014 0.252-0.036 0.374-0.050 0.050 0.115 0.101 0.23 0.158 0.345 1.489 3.15 3.516 4.89 5.731 4.89s4.25-1.74 5.731-4.89c0.050-0.115 0.108-0.23 0.158-0.345 0.129 0.022 0.252 0.036 0.374 0.050 0.604 0.079 1.208 0.122 1.819 0.122 2.538 0 4.415-0.798 5.386-2.323 1.194-1.87 0.827-4.516-1.028-7.464-0.244-0.388-0.511-0.777-0.798-1.158 0.288-0.388 0.554-0.769 0.798-1.158 1.877-2.956 2.244-5.609 1.043-7.464zM11.57 5.501c1.215-2.589 2.826-4.063 4.43-4.063s3.214 1.481 4.43 4.063c0 0.007 0 0.007 0.007 0.014-1.524 0.367-3.013 0.877-4.444 1.517-1.431-0.647-2.92-1.151-4.444-1.517 0.014 0 0.014-0.007 0.022-0.014zM22.472 16c0 1.151-0.065 2.294-0.187 3.437-0.892 0.719-1.834 1.395-2.797 2.013-1.122 0.719-2.287 1.366-3.488 1.934-1.201-0.575-2.366-1.215-3.488-1.934-0.971-0.618-1.906-1.287-2.797-2.013-0.252-2.287-0.252-4.595 0-6.882 1.934-1.553 4.049-2.876 6.292-3.941 1.201 0.568 2.366 1.215 3.488 1.934 0.971 0.618 1.906 1.287 2.797 2.013 0.115 1.143 0.18 2.287 0.18 3.437zM23.838 13.907c0.705 0.654 1.366 1.352 1.985 2.093-0.618 0.733-1.28 1.431-1.985 2.093 0.043-0.69 0.065-1.388 0.065-2.093s-0.022-1.402-0.065-2.093zM21.99 21.48c-0.23 1.244-0.554 2.467-0.985 3.653-1.115-0.252-2.208-0.59-3.272-1.007 0.849-0.446 1.697-0.935 2.531-1.467 0.59-0.374 1.165-0.769 1.726-1.179zM14.267 24.126c-1.064 0.424-2.157 0.762-3.272 1.007-0.431-1.187-0.755-2.409-0.985-3.653 0.554 0.41 1.129 0.805 1.726 1.179 0.834 0.539 1.683 1.028 2.531 1.467zM8.155 18.093c-0.705-0.654-1.366-1.352-1.985-2.093 0.618-0.733 1.28-1.438 1.985-2.093-0.043 0.69-0.065 1.388-0.065 2.093s0.022 1.402 0.065 2.093zM10.010 10.52c0.23-1.244 0.554-2.467 0.985-3.653 1.115 0.252 2.208 0.59 3.272 1.007-0.849 0.446-1.697 0.935-2.531 1.467-0.59 0.374-1.165 0.769-1.726 1.179zM20.257 9.334c-0.834-0.532-1.683-1.028-2.538-1.467 1.064-0.424 2.157-0.762 3.272-1.007 0.424 1.187 0.755 2.409 0.985 3.653-0.547-0.403-1.122-0.798-1.719-1.179zM4.768 14.073c-1.524-2.416-1.898-4.573-1.035-5.925 0.69-1.079 2.186-1.661 4.2-1.661 0.539 0 1.079 0.036 1.618 0.108h0.014c-0.582 1.69-0.985 3.437-1.208 5.206-1.107 0.92-2.136 1.934-3.078 3.020-0.18-0.237-0.352-0.489-0.511-0.748zM9.542 25.391c-0.539 0.072-1.079 0.108-1.618 0.108-2.021 0-3.509-0.575-4.2-1.661-0.863-1.352-0.489-3.509 1.035-5.925 0.158-0.252 0.331-0.511 0.511-0.762 0.942 1.086 1.978 2.1 3.078 3.020 0.223 1.776 0.626 3.516 1.208 5.206 0 0.014-0.007 0.014-0.014 0.014zM20.43 26.499c-1.215 2.589-2.826 4.063-4.43 4.063s-3.214-1.481-4.43-4.063c0-0.007 0-0.007-0.007-0.014 1.524-0.367 3.013-0.877 4.444-1.517 1.431 0.647 2.92 1.151 4.444 1.517-0.014 0-0.014 0.007-0.022 0.014zM27.232 17.927c1.524 2.416 1.898 4.573 1.035 5.925s-2.977 1.92-5.81 1.546h-0.014c0.582-1.69 0.985-3.437 1.208-5.206 1.107-0.92 2.136-1.934 3.078-3.020 0.173 0.244 0.345 0.496 0.503 0.755zM23.637 11.815c-0.223-1.776-0.626-3.516-1.208-5.206h0.014c2.826-0.367 4.947 0.194 5.81 1.546s0.489 3.509-1.035 5.925c-0.158 0.252-0.331 0.511-0.511 0.762-0.935-1.093-1.963-2.107-3.071-3.027z"></path>
<path fill="#5ed3f3" d="M16 13.16c-1.568 0-2.84 1.273-2.84 2.84s1.273 2.84 2.84 2.84 2.84-1.273 2.84-2.84c0-1.568-1.273-2.84-2.84-2.84zM16 17.409c-0.777 0-1.409-0.633-1.409-1.409s0.633-1.409 1.409-1.409 1.409 0.633 1.409 1.409c-0.007 0.777-0.633 1.409-1.409 1.409z"></path>
</svg>
