<svg xmlns="http://www.w3.org/2000/svg" width="71" height="26" stroke="#000" stroke-linecap="round" stroke-linejoin="round" fill="#fff" fill-rule="evenodd" font-family="Roboto" font-size="14" text-anchor="middle"><style><![CDATA[svg text{white-space:pre}]]></style><defs><style>@import url("https://fonts.googleapis.com/css?family=Cousine:400,400i,700,700i"); </style></defs><rect fill="#61dafb" height="25" rx="5" stroke="none" width="69.5"/><text font-family="Cousine" fill="#fff" text-anchor="start" font-size="12" font-weight="bold" stroke="none"><tspan x="30" y="16.46">React</tspan></text><path d="M23.49996001 12.76446903c0-1.29182103-1.61767563-2.516008-4.09786528-3.27517223.57237514-2.52791324.31795198-4.53918016-.8028852-5.18298674-.25842578-.15107337-.5604699-.22260744-.89042975-.22260744v.8863245c.1828891 0 .32995985.03581835.45311749.10334979.54055942.31004936.7750721 1.49051536.59228563 3.00884383-.04372096.37368081-.11525503.76716948-.20269695 1.16856076-.77907472-.19079171-1.6296835-.33786246-2.52401325-.43320701-.53655679-.73535375-1.09302407-1.40307343-1.65339134-1.98735381 1.29572102-1.20437911 2.51200537-1.86419618 3.33870104-1.86419618V4.0797c-1.09302407 0-2.52391061.77907472-3.97070501 2.13042195-1.4467944-1.34344462-2.87768094-2.11451409-3.97080765-2.11451409v.8863245c.82279568 0 2.04308266.65581444 3.33880368 1.85229094-.55646728.58428038-1.11293456 1.24799744-1.64158874 1.98335119-.89822973.09534455-1.74883852.2424153-2.52791323.43720963l-.20669958-1.1526529c-.18678909-1.51832846.04372096-2.69889709.58038039-3.01284645.11915502-.07153406.27423102-.10334979.45701748-.10334979v-.88632449c-.33385984 0-.63590396.07153406-.89822973.2225048-1.11693719.64390921-1.36735773 2.65117351-.79097996 5.17118413C5.60977301 10.25646628 4 11.47665062 4 12.76446903s1.61767563 2.516008 4.09796791 3.27517223c-.57237514 2.52791324-.31805461 4.53918017.8028852 5.18308937.25832315.15097075.5604699.22250481.89432974.22250481 1.09302408 0 2.52391062-.77897209 3.97070502-2.13042195 1.4467944 1.34344462 2.87768094 2.11451409 3.97080764 2.11451409.33385984 0 .63590396-.07153407.89822974-.22250481 1.11693718-.64390921 1.36735772-2.65117351.79097996-5.17118413 2.46428179-.75916423 4.0740548-1.9833512 4.0740548-3.27116961zm-5.17508412-2.65117351l-.5365568 1.57005468-.52064893-.95395857-.57237514-.93004547 1.62958087.31394936zm-1.82037259 4.23313343l-.95796119 1.51832846-1.79656211.07953931c-.60018824 0-1.20037648-.02791573-1.78855685-.07553669l-.96196382-1.51042585-.82669567-1.58195991.82279568-1.58585991.95785856-1.51832846 1.7965621-.07953931 1.78865949.07553669.96186119 1.51042585.8267983 1.58185728-.82279568 1.58596254zm1.28381579-.51674895l.54856467 1.58195992-1.63758612.31795198.57227251-.9419507.51674894-.9579612zm-4.03033384 4.24103604c-.36967819-.38158342-.73935638-.80688781-1.10503194-1.27191055l1.09302407.02781311 1.10503195-.02781311c-.35777295.46502274-.72734851.89032713-1.09302408 1.27191055zM10.800765 15.7295919l-1.6296835-.31394936c.14707075-.51274631.32995985-1.04140049.53665943-1.57005467l.52064893.95395857.57237514.93004546zm2.93730977-8.27136988c.36967819.38158343.73925374.80688782 1.10492931 1.27191055L13.74998 8.70231947l-1.10492931.0278131c.35767032-.46502273.72734851-.89032712 1.09302408-1.27191055zm-2.94131239 2.34112414l-.57237514.9419507-.51664631.95395857-.54856467-1.58195991 1.63758612-.31394936zm-3.59712684 4.9763898c-1.40707606-.60018824-2.31721103-1.38726821-2.31721103-2.01126693s.91013497-1.41497868 2.31721103-2.0111643c.34186509-.14707075.71544327-.27823363 1.10102932-.40149391.22650743.77907472.52465156 1.58986253.89432975 2.42066346-.36567557.82669567-.65981707 1.63358349-.88242451 2.40865558l-1.11293456-.4053939zm2.1384272 5.67982519c-.54055942-.31004936-.7750721-1.49051536-.59228563-3.00884383.04372096-.37368081.11535766-.76716948.20279958-1.16856076.77897209.19079172 1.62958087.33786247 2.52391062.43320701.53655679.73535375 1.09302407 1.40307344 1.65349397 1.98735382-1.29572102 1.20437911-2.51200537 1.86419617-3.33880367 1.86419617-.17888648-.00400262-.32985722-.03982097-.44911487-.10735241zm9.4280254-3.02875431c.18678909 1.51832846-.04372096 2.6988971-.58027776 3.01284645-.11925765.07153407-.27423101.10334979-.45712011.10334979-.82279568 0-2.04298002-.65581445-3.33880368-1.85218831.55646728-.58428038 1.11293456-1.24810007 1.64158874-1.98345382.89833236-.09534455 1.74894115-.2424153 2.52791323-.43720963l.20669958 1.15665552zm1.53033633-2.65107088c-.34186508.14696812-.7155459.27813101-1.10102932.40139128-.22661006-.77907472-.52465155-1.58986253-.89432974-2.42056082.36567556-.82679831.65981707-1.63368613.8824245-2.40875822l1.11683456.40549653c1.40707606.60018825 2.31731367 1.38716558 2.31731367 2.0111643s-.91424024 1.41497868-2.32121367 2.01126693zm-8.36681705-2.01126693c0-1.00630057.81017202-1.81647259 1.81647259-1.81647259s1.81647259.81017202 1.81647259 1.81647259-.81017202 1.81647259-1.81647259 1.81647259-1.81647259-.81017202-1.81647259-1.81647259z" stroke="none" fill-rule="nonzero"/></svg>