<svg version="1.1" xmlns="http://www.w3.org/2000/svg" width="28" height="32" viewBox="0 0 28 32">
<title>react-2</title>
<path fill="#61dafb" d="M28.083 16.003c0-1.86-2.33-3.623-5.902-4.717 0.824-3.641 0.458-6.537-1.156-7.464-0.372-0.218-0.807-0.321-1.282-0.321v1.276c0.263 0 0.475 0.052 0.653 0.149 0.779 0.447 1.116 2.147 0.853 4.333-0.063 0.538-0.166 1.105-0.292 1.683-1.122-0.275-2.347-0.487-3.635-0.624-0.773-1.059-1.574-2.021-2.381-2.862 1.866-1.734 3.618-2.685 4.808-2.685v-1.276c-1.574 0-3.635 1.122-5.719 3.068-2.084-1.935-4.144-3.045-5.719-3.045v1.276c1.185 0 2.942 0.944 4.808 2.667-0.801 0.841-1.603 1.797-2.364 2.856-1.294 0.137-2.519 0.349-3.641 0.63-0.132-0.572-0.229-1.128-0.298-1.66-0.269-2.187 0.063-3.887 0.836-4.339 0.172-0.103 0.395-0.149 0.658-0.149v-1.276c-0.481 0-0.916 0.103-1.294 0.321-1.609 0.927-1.969 3.818-1.139 7.447-3.561 1.099-5.879 2.856-5.879 4.711 0 1.86 2.33 3.623 5.902 4.717-0.824 3.641-0.458 6.537 1.156 7.464 0.372 0.218 0.807 0.321 1.288 0.321 1.574 0 3.635-1.122 5.719-3.068 2.084 1.935 4.144 3.045 5.719 3.045 0.481 0 0.916-0.103 1.294-0.321 1.609-0.927 1.969-3.818 1.139-7.447 3.549-1.093 5.867-2.856 5.867-4.711zM20.63 12.185c-0.212 0.738-0.475 1.5-0.773 2.261-0.235-0.458-0.481-0.916-0.75-1.374-0.263-0.458-0.544-0.904-0.824-1.339 0.813 0.12 1.597 0.269 2.347 0.452zM18.009 18.281c-0.447 0.773-0.904 1.505-1.38 2.187-0.853 0.074-1.717 0.114-2.587 0.114-0.864 0-1.729-0.040-2.576-0.109-0.475-0.681-0.939-1.408-1.385-2.175-0.435-0.75-0.83-1.511-1.191-2.278 0.355-0.767 0.756-1.534 1.185-2.284 0.447-0.773 0.904-1.505 1.38-2.187 0.853-0.074 1.717-0.114 2.587-0.114 0.864 0 1.729 0.040 2.576 0.109 0.475 0.681 0.939 1.408 1.385 2.175 0.435 0.75 0.83 1.511 1.191 2.278-0.361 0.767-0.756 1.534-1.185 2.284zM19.857 17.537c0.309 0.767 0.572 1.534 0.79 2.278-0.75 0.183-1.54 0.338-2.358 0.458 0.28-0.441 0.561-0.893 0.824-1.357 0.263-0.458 0.509-0.922 0.744-1.38zM14.053 23.645c-0.532-0.55-1.065-1.162-1.591-1.832 0.515 0.023 1.042 0.040 1.574 0.040 0.538 0 1.070-0.011 1.591-0.040-0.515 0.67-1.048 1.282-1.574 1.832zM9.794 20.273c-0.813-0.12-1.597-0.269-2.347-0.452 0.212-0.738 0.475-1.5 0.773-2.261 0.235 0.458 0.481 0.916 0.75 1.374s0.544 0.904 0.824 1.339zM14.024 8.361c0.532 0.55 1.065 1.162 1.591 1.832-0.515-0.023-1.042-0.040-1.574-0.040-0.538 0-1.070 0.011-1.591 0.040 0.515-0.67 1.048-1.282 1.574-1.832zM9.788 11.733c-0.28 0.441-0.561 0.893-0.824 1.357-0.263 0.458-0.509 0.916-0.744 1.374-0.309-0.767-0.572-1.534-0.79-2.278 0.75-0.177 1.54-0.332 2.358-0.452zM4.608 18.899c-2.026-0.864-3.337-1.998-3.337-2.896s1.311-2.038 3.337-2.896c0.492-0.212 1.030-0.401 1.586-0.578 0.326 1.122 0.756 2.29 1.288 3.486-0.527 1.191-0.95 2.353-1.271 3.469-0.567-0.177-1.105-0.372-1.603-0.584zM7.688 27.079c-0.779-0.447-1.116-2.147-0.853-4.333 0.063-0.538 0.166-1.105 0.292-1.683 1.122 0.275 2.347 0.487 3.635 0.624 0.773 1.059 1.574 2.021 2.381 2.862-1.866 1.734-3.618 2.685-4.808 2.685-0.258-0.006-0.475-0.057-0.647-0.155zM21.266 22.717c0.269 2.187-0.063 3.887-0.836 4.339-0.172 0.103-0.395 0.149-0.658 0.149-1.185 0-2.942-0.945-4.808-2.668 0.801-0.841 1.603-1.797 2.364-2.856 1.294-0.137 2.519-0.349 3.641-0.63 0.132 0.578 0.235 1.133 0.298 1.666zM23.469 18.899c-0.492 0.212-1.030 0.401-1.586 0.578-0.326-1.122-0.756-2.29-1.288-3.486 0.527-1.191 0.95-2.353 1.271-3.469 0.567 0.177 1.105 0.372 1.609 0.584 2.026 0.864 3.337 1.998 3.337 2.896-0.006 0.899-1.317 2.038-3.343 2.896z"></path>
<path fill="#61dafb" d="M16.652 16.003c0 1.445-1.171 2.616-2.616 2.616s-2.616-1.171-2.616-2.616c0-1.445 1.171-2.616 2.616-2.616s2.616 1.171 2.616 2.616z"></path>
</svg>
