<!-- Generated by IcoMoon.io -->
<svg version="1.1" xmlns="http://www.w3.org/2000/svg" width="34" height="32" viewBox="0 0 34 32">
<title>redux-seeklogocom</title>
<path fill="#764abc" d="M23.263 22.26c1.239-0.128 2.179-1.196 2.136-2.478s-1.111-2.307-2.393-2.307h-0.085c-1.324 0.043-2.35 1.154-2.307 2.478 0.043 0.641 0.299 1.196 0.684 1.581-1.453 2.863-3.674 4.956-7.007 6.708-2.264 1.196-4.614 1.624-6.964 1.325-1.923-0.256-3.418-1.111-4.358-2.521-1.367-2.094-1.495-4.358-0.342-6.622 0.812-1.624 2.093-2.82 2.905-3.418-0.171-0.555-0.427-1.495-0.555-2.179-6.195 4.486-5.554 10.553-3.674 13.416 1.41 2.136 4.272 3.461 7.434 3.461 0.854 0 1.709-0.085 2.563-0.299 5.469-1.068 9.613-4.315 11.963-9.143zM30.782 16.962c-3.247-3.803-8.032-5.896-13.501-5.896h-0.684c-0.385-0.769-1.196-1.282-2.093-1.282h-0.085c-1.324 0.043-2.35 1.154-2.307 2.478 0.043 1.282 1.111 2.307 2.393 2.307h0.085c0.94-0.043 1.752-0.641 2.093-1.453h0.769c3.247 0 6.323 0.94 9.1 2.777 2.136 1.41 3.674 3.247 4.529 5.469 0.726 1.794 0.684 3.546-0.085 5.042-1.196 2.264-3.204 3.503-5.853 3.503-1.709 0-3.332-0.513-4.187-0.897-0.47 0.427-1.324 1.111-1.923 1.538 1.837 0.855 3.717 1.325 5.511 1.325 4.101 0 7.135-2.264 8.288-4.529 1.239-2.478 1.154-6.751-2.051-10.382zM9.079 22.986c0.043 1.282 1.111 2.307 2.393 2.307h0.085c1.324-0.043 2.35-1.154 2.307-2.478-0.043-1.282-1.111-2.307-2.393-2.307h-0.085c-0.085 0-0.214 0-0.299 0.043-1.752-2.905-2.478-6.067-2.222-9.485 0.171-2.564 1.025-4.785 2.521-6.622 1.239-1.581 3.632-2.35 5.255-2.393 4.529-0.085 6.451 5.554 6.579 7.819 0.555 0.128 1.495 0.427 2.136 0.641-0.513-6.922-4.785-10.511-8.887-10.511-3.845 0-7.391 2.777-8.801 6.879-1.965 5.469-0.684 10.724 1.709 14.868-0.214 0.299-0.342 0.769-0.299 1.239z"></path>
</svg>
