<svg version="1.1" xmlns="http://www.w3.org/2000/svg" width="32" height="32" viewBox="0 0 32 32">
<title>nail-polish</title>
<path fill="#ed5a81" d="M27.959 5.015v4.555c0 0.506 0.41 0.917 0.917 0.917s0.917-0.41 0.917-0.917v-4.032l-1.833-0.523z"></path>
<path fill="#f96989" d="M28.213 10.073c-0.043 1.127-0.358 3.987-2.317 5.622-0.237 0.198-0.231 0.565 0.008 0.762l0.996 0.82c0.377 0.311 0.946 0.192 1.165-0.244 0.545-1.085 1.365-3.416 1.408-6.898-0.37 0.318-0.922 0.292-1.26-0.062z"></path>
<path fill="#f4d44e" d="M15.45 14.156l-6.882 1.394-7.584 6.086c-0.622 0.499-0.984 1.254-0.984 2.052v5.626l14.744-11.831c1.014-0.814 1.282-2.214 0.707-3.326z"></path>
<path fill="#e8c842" d="M1.437 23.419l10.711-8.595-3.579 0.725-7.584 6.086c-0.622 0.499-0.984 1.254-0.984 2.052v1.664c0.302-0.747 0.793-1.415 1.437-1.932z"></path>
<path fill="#f4d44e" d="M23.851 22.445l-6.518 0.67-11.073 8.886h8.693c0.787 0 1.55-0.268 2.164-0.761l5.998-4.813c1.215-0.975 1.501-2.677 0.737-3.982z"></path>
<path fill="#e8c842" d="M20.201 22.82l-2.868 0.295-11.073 8.886h2.501z"></path>
<path fill="#f4d44e" d="M21.767 16.184l-7.382 1.585-14.384 11.521v1.278c0 0.791 0.641 1.431 1.431 1.431h4.832l14.817-11.89c1.198-0.961 1.467-2.649 0.685-3.925z"></path>
<path fill="#f96989" d="M17.334 23.107c0 0-0.101 1.293 0.538 1.927s2.075 0.771 3.17 0c1.095-0.771 5.29-4.672 5.085-6.304-0.299-2.383-5.839 2.020-5.839 2.020l-2.953 2.357z"></path>
<path fill="#ed5a81" d="M26.126 18.73c-0.299-2.383-5.839 2.020-5.839 2.020l-2.953 2.357c0 0-0.081 1.048 0.369 1.72 1.473-1.172 6.308-5.356 8.168-5.062 0.193-0.395 0.292-0.75 0.256-1.035z"></path>
<path fill="#f96989" d="M32 0.815c0-0.448-0.367-0.815-0.815-0.815h-4.482c-0.448 0-0.815 0.367-0.815 0.815v3.067c0 0.435 0.288 0.817 0.707 0.937l4.32 1.232c0.544 0.155 1.085-0.253 1.085-0.819v-4.417z"></path>
<path fill="#ed5a81" d="M27.533 0.518c0-0.196 0.070-0.377 0.187-0.518h-1.018c-0.448 0-0.815 0.367-0.815 0.815v3.067c0 0.435 0.288 0.817 0.707 0.937l0.954 0.272c-0.030-0.162-0.009 0.078-0.015-4.573z"></path>
<path fill="#e8c842" d="M1.683 29.846l15.907-12.764-3.206 0.689-14.384 11.521v1.278c0 0.339 0.118 0.651 0.316 0.896 0.343-0.616 0.804-1.167 1.367-1.619z"></path>
<path fill="#f96989" d="M8.568 15.55c0 0-0.096 1.238 0.512 1.846s1.977 0.739 3.020 0c1.043-0.739 5.040-4.475 4.845-6.039-0.285-2.283-5.563 1.935-5.563 1.935l-2.814 2.258z"></path>
<path fill="#ed5a81" d="M11.834 15.079c0 0 3.279-2.621 4.808-2.612 0.223-0.426 0.341-0.809 0.304-1.11-0.285-2.283-5.563 1.935-5.563 1.935l-2.814 2.258c0 0-0.089 1.158 0.455 1.784l2.81-2.255z"></path>
<path fill="#f96989" d="M14.384 17.77c0 0-0.101 1.312 0.543 1.956s2.095 0.783 3.199 0c1.105-0.783 5.34-4.742 5.133-6.399-0.302-2.419-5.894 2.050-5.894 2.050l-2.981 2.392z"></path>
<path fill="#ed5a81" d="M17.66 17.023c0 0 3.934-3.143 5.38-2.73 0.168-0.367 0.252-0.697 0.218-0.966-0.302-2.419-5.894 2.050-5.894 2.050l-2.981 2.392c0 0-0.074 0.956 0.306 1.637l2.97-2.384z"></path>
</svg>
