<svg version="1.1" xmlns="http://www.w3.org/2000/svg" width="32" height="32" viewBox="0 0 32 32">
<title>sweet-alert2</title>
<path fill="#fdcc80" d="M29.303 17.503c0 6.576-5.331 11.906-11.906 11.906s-11.906-5.331-11.906-11.906c0-6.576 5.331-11.906 11.906-11.906s11.906 5.331 11.906 11.906z"></path>
<path fill="#fff" d="M20.296 15.982c0 2.415-1.958 4.373-4.373 4.373s-4.373-1.958-4.373-4.373c0-2.415 1.958-4.373 4.373-4.373s4.373 1.958 4.373 4.373z"></path>
<path fill="#fa7471" opacity="0.5" d="M11.087 26.831c-0.784 0.036-3.791-1.592-5.038-5.882-0.226-0.784-0.535-1.996-0.535-3.517 0-6.535 5.3-11.835 11.835-11.835 1.557 0 2.792 0.321 3.517 0.535 4.088 1.236 5.704 4.052 5.335 4.812s-1.26-0.404-2.721-0.297c-0.166 0.012-0.499 0.475-0.499 0.737 0 0.856 1.604 1.509 1.735 1.889 0.202 0.594 0.404 0.737 0.273 1.129-0.178 0.57-0.345 0.428-0.618 0.701-0.107 0.107-0.665 0.083-1.973-0.202-0.701-0.154-2.139-1.331-2.139-1.355 0-0.048-1.925-1.58-3.589-1.759-0.784-0.083-3.339-0.333-4.658 2.281-0.059 0.131-0.523 2.377-0.499 2.674 0.107 1.414 0.832 2.935 1.438 3.268 1.39 0.761 1.533 1.747 1.521 1.711-0.012-0.048 0.927 1.747 0.974 2.056 0.036 0.25-0.095 0.879-0.44 1.034-0.416 0.178-0.915-0.202-0.998-0.25-0.095-0.059-1.271-1.937-2.317-1.557-0.095 0.036-0.713 0.44-0.903 0.594-0.036 0.024 0.57 1.83 0.665 2.198 0.059 0.214-0.273 1.034-0.368 1.034z"></path>
<path fill="#fa7471" d="M14.224 6.060h-0.024c-0.273 0.048-0.452 0.309-0.404 0.582s0.309 0.452 0.582 0.404c0.095-0.012 0.178-0.059 0.25-0.119 0.119-0.107 0.19-0.273 0.166-0.44-0.036-0.273-0.297-0.463-0.57-0.428z"></path>
<path fill="#fa7471" d="M19.761 6.571c-0.273-0.012-0.511 0.202-0.535 0.475l-0.059 0.998c-0.012 0.273 0.202 0.511 0.475 0.535 0.143 0.012 0.261-0.036 0.368-0.131 0.095-0.083 0.154-0.202 0.166-0.345l0.059-0.998c0.012-0.285-0.202-0.523-0.475-0.535z"></path>
<path fill="#fa7471" d="M9.387 19.892c-0.273-0.012-0.511 0.202-0.535 0.475l-0.059 0.998c-0.012 0.273 0.202 0.511 0.475 0.535 0.143 0.012 0.261-0.036 0.368-0.131 0.095-0.083 0.154-0.202 0.166-0.345l0.059-0.998c0.012-0.285-0.202-0.523-0.475-0.535z"></path>
<path fill="#a575b7" d="M5.941 14.497c-0.273-0.012-0.511 0.202-0.535 0.475l-0.059 0.998c-0.012 0.273 0.202 0.511 0.475 0.535 0.143 0.012 0.261-0.036 0.368-0.131s0.154-0.202 0.166-0.345l0.059-0.998c0.012-0.273-0.202-0.511-0.475-0.535z"></path>
<path fill="#a575b7" d="M16.85 6.951l-0.737 0.665c-0.202 0.19-0.226 0.499-0.036 0.713 0.19 0.202 0.499 0.226 0.713 0.036l0.737-0.665c0.202-0.19 0.226-0.499 0.036-0.713s-0.511-0.226-0.713-0.036z"></path>
<path fill="#fa7471" d="M9.316 11.526l-0.986-0.059c-0.273-0.012-0.511 0.202-0.535 0.475s0.202 0.511 0.475 0.535l0.986 0.059c0.143 0.012 0.261-0.036 0.368-0.131 0.095-0.083 0.154-0.202 0.166-0.345 0.012-0.285-0.202-0.523-0.475-0.535z"></path>
<path fill="#a575b7" d="M20.64 10.124l-0.986-0.059c-0.273-0.012-0.511 0.202-0.535 0.475s0.202 0.511 0.475 0.535l0.986 0.059c0.143 0.012 0.261-0.036 0.368-0.131s0.154-0.202 0.166-0.345c0.012-0.285-0.19-0.523-0.475-0.535z"></path>
<path fill="#fa7471" d="M13.903 9.268l-0.844-0.523c-0.238-0.143-0.547-0.071-0.689 0.166s-0.071 0.547 0.166 0.689l0.844 0.523c0.119 0.071 0.25 0.095 0.38 0.059 0.131-0.024 0.238-0.107 0.309-0.226 0.131-0.238 0.059-0.547-0.166-0.689z"></path>
<path fill="#a575b7" d="M8.651 14.972c-0.25 0.131-0.333 0.44-0.202 0.677l0.475 0.879c0.131 0.25 0.44 0.333 0.677 0.202 0.131-0.071 0.214-0.19 0.25-0.321 0.036-0.119 0.012-0.25-0.048-0.356l-0.475-0.879c-0.131-0.238-0.44-0.333-0.677-0.202z"></path>
<path fill="#a575b7" d="M25.797 4.397c-0.261 0.368-0.547 0.713-0.856 1.034-0.214 0.226-0.202 0.582 0.012 0.796 0.226 0.214 0.582 0.202 0.796-0.012 0.345-0.356 0.665-0.749 0.951-1.153 0.178-0.25 0.119-0.606-0.131-0.784s-0.594-0.131-0.772 0.119z"></path>
<path fill="#a575b7" d="M15.364 0.82c0.024 0.44 0.024 0.891-0.024 1.331-0.024 0.309 0.202 0.582 0.511 0.606s0.582-0.202 0.606-0.511c0.048-0.499 0.048-0.998 0.024-1.497-0.024-0.309-0.285-0.547-0.594-0.523-0.297 0.012-0.535 0.285-0.523 0.594z"></path>
<path fill="#a575b7" d="M5.216 5.3c0.368 0.261 0.713 0.535 1.034 0.844 0.226 0.214 0.582 0.202 0.796-0.024s0.202-0.582-0.024-0.796c-0.356-0.345-0.749-0.654-1.165-0.951-0.25-0.178-0.606-0.119-0.784 0.131s-0.119 0.618 0.143 0.796z"></path>
<path fill="#a575b7" d="M0.856 15.673c0.44-0.024 0.891-0.012 1.331 0.036 0.309 0.036 0.582-0.19 0.618-0.499s-0.19-0.582-0.499-0.618c-0.499-0.048-0.998-0.059-1.497-0.036-0.309 0.012-0.547 0.273-0.535 0.582 0.012 0.321 0.273 0.559 0.582 0.535z"></path>
<path fill="#a575b7" d="M5.323 26.439c0.261-0.356 0.547-0.701 0.856-1.022 0.214-0.226 0.214-0.582-0.012-0.796s-0.582-0.214-0.796 0.012c-0.345 0.356-0.665 0.749-0.963 1.153-0.178 0.25-0.119 0.606 0.131 0.784 0.25 0.166 0.594 0.119 0.784-0.131z"></path>
<path fill="none" stroke="#8a3d9b" stroke-width="0.9744" stroke-miterlimit="10" stroke-linecap="butt" stroke-linejoin="miter" d="M27.698 16.077c0 6.523-5.288 11.811-11.811 11.811s-11.811-5.288-11.811-11.811c0-6.523 5.288-11.811 11.811-11.811s11.811 5.288 11.811 11.811z"></path>
<path fill="#8a3d9b" d="M21.044 14.96c0.499-0.523 1.141 0.059 1.616 0.345 0.475 0.273 0.939 0.404 1.473 0.273 1.034-0.226 1.652-1.176 1.212-2.198-0.226-0.523-0.654-0.879-1.129-1.165-0.273-0.166-0.654-0.297-0.832-0.582-0.309-0.487 0.309-0.665 0.677-0.523 0.547 0.202 0.986 0.368 1.569 0.166 0.416-0.143 0.903-0.19 0.974-0.725 0.083-0.63-0.879-0.903-0.962-0.261-0.012 0.024-0.012 0.059-0.024 0.083 0.095-0.071 0.202-0.154 0.297-0.226-0.19 0.071-0.392 0.119-0.582 0.178-0.38 0.119-0.618-0.012-0.951-0.154-0.499-0.19-1.034-0.19-1.497 0.107-1.058 0.701-0.547 1.973 0.333 2.531 0.463 0.297 1.224 0.559 1.248 1.212 0.024 0.725-0.903 0.677-1.331 0.428-0.915-0.535-1.925-1.105-2.816-0.19-0.428 0.463 0.273 1.165 0.725 0.701z"></path>
<path fill="#8a3d9b" d="M13.915 20.961c-0.107 0.452-0.059 0.891 0.154 1.307 0.214 0.428 0.927 0.951 0.903 1.438-0.012 0.368-0.333 0.487-0.654 0.416s-0.499-0.273-0.677-0.535c-0.273-0.392-0.535-0.784-0.974-1.010-0.796-0.416-1.877-0.356-2.305 0.523-0.214 0.44-0.25 0.962-0.107 1.438 0.083 0.273 0.238 0.511 0.392 0.749 0.083 0.143 0.19 0.261 0.154 0.44-0.048 0.202-0.154 0.19-0.368 0.214-0.63 0.071-0.642 1.069 0 0.998 0.475-0.059 0.974-0.154 1.248-0.582 0.273-0.44 0.166-0.962-0.071-1.39-0.166-0.309-0.416-0.582-0.44-0.939-0.036-0.499 0.261-0.761 0.737-0.654 0.689 0.154 0.856 0.856 1.319 1.307 0.677 0.654 2.068 0.701 2.543-0.202 0.25-0.463 0.261-1.034 0.012-1.497-0.297-0.547-1.069-1.046-0.903-1.735 0.143-0.642-0.82-0.915-0.963-0.285z"></path>
<path fill="#8a3d9b" d="M14.592 11.918c1.592-0.345 3.28-0.083 4.456 1.117 0.927 0.951 1.402 2.329 1.212 3.648-0.463 3.256-4.456 4.682-6.939 2.614-1.45-1.212-1.687-3.078-1.236-4.824 0.166-0.665-0.856-0.951-1.034-0.285-0.499 1.937-0.285 4.004 1.141 5.514 1.105 1.176 2.804 1.806 4.408 1.64 2.079-0.214 3.874-1.652 4.527-3.648 0.547-1.652 0.166-3.529-0.879-4.908-1.414-1.866-3.719-2.377-5.929-1.901-0.677 0.143-0.392 1.176 0.273 1.034z"></path>
<path fill="#a575b7" d="M9.97 7.783l-0.951 0.285c-0.261 0.083-0.416 0.356-0.345 0.618 0.083 0.261 0.356 0.416 0.618 0.345l0.951-0.285c0.131-0.036 0.238-0.131 0.297-0.238s0.083-0.25 0.036-0.38c-0.059-0.261-0.345-0.416-0.606-0.345z"></path>
<path fill="#fa7471" d="M7.89 17.943h-0.024c-0.38 0.071-0.582 0.558-0.214 0.915 0.25 0.143 0.487 0.095 0.642-0.048 0.119-0.107 0.19-0.273 0.166-0.44-0.048-0.273-0.297-0.463-0.57-0.428z"></path>
<path fill="#8a3d9b" d="M12.94 11.716c-0.38 0.202-0.725 0.511-0.986 0.844-0.166 0.214-0.131 0.582 0.095 0.749 0.238 0.178 0.559 0.131 0.749-0.095 0.048-0.059 0.095-0.107 0.143-0.166l0.012-0.012c0.024-0.036 0.071-0.059 0.095-0.095 0.071-0.048 0.119-0.107 0.19-0.154 0.036-0.036 0.071-0.048 0.107-0.071 0.095-0.059-0.071 0.036 0.012-0.012 0.238-0.131 0.416-0.428 0.273-0.713-0.107-0.238-0.416-0.416-0.689-0.273z"></path>
</svg>
