<!-- Generated by IcoMoon.io -->
<svg version="1.1" xmlns="http://www.w3.org/2000/svg" width="32" height="32" viewBox="0 0 32 32">
<title>tailwind-css</title>
<path fill="#06b6d4" d="M16 6.82c-4.27 0-6.93 2.12-8 6.36 1.6-2.12 3.47-2.92 5.6-2.39 1.22 0.3 2.090 1.18 3.050 2.15 1.57 1.58 3.38 3.41 7.35 3.41 4.27 0 6.93-2.12 8-6.36-1.6 2.12-3.47 2.92-5.6 2.39-1.22-0.3-2.090-1.18-3.050-2.15-1.57-1.58-3.38-3.41-7.35-3.41zM8 16.36c-4.27 0-6.93 2.12-8 6.36 1.6-2.12 3.47-2.92 5.6-2.39 1.22 0.3 2.090 1.18 3.050 2.15 1.57 1.58 3.38 3.41 7.35 3.41 4.27 0 6.93-2.12 8-6.36-1.6 2.12-3.47 2.92-5.6 2.39-1.22-0.3-2.090-1.18-3.050-2.15-1.57-1.58-3.38-3.41-7.35-3.41z"></path>
</svg>
