<svg xmlns="http://www.w3.org/2000/svg" width="88" height="26" stroke="#000" stroke-linecap="round" stroke-linejoin="round" fill="#fff" fill-rule="evenodd" font-family="Roboto" font-size="14" text-anchor="middle"><style><![CDATA[svg text{white-space:pre}]]></style><defs><style>@import url("https://fonts.googleapis.com/css?family=Cousine:400,400i,700,700i"); </style></defs><rect fill="#e535ab" height="25" rx="5" stroke="none" width="86.5"/><text font-family="Cousine" fill="#fff" text-anchor="start" font-size="12" font-weight="bold" stroke="none"><tspan x="30" y="16.46">GraphQL</tspan></text><path d="M14.1701 6.19205l3.3655 1.9432c.0971-.1029.2086-.1911.331-.262.698-.4013 1.5882-.163 1.9936.535s.1631 1.5882-.5349 1.9936c-.1215.0699-.2524.1221-.3887.1548v3.8877c.1348.0327.2643.0845.3845.1537.7022.4054.9404 1.2957.535 1.9937s-1.2957.9362-1.9937.535c-.1352-.0776-.257-.1765-.3607-.2929l-3.345 1.9312c.049.1483.0739.3035.0737.4598 0 .8024-.652 1.4587-1.4586 1.4587s-1.4587-.6521-1.4587-1.4587c0-.1434.0206-.2819.059-.4127l-3.3645-1.9426c-.0961.1007-.206.1873-.3265.2572-.7021.4012-1.5924.1629-1.9937-.535s-.1629-1.5883.535-1.9937c.1203-.0692.2497-.121.3845-.1538v-3.8876c-.1363-.0327-.2672-.0849-.3886-.1548-.698-.4012-.9363-1.2956-.535-1.9936s1.2956-.9363 1.9936-.535c.1217.0705.2327.1582.3295.2603l3.3664-1.9437c-.0397-.1346-.0598-.2743-.0597-.4148 0-.8065.652-1.4586 1.4587-1.4586s1.4586.652 1.4586 1.4586c0 .145-.021.2849-.0603.417zm-.3506.5987l3.3735 1.9477c-.1086.3794-.0585.7866.1386 1.1284.2054.3572.5399.594.9112.6863v3.8926l-.0565.015-4.406-7.631.0392-.0389zm-2.0554.0398l-4.4059 7.631-.0575-.0154v-3.893c.3713-.0923.7058-.3291.9112-.6863.1975-.3425.2474-.7506.1381-1.1305l3.3725-1.9472.0416.0414zm1.4152.3457l4.4049 7.6292c-.1009.0963-.1874.2066-.2568.3276s-.121.2497-.1537.3845H8.3699c-.0327-.1348-.0845-.2643-.1538-.3845s-.156-.2298-.2564-.3257l4.4057-7.6307c.1321.038.2689.0572.4064.0571s.2782-.02.4075-.0575zm.6712 11.0659l3.3515-1.9351-.0269-.0957h-8.807l-.0152.0565 3.368 1.9445c.2748-.2857.6544-.4469 1.0509-.4462.4106-.0007.8024.1722 1.0787.476z" stroke="none"/></svg>