<svg version="1.1" xmlns="http://www.w3.org/2000/svg" width="243" height="128" viewBox="0 0 243 128">
<title>not-found</title>
<path fill="#002e4f" d="M183.435 122.742c-1.701 2.205-3.704 3.848-3.259 4.594 0 0 0.903 0.661 3.403 0.661 4.286 0 8.494-0.327 7.807-0.759-0.955-0.602-3.73-0.818-6.38-1.734-0.654-0.229 1.433-1.499 0.864-1.701-1.184-0.445-2.107-0.811-2.434-1.060z"></path>
<path fill="#002e4f" d="M227.587 127.199c0 0 0.563 0.792 2.722 0.792 3.704 0 7.565-0.504 6.969-0.877-0.831-0.517-7.323-1.871-7.323-1.871l-1.453-1.806-2.467 1.368 1.551 2.395z"></path>
<path fill="#00a4e2" d="M215.847 72.597c-2.657 0-4.666-0.53-4.836-0.576-1.387-0.38-2.205-1.806-1.826-3.193s1.799-2.199 3.187-1.826c0.092 0.026 5.942 1.525 9.358-1.407 2.284-1.963 3.154-5.654 2.578-10.981l-0.183-1.701 5.261-2.984c1.25-0.707 2.84-0.268 3.547 0.981s0.268 2.84-0.982 3.547l-2.323 1.315c0.366 6.276-1.158 10.909-4.541 13.794-2.853 2.428-6.413 3.030-9.24 3.030z"></path>
<path fill="#e1f3f6" d="M224.851 58.161c-0.098 3.782-1.106 6.524-3.010 8.16-3.743 3.213-10.163 1.577-10.274 1.544-1.518-0.412-3.082 0.484-3.501 2.009-0.412 1.525 0.484 3.095 2.002 3.508 0.183 0.046 2.395 1.152 5.307 1.047 11.072-0.393 17.754-9.94 17.871-15.509l-8.396-0.759z"></path>
<path fill="#008dc4" d="M209.63 44.922c-0.995-0.445-1.963-0.929-2.925-1.433-9.174 5.222-20.888 11.916-21.124 12.145 0 0 5.824 9.273 6.197 9.646 0.242 0.242 14.684-10.123 25.070-17.629-2.395-0.923-4.869-1.675-7.218-2.729z"></path>
<path fill="#00afe2" d="M209.781 44.654c2.402 1.060 4.928 1.826 7.368 2.788 5.719-4.136 10.143-7.349 10.143-7.349l-9.777-2.748c0 0-4.705 2.67-10.503 5.968 0.91 0.478 1.832 0.929 2.768 1.341z"></path>
<path fill="#006091" d="M192.924 32.483l5.759 15.581 11.256 4.129-14.259-26.038z"></path>
<path fill="#006091" d="M210.546 56.021h-8.337l7.421 12.963 11.314 4.77z"></path>
<path fill="#0076ad" d="M220.945 73.755l-6.635-11.321-28.394 16.648-5.582-9.528 3.508-56.631 12.761-7.48 22.969 39.178 7.728-4.528 6.426 10.961-7.728 4.528 6.635 11.321-11.687 6.852zM195.188 29.813l-0.72 0.419-1.95 30.239 15.365-9.004-12.695-21.654z"></path>
<path fill="#008dc4" d="M170.891 66.962l9.436 2.591 5.588 9.521-9.973-2.526z"></path>
<path fill="#00afe2" d="M170.891 66.962l9.436 2.591 3.508-56.631-8.658-2.068z"></path>
<path fill="#00d2fd" d="M175.177 10.855l8.658 2.068 12.761-7.48-8.769-2.546z"></path>
<path fill="#002e4f" d="M194.167 89.525c0 0 1.387 14.966 1.387 20.208 0 0-10.895 8.494-13.565 12.937 1.145 0.87 3.409 2.028 4.895 1.983 7.27-6.943 15.247-11.897 15.247-11.897s3.442-9.986 4.515-18.441l-12.479-4.79z"></path>
<path fill="#e1f3f6" d="M201.935 90.232c2.454 0.020 4.96-0.406 7.074-1.551-0.707-2.99 0.798-11.805 2.696-16.517 0 0 1.492-3.278 0.445-4.286-3.874-3.73-7.172-3.422-8.2-3.462-3.56 3.004-10.176 11.864-9.914 23.578 1.826 1.917 5.536 2.225 7.898 2.238z"></path>
<path fill="#00396a" d="M225.97 125.209c1.42-0.393 2.781-1.047 3.651-2.212-4.208-6.825-19.638-31.888-20.469-33.852-0.020-0.052-0.039-0.111-0.059-0.164-2.264 1.224-4.967 1.649-7.591 1.551-2.284-0.085-5.588-0.406-7.454-2.1 0.006 0.118 0.006 0.242 0.013 0.36 0.321 6.544 22.027 28.355 30.566 36.698 0.465-0.066 0.923-0.17 1.341-0.281z"></path>
<path fill="#00a4e2" d="M181.164 83.446c-0.602 0-1.184-0.085-1.734-0.275-1.145-0.386-2.663-1.348-3.383-3.769-0.406-1.381 0.38-2.827 1.754-3.233s2.827 0.38 3.233 1.754c0.046 0.164 0.092 0.262 0.124 0.321 0.275 0.013 1.309-0.079 3.815-1.551 2.238-1.315 4.888-3.278 7.454-5.17 4.332-3.207 8.422-6.23 11.799-7.296 1.368-0.432 2.834 0.327 3.265 1.695s-0.327 2.834-1.695 3.265c-2.552 0.805-6.478 3.71-10.274 6.524-5.556 4.11-10.457 7.735-14.357 7.735z"></path>
<path fill="#00a4e2" d="M186.033 81.503c-0.321-1.531-0.654-3.226-1.623-4.483-2.094 1.165-2.99 1.243-3.246 1.23-0.033-0.059-0.078-0.164-0.124-0.321-0.406-1.374-1.858-2.166-3.233-1.754-1.381 0.406-2.166 1.858-1.754 3.233 0.72 2.421 2.238 3.383 3.383 3.769 0.556 0.183 1.132 0.275 1.734 0.275 1.512 0 3.174-0.55 4.967-1.453-0.039-0.17-0.072-0.334-0.105-0.497z"></path>
<path fill="#e1f3f6" d="M207.497 65.922c-0.432-1.368-1.898-2.127-3.265-1.695-3.377 1.067-7.467 4.097-11.799 7.296-2.565 1.898-5.215 3.854-7.454 5.17-0.105 0.059-0.196 0.111-0.294 0.17 0.975 1.282 2.657 7.624 2.683 7.768 2.755-1.446 15.993-11.517 18.859-14.553 0.982-1.040 1.701-2.788 1.269-4.155z"></path>
<path fill="#00a4e2" d="M177.487 81.346c-0.157 0-0.308-0.046-0.445-0.144-2.042-1.459-3.108-4.266-3.148-4.384-0.151-0.393 0.052-0.838 0.452-0.988 0.393-0.144 0.838 0.052 0.982 0.452v0c0.013 0.026 0.949 2.493 2.605 3.678 0.347 0.249 0.425 0.726 0.177 1.067-0.151 0.209-0.386 0.321-0.622 0.321z"></path>
<path fill="#00a4e2" d="M177.487 79.481c-0.242 0-0.478-0.111-0.628-0.327-0.975-1.381-1.76-4.672-1.845-5.039-0.092-0.412 0.164-0.825 0.569-0.916 0.412-0.098 0.825 0.164 0.916 0.569 0.216 0.923 0.923 3.54 1.603 4.502 0.242 0.347 0.164 0.825-0.183 1.067-0.124 0.098-0.281 0.144-0.432 0.144z"></path>
<path fill="#00a4e2" d="M178.54 79.049c-0.301 0-0.589-0.177-0.707-0.478-0.7-1.721-0.975-5.32-0.988-5.477-0.033-0.419 0.288-0.785 0.707-0.818 0.425-0.033 0.785 0.288 0.818 0.707 0.072 0.975 0.373 3.769 0.877 5.006 0.157 0.393-0.026 0.838-0.419 0.995-0.092 0.052-0.19 0.066-0.288 0.066z"></path>
<path fill="#00a4e2" d="M179.692 78.683c-0.34 0-0.654-0.229-0.739-0.576-0.484-1.871-0.039-3.776-0.026-3.854 0.098-0.412 0.51-0.667 0.923-0.569s0.667 0.51 0.569 0.923c-0.006 0.033-0.366 1.636 0.013 3.121 0.105 0.412-0.144 0.825-0.55 0.929-0.065 0.020-0.131 0.026-0.19 0.026z"></path>
<path fill="#00a4e2" d="M210.455 70.077c-0.353 0-0.707-0.079-1.047-0.236-1.224-0.576-1.747-2.035-1.165-3.259 0.602-1.276 1.695-2.585 1.819-2.736 0.87-1.034 2.415-1.165 3.449-0.288 1.034 0.87 1.165 2.415 0.294 3.449v0c-0.308 0.366-0.883 1.139-1.132 1.669-0.425 0.883-1.302 1.4-2.218 1.4z"></path>
<path fill="#0086cf" d="M210.808 68.821c0.288 0.321 0.595 0.622 0.91 0.91 0.399-0.242 0.739-0.595 0.955-1.047 0.249-0.53 0.831-1.302 1.132-1.669 0.87-1.034 0.739-2.578-0.294-3.449s-2.578-0.739-3.449 0.288c-0.046 0.059-0.249 0.295-0.51 0.641 0.020 1.544 0.183 3.148 1.256 4.326z"></path>
<path fill="#00a4e2" d="M218.844 66.118c-0.975 2.362-3.678 3.488-6.047 2.513v0c-2.362-0.975-3.488-3.678-2.513-6.047l1.224-2.971c0.975-2.362 3.684-3.488 6.047-2.513v0c2.362 0.975 3.488 3.678 2.513 6.047l-1.224 2.971z"></path>
<path fill="#00396a" d="M210.802 62.244c-0.38 1.59-2.663 1.080-3.521 0.249-1.184-1.145-1.885-4.378 0.733-4.208-1.885-2.847 4.515-5.935 5.183-2.644 0.497-0.851 1.008-1.61 2.127-1.682 0.798-0.052 2.205 0.569 2.088 1.551 1.191-0.942 2.925-0.87 4.103 0.085 0.38 0.307 1.054 0.981 0.713 1.472-0.19 0.275-1.152 0.353-1.472 0.452 0.556-0.255 2.84 0.255 2.389 1.204-0.209 0.445-1.322 0.046-1.649-0.052 0 0-0.006 0.105 0 0.098 1.217 0.667 1.721 1.348 1.577 2.86-0.065 0.7-0.399 2.016-1.224 2.114-0.425 0.052-0.916-0.216-0.91-0.661 1.021 1.014-0.425 3.737-1.708 2.395-0.504-0.523-0.262-1.407 0.216-1.858-0.759-0.438-2.408-2.748-1.237-3.37-0.55 0.013-3.089-0.851-2.277-1.577 0.216 0.844-0.838 1.943-1.669 1.505 0.517 1.132-1.008 1.97-1.943 2.016 0.576 0.72-1.197 1.577-1.734 0.53l0.216-0.478z"></path>
<path fill="#0089e0" d="M123.834 53.004c0 0-1.485-5.687 5.883-7.041l-0.563 6.832-5.32 0.209z"></path>
<path fill="#cde5e8" d="M94.294 67.368c-1.616 0-3.115-0.327-4.496-0.981-6.695-3.161-7.44-12.669-7.467-13.075-0.098-1.433 0.981-2.676 2.415-2.781 1.433-0.098 2.67 0.975 2.775 2.408 0.144 1.911 1.237 7.205 4.515 8.743 2.703 1.27 6.897-0.020 12.126-3.737 1.171-0.831 2.794-0.556 3.625 0.615s0.556 2.794-0.615 3.625c-4.849 3.449-9.162 5.183-12.879 5.183z"></path>
<path fill="#00afe2" d="M108.141 72.25c0.726-1.898 1.394-3.828 2.172-5.706-0.523-0.039-1.060-0.111-1.597-0.209-2.526-0.484-4.659-1.505-6.413-3.082-1.754-1.571-3.102-3.56-4.057-5.968s-1.505-5.15-1.662-8.219c-0.157-3.069 0.092-6.308 0.746-9.718 0.667-3.481 1.629-6.596 2.899-9.358s2.794-5.085 4.568-6.976c1.773-1.891 3.763-3.239 5.968-4.057s4.568-0.982 7.094-0.504c1.996 0.38 3.756 1.139 5.287 2.245 0.74-1.472 1.531-2.919 2.284-4.358 0.89-1.701 1.721-3.442 2.513-5.189 0.34-0.746 0.635-1.518 0.942-2.284-2.559-1.459-5.425-2.493-8.605-3.102-4.502-0.857-8.743-0.7-12.715 0.491-3.972 1.184-7.552 3.167-10.732 5.955s-5.883 6.282-8.101 10.49c-2.218 4.208-3.822 8.906-4.81 14.089s-1.23 10.143-0.72 14.868c0.51 4.725 1.734 8.972 3.665 12.734s4.528 6.93 7.781 9.495c3.030 2.389 6.603 4.037 10.719 4.947 0.981-2.172 1.924-4.358 2.775-6.583z"></path>
<path fill="#006091" d="M143.374 33.137c-0.51-4.725-1.734-8.972-3.665-12.734s-4.528-6.924-7.781-9.495c-0.877-0.687-1.799-1.315-2.768-1.885-0.308 0.766-0.595 1.531-0.942 2.277-0.805 1.747-1.616 3.488-2.513 5.189-0.759 1.453-1.564 2.905-2.303 4.384 0.262 0.203 0.523 0.412 0.772 0.635 1.747 1.57 3.115 3.566 4.103 5.981s1.564 5.144 1.728 8.18c0.164 3.036-0.092 6.295-0.752 9.77-0.654 3.409-1.616 6.518-2.892 9.312s-2.82 5.137-4.627 7.015c-1.806 1.878-3.815 3.233-6.020 4.044-1.629 0.602-3.318 0.851-5.078 0.752-0.864 2.055-1.597 4.168-2.382 6.249-0.779 2.055-1.662 4.070-2.565 6.079 0.203 0.039 0.406 0.085 0.609 0.124 4.502 0.857 8.736 0.7 12.708-0.491 3.972-1.184 7.552-3.167 10.732-5.955 3.187-2.788 5.883-6.282 8.101-10.49s3.822-8.9 4.81-14.082c0.995-5.176 1.237-10.136 0.726-14.861z"></path>
<path fill="#0076ad" d="M114.247 81.719c-4.502-0.857-8.383-2.572-11.635-5.137-3.259-2.565-5.85-5.732-7.781-9.495s-3.154-8.010-3.665-12.734c-0.51-4.725-0.268-9.685 0.72-14.868s2.591-9.881 4.81-14.082c2.218-4.208 4.914-7.702 8.101-10.49 3.18-2.788 6.76-4.771 10.732-5.955s8.213-1.348 12.715-0.491c4.502 0.857 8.376 2.572 11.635 5.137s5.85 5.732 7.781 9.495c1.93 3.763 3.154 8.010 3.665 12.734 0.51 4.731 0.268 9.685-0.72 14.868s-2.591 9.881-4.81 14.082c-2.218 4.208-4.914 7.702-8.101 10.49-3.18 2.788-6.76 4.77-10.732 5.955-3.979 1.191-8.213 1.355-12.715 0.491zM116.668 69.037c2.454 0.471 4.784 0.294 6.989-0.523 2.205-0.811 4.214-2.166 6.020-4.044s3.351-4.221 4.626-7.015c1.276-2.794 2.238-5.896 2.892-9.312 0.667-3.481 0.916-6.734 0.752-9.77s-0.739-5.759-1.728-8.173c-0.988-2.415-2.356-4.411-4.11-5.981s-3.854-2.591-6.308-3.063c-2.526-0.484-4.888-0.314-7.094 0.497-2.205 0.818-4.195 2.166-5.968 4.057-1.773 1.885-3.298 4.214-4.568 6.976s-2.238 5.883-2.899 9.358c-0.654 3.409-0.896 6.649-0.746 9.718 0.157 3.069 0.707 5.811 1.662 8.219s2.303 4.398 4.057 5.968c1.76 1.577 3.894 2.605 6.419 3.089z"></path>
<path fill="#00396a" d="M160.139 43.522l0.196 9.56c0 0-2.729 2.447-5.176 0l0.903-10.771 4.077 1.211z"></path>
<path fill="#002e4f" d="M148.87 119.811c-0.157-0.124-1.224-0.622-1.368-0.746-0.569 0.857-0.975 1.328-1.662 2.042 1.688 1.472 1.25 3.252 1.25 3.252s-1.191 1.027-1.662 1.256c-1.485 0.733-4.234 1.754-4.234 1.754l6.91 0.543 5.124-5.248c-1.806-1.014-3.2-1.937-4.358-2.853z"></path>
<path fill="#002e4f" d="M121.798 120.183c-1.099-0.19-2.493 0.648-3.383 0-0.209 1.924-0.17 2.971-0.17 2.971l-10.228 4.214h13.061c0.118-1.394-0.131-2.729 0.059-4.018 0.092-0.654 0.537-2.526 0.661-3.167z"></path>
<path fill="#cde5e8" d="M133.702 73.775l-11.556 21.955c0 0 4.679 3.959 9.292 5.281l8.664-25.868-6.4-1.368z"></path>
<path fill="#002e4f" d="M146.351 121.656c0.694-0.707 1.263-1.557 1.832-2.415-2.99-2.559-4.45-5.202-8.514-9.744-1.682-1.878 2.768-12.643 3.854-14.449 1.943-3.246 2.245-5.595 3.763-11.151l-11.282 4.214c-2.683 9.619-5.817 19.245-2.677 23.833 3.318 4.855 9.201 8.762 12.041 10.712 0.098 0.079 0.883-1.073 0.982-1.001z"></path>
<path fill="#00a4e2" d="M127.347 51.879c-0.157 0-0.308-0.046-0.445-0.144-0.34-0.249-0.419-0.726-0.177-1.067 0.909-1.27 1.106-2.31 1.112-2.317 0.079-0.412 0.471-0.694 0.89-0.615 0.412 0.072 0.694 0.465 0.622 0.883-0.013 0.052-0.249 1.374-1.374 2.945-0.151 0.203-0.386 0.314-0.628 0.314z"></path>
<path fill="#f6ee9e" d="M146.482 86.228c3.357-9.22 6.23-23.695 7.303-29.467-0.602-0.249-1.191-0.438-1.656-0.569-0.995-0.275-2.192-0.602-3.213-0.281-0.517 0.164-0.982 0.432-1.433 0.713-0.419 1.256-0.589 2.31-0.589 2.31s-7.211 13.794-11.916 23.198c3.992 0.896 7.892 2.205 11.504 4.097z"></path>
<path fill="#00396a" d="M134.84 82.412c0 0 0 0 0 0-0.419 0.831-0.818 1.629-1.184 2.376 0 0-0.006 0-0.006 0-0.923 1.636-1.924 3.154-2.886 4.607-9.286 13.997-12.787 25.155-13.408 30.436 0.883 0.694 4.24 1.086 5.353 1.276 1.714-8.749 6.171-14.338 14.154-20.94 2.67-2.212 4.672-5.019 6.426-7.349 1.047-1.387 2.088-3.612 3.082-6.315-3.612-1.891-7.532-3.2-11.53-4.090z"></path>
<path fill="#00a4e2" d="M125.829 86.26c-1.080 0-2.088-0.674-2.461-1.747-0.471-1.361 0.249-2.84 1.603-3.311 3.154-1.093 7.997-5.412 11.262-10.038 6.622-9.391 11.275-14.599 11.471-14.815 0.962-1.067 2.605-1.158 3.671-0.196 1.067 0.955 1.158 2.605 0.196 3.671v0c-0.046 0.052-4.659 5.222-11.092 14.344-3.22 4.568-8.919 10.261-13.808 11.956-0.268 0.092-0.556 0.138-0.844 0.138z"></path>
<path fill="#00a4e2" d="M151.959 57.618c-0.059 0-0.118 0-0.183-0.007-1.348-0.098-2.362-1.27-2.264-2.624 0.105-1.407 0.648-3.023 0.713-3.206 0.438-1.276 1.832-1.957 3.115-1.511 1.276 0.438 1.957 1.832 1.518 3.108-0.157 0.452-0.412 1.381-0.458 1.963-0.098 1.296-1.171 2.277-2.441 2.277z"></path>
<path fill="#0086cf" d="M152.672 55.039c0.432 0.497 0.903 0.942 1.407 1.348 0.177-0.307 0.288-0.654 0.314-1.034 0.039-0.582 0.301-1.518 0.458-1.963 0.438-1.276-0.242-2.67-1.518-3.108-1.060-0.366-2.199 0.039-2.807 0.916 0.229 1.374 1.361 2.932 2.146 3.841z"></path>
<path fill="#00a4e2" d="M158.981 49.739c-0.059 2.552-2.172 4.581-4.731 4.522v0c-2.559-0.059-4.581-2.179-4.522-4.731l0.072-3.213c0.059-2.559 2.179-4.581 4.731-4.522v0c2.559 0.059 4.581 2.172 4.522 4.731l-0.072 3.213z"></path>
<path fill="#00a4e2" d="M122.158 85.547c-1.067 0-2.29-0.288-3.658-0.864-0.386-0.164-0.569-0.615-0.406-1.001 0.164-0.393 0.615-0.576 1.001-0.412 2.016 0.844 3.619 0.969 4.64 0.353 0.36-0.216 0.831-0.105 1.053 0.262 0.216 0.36 0.105 0.831-0.262 1.047-0.681 0.406-1.466 0.615-2.369 0.615z"></path>
<path fill="#00a4e2" d="M123.074 86.659c-1.217 0-2.192-0.236-3.305-0.504l-0.347-0.085c-0.412-0.098-0.667-0.51-0.563-0.923 0.098-0.412 0.51-0.667 0.923-0.563l0.347 0.085c1.858 0.452 3.082 0.746 5.798 0.046 0.412-0.105 0.825 0.144 0.929 0.55 0.105 0.412-0.144 0.825-0.55 0.936-1.309 0.327-2.336 0.458-3.233 0.458z"></path>
<path fill="#00a4e2" d="M122.106 84.035c-2.402 0-4.051-1.479-4.129-1.551-0.314-0.288-0.334-0.766-0.046-1.080 0.288-0.308 0.766-0.334 1.080-0.052 0.079 0.072 1.839 1.623 4.201 1.008 0.412-0.105 0.825 0.144 0.929 0.55s-0.144 0.825-0.55 0.929c-0.517 0.144-1.014 0.196-1.485 0.196z"></path>
<path fill="#00a4e2" d="M123.709 83.217c-0.033 0-0.059 0-0.092-0.007-2.605-0.308-3.665-2.179-3.71-2.264-0.203-0.373-0.066-0.838 0.301-1.040s0.831-0.072 1.034 0.294c0.033 0.066 0.759 1.276 2.546 1.485 0.419 0.052 0.72 0.432 0.674 0.851-0.039 0.393-0.366 0.681-0.752 0.681z"></path>
<path fill="#00a4e2" d="M132.851 52.978c-0.039 0-0.085-0.007-0.124-0.013-1.269-0.209-4.731-0.752-5.536-0.752-0.425 0-0.766-0.34-0.766-0.766s0.34-0.766 0.766-0.766c1.080 0 5.307 0.694 5.785 0.779 0.419 0.072 0.7 0.465 0.628 0.877-0.059 0.38-0.38 0.641-0.752 0.641z"></path>
<path fill="#00a4e2" d="M132.36 54.588c-0.065 0-0.137-0.007-0.203-0.026-0.039-0.013-3.678-1.001-5.366-1.099-0.425-0.026-0.746-0.386-0.72-0.805 0.026-0.425 0.386-0.752 0.805-0.72 1.852 0.105 5.529 1.106 5.687 1.145 0.406 0.111 0.648 0.53 0.536 0.942-0.092 0.34-0.399 0.563-0.739 0.563z"></path>
<path fill="#00a4e2" d="M131.994 56.27c-0.078 0-0.157-0.013-0.236-0.033-3.442-1.112-4.293-1.178-4.751-1.217-0.196-0.013-0.386-0.033-0.635-0.098-0.406-0.111-0.654-0.523-0.543-0.936 0.111-0.406 0.53-0.654 0.936-0.543 0.124 0.033 0.209 0.039 0.366 0.052 0.556 0.046 1.485 0.118 5.098 1.282 0.399 0.131 0.622 0.563 0.491 0.962-0.105 0.321-0.399 0.53-0.726 0.53z"></path>
<path fill="#00a4e2" d="M130.482 57.493c-0.020 0-0.039 0-0.052 0-3.449-0.249-3.593-2.12-3.599-2.336l1.531-0.033c0 0 0-0.020-0.006-0.052 0 0.007 0.157 0.746 2.179 0.89 0.419 0.026 0.739 0.393 0.707 0.818-0.026 0.406-0.36 0.713-0.759 0.713z"></path>
<path fill="#00a4e2" d="M127.59 56.577c0 0-0.661-0.307-1.701-0.307-0.87 0-2.055-1.479-2.055-3.010 0 0-0.425-4.515 4.345-2.474l-0.589 5.791z"></path>
<path fill="#cde5e8" d="M142.608 70.005l-6.688 32.916c0 0 10.352 2.493 16.707-1.165l1.603-45.735c0.006 0-7.1-2.487-11.622 13.984z"></path>
<path fill="#e1f3f6" d="M144.159 88.119l6.406-0.347c0 0 0.151 9.796-3.671 9.41 0 0-5.235 1.145-2.736-9.063z"></path>
<path fill="#e1f3f6" d="M152.201 55.242c-0.7-0.628-1.61-0.975-2.552-0.975-1.086 0-2.127 0.465-2.847 1.27-0.196 0.216-4.875 5.451-11.556 14.926-0.438 0.622-0.916 1.256-1.433 1.885l-0.681 0.831 0.739 0.779c0.792 0.831 1.616 1.649 2.415 2.428 0.432 0.425 0.87 0.851 1.296 1.282l0.942 0.949 0.857-1.027c0.766-0.916 1.472-1.832 2.107-2.722 6.393-9.063 10.954-14.181 11-14.233 1.413-1.564 1.282-3.985-0.288-5.392z"></path>
<path fill="#f8fdff" d="M132.046 73.101l2.585-2.877 6.732 6.048-2.585 2.877-6.732-6.048z"></path>
<path fill="#00396a" d="M145.081 51.571l5.883 2.303c0 0 2.5-12.172 0.674-13.997 0 0.007-6.557-0.615-6.557 11.694z"></path>
<path fill="#00396a" d="M151.979 42.004c0.209 0.307 4.77 3.357 8.357 2.513 0 0-0.615-5.379-8.978-4.607l0.622 2.094z"></path>
<path fill="#0086cf" d="M81.076 52.219c-0.059 0-0.118 0-0.183-0.007-1.348-0.098-2.362-1.27-2.264-2.618 0.105-1.407 0.648-3.023 0.713-3.206 0.438-1.276 1.832-1.957 3.115-1.518 1.276 0.438 1.957 1.832 1.518 3.108-0.157 0.452-0.412 1.381-0.458 1.963-0.098 1.296-1.171 2.277-2.441 2.277z"></path>
<path fill="#002e4f" d="M79.623 120.171c4.057 1.871 7.382 1.832 7.65 1.871 2.644-4.705 10.608-17.446 3.364-27.903l-10.248-5.51c0 0 10.248 10.693-0.766 31.541z"></path>
<path fill="#002e4f" d="M84.93 124.332c0 0 0.949-1.924 1.688-3.213-0.556-0.066-3.036-0.17-4.057-0.563-0.955 1.957-3.043 4.816-4.515 6.779h13.775l-6.891-3.004z"></path>
<path fill="#00396a" d="M101.964 94.754c-1.714-3.324-14.154-13.336-15.28-19.088-0.098-0.51-0.183-1.034-0.262-1.564-1.996 1.053-4.594 1.341-6.649 1.446-2.33 0.118-3.724 0.262-5.981-0.838 0.19 3.566-0.393 7.015 1.695 10.627 4.129 7.172 17.858 13.317 19.389 15.686 3.017 4.679 4.064 14.828 5.091 21.019 1.616 0 5.451-0.072 7.022-0.628-0.523-3.174 0.34-16.248-5.026-26.66z"></path>
<path fill="#002e4f" d="M106.25 123.776c0 0-0.445-1.813-0.582-2.657-1.577 0.556-2.493-0.007-4.116 0 0.249 1.538 0.066 4.404 0.203 6.092h13.061l-8.566-3.436z"></path>
<path fill="#cde5e8" d="M79.872 77.426c1.989-0.092 6.164-0.648 7.84-2.323-0.34-2.729-1.564-7.12-1.132-10.653 1.459-11.982-4.397-15.574-4.397-15.574s-2.696-1.885-4.875 0.366c-3.292 3.39-6.505 12.977-6.184 27.151 2.277 1.171 6.367 1.139 8.749 1.034z"></path>
<path fill="#00a4e2" d="M109.882 81.208c-0.196 0-0.393-0.020-0.589-0.066-9.43-2.186-17.413-7.84-23.093-16.34-4.254-6.367-5.726-12.087-5.785-12.322-0.353-1.394 0.491-2.807 1.885-3.161s2.808 0.491 3.154 1.885c0.026 0.105 1.381 5.248 5.163 10.856 4.993 7.401 11.668 12.119 19.841 14.010 1.4 0.321 2.271 1.721 1.943 3.121-0.268 1.204-1.335 2.016-2.519 2.016z"></path>
<path fill="#e1f3f6" d="M104.15 73.388c-5.196-2.461-9.619-6.361-13.147-11.589-3.737-5.543-5.091-10.66-5.104-10.712-0.347-1.361-1.564-2.31-2.965-2.31-0.249 0-0.504 0.033-0.752 0.092-0.792 0.196-1.459 0.694-1.878 1.4-0.419 0.7-0.543 1.525-0.34 2.317l0.013 0.059c0.399 1.754 2.009 7.911 5.837 13.637 4.581 6.858 10.791 11.988 17.969 14.841 0.052 0.020 0.111 0.033 0.17 0.033 0.092 0 0.183-0.026 0.255-0.079 0.124-0.085 0.203-0.229 0.203-0.38v-6.891c0-0.177-0.098-0.34-0.262-0.419z"></path>
<path fill="#00a4e2" d="M111.812 81.392c-0.831 0-1.721-0.092-2.65-0.281-0.412-0.085-0.681-0.484-0.602-0.903 0.085-0.412 0.484-0.681 0.903-0.602 2.277 0.458 4.182 0.288 5.647-0.491 0.373-0.196 0.838-0.059 1.034 0.314s0.059 0.838-0.314 1.034c-1.158 0.622-2.5 0.929-4.018 0.929z"></path>
<path fill="#00a4e2" d="M111.924 79.684c-0.366 0-0.74-0.026-1.119-0.079-0.419-0.059-0.707-0.452-0.648-0.87s0.445-0.707 0.87-0.648c2.448 0.36 4.712-0.91 4.738-0.923 0.366-0.209 0.831-0.085 1.040 0.281s0.085 0.831-0.281 1.040c-0.098 0.059-2.107 1.198-4.6 1.198z"></path>
<path fill="#00a4e2" d="M111.243 78.172c-0.118 0-0.242-0.007-0.366-0.013-0.425-0.026-0.74-0.386-0.713-0.811s0.393-0.74 0.811-0.713c1.813 0.111 2.761-0.988 2.768-1.001 0.268-0.327 0.746-0.38 1.073-0.111s0.38 0.746 0.111 1.073c-0.052 0.072-1.302 1.577-3.684 1.577z"></path>
<path fill="#00a4e2" d="M108.599 76.883c-0.425 0-0.766-0.34-0.766-0.766 0-0.419 0.34-0.766 0.759-0.766 0.066 0 1.577-0.033 2.441-1.282 0.242-0.347 0.72-0.432 1.067-0.19s0.432 0.72 0.19 1.067c-1.328 1.917-3.599 1.937-3.691 1.937z"></path>
<path fill="#00a4e2" d="M106.093 59.614c-0.236 0-0.471-0.111-0.622-0.321-1.126-1.571-1.368-2.892-1.374-2.945-0.072-0.419 0.209-0.812 0.622-0.883s0.811 0.209 0.883 0.622c0 0.007 0.203 1.047 1.112 2.317 0.249 0.347 0.17 0.825-0.177 1.067-0.131 0.098-0.288 0.144-0.445 0.144z"></path>
<path fill="#00a4e2" d="M106.257 59.954c-0.046 0-0.098-0.007-0.144-0.013-1.675-0.321-4.993-0.327-5.026-0.327-0.425 0-0.766-0.34-0.766-0.766s0.34-0.766 0.766-0.766c0.144 0 3.501 0.007 5.314 0.353 0.412 0.078 0.687 0.478 0.609 0.896-0.072 0.366-0.393 0.622-0.752 0.622z"></path>
<path fill="#00a4e2" d="M100.662 61.551c-0.38 0-0.713-0.281-0.759-0.667-0.052-0.419 0.249-0.805 0.667-0.851 0.484-0.059 4.784-0.582 6.171-0.34 0.419 0.072 0.694 0.471 0.622 0.89s-0.471 0.694-0.89 0.622c-0.877-0.157-3.972 0.131-5.719 0.347-0.026-0.007-0.059 0-0.092 0z"></path>
<path fill="#00a4e2" d="M101.656 63.278c-0.36 0-0.681-0.255-0.752-0.622-0.079-0.419 0.19-0.818 0.609-0.896 1.852-0.36 2.349-0.517 3.246-0.805 0.419-0.138 0.942-0.301 1.721-0.53 0.406-0.118 0.831 0.118 0.949 0.523s-0.118 0.831-0.523 0.949c-0.759 0.222-1.25 0.38-1.682 0.517-0.923 0.294-1.479 0.478-3.422 0.851-0.046 0.007-0.098 0.013-0.144 0.013z"></path>
<path fill="#00a4e2" d="M103.305 64.495c-0.366 0-0.687-0.262-0.752-0.635-0.072-0.419 0.209-0.812 0.628-0.883 2.48-0.425 2.971-1.348 2.978-1.361 0.131-0.399 0.563-0.622 0.969-0.484 0.399 0.131 0.622 0.563 0.484 0.968-0.098 0.294-0.759 1.806-4.168 2.389-0.052 0-0.092 0.007-0.138 0.007z"></path>
<path fill="#00a4e2" d="M106.257 63.573l-0.582-6.236c0 0 2.736 0.196 2.729 3.063-0.007 0.962-0.281 2.029-2.146 3.174z"></path>
<path fill="#00a4e2" d="M89.033 43.254c0.687 2.611-0.864 5.288-3.475 5.974v0c-2.611 0.694-5.287-0.864-5.981-3.475l-0.87-3.285c-0.687-2.611 0.864-5.288 3.475-5.981v0c2.611-0.694 5.287 0.864 5.981 3.475l0.87 3.292z"></path>
<path fill="#00396a" d="M88.575 41.52c-0.373 1.034-0.896 2.061-1.708 2.761-1.97 1.701-4.986 2.16-7.382 1.139l0.092 0.34c0.694 2.611 3.37 4.169 5.981 3.475 2.611-0.687 4.168-3.37 3.475-5.974l-0.458-1.741z"></path>
<path fill="#00396a" d="M79.564 45.577c-1.839-1.178-3.822-5.66-0.916-6.642 1.793-0.609 1.073 4.928 1.073 6.492l-0.157 0.151z"></path>
<path fill="#00396a" d="M78.092 39.301c-2.218-1.61 0.53-6.158 6.014-6.158 3.39 0 3.364 2.598 1.021 3.998-1.943 1.165-4.96 0.484-6.426 2.467l-0.609-0.307z"></path>
<path fill="#00396a" d="M88.575 42.528c-0.779-1.178-2.31-3.566-2.906-4.908-0.38-0.857-0.896-2.31 0.818-1.276 1.433 0.864 2.212 3.92 2.074 5.464l0.013 0.72z"></path>
<path fill="#006091" d="M49.816 53.403c-0.844 0.779-1.773 1.511-2.532 2.382l-11.046 23.074 8.219-10.614 8.73-18.055c-1.112 1.080-2.231 2.16-3.37 3.213z"></path>
<path fill="#006091" d="M43.265 49.614c0.798-1.093 1.571-2.382 2.487-3.514l-19.337-9.436-18.343 1.839 32.137 14.822c1.053-1.204 2.114-2.421 3.056-3.71z"></path>
<path fill="#00afe2" d="M46.020 46.238c-1.027 1.282-1.858 2.801-2.847 3.998-0.883 1.080-1.773 2.153-2.683 3.213l14.612 6.74 5.307-6.93-14.39-7.022z"></path>
<path fill="#0076ad" d="M24.020 73.009l5.667-11.838-29.683-14.207 4.771-9.96 48.889-28.793 13.343 6.387-19.618 40.958 8.082 3.867-5.484 11.458-8.082-3.867-5.667 11.838-12.217-5.844zM46.014 27.071l-0.752-0.36-26.149 15.313 16.065 7.689 10.837-22.642z"></path>
<path fill="#006091" d="M55.47 59.424l4.934-6.164-3.874 8.599-6.734 9.403z"></path>
<path fill="#006091" d="M53.572 49.85l19.278-42.261-5.857 7.008-19.605 40.958c0.543-0.523 5.876-5.399 6.184-5.706z"></path>
<path fill="#009ee7" d="M4.768 37.005l8.71-7.584 47.77-27.419-7.591 6.21z"></path>
<path fill="#00d2fd" d="M53.657 8.211l13.336 6.387 5.857-7.008-11.602-5.588z"></path>
<path fill="#00a4e2" d="M37.284 39.079c-1.642-1.165-2.768-0.654-3.56-0.536-0.864 0.131-1.499-0.34-1.505-0.34-0.353-0.229-0.831-0.131-1.060 0.222s-0.131 0.831 0.223 1.060c0.033 0.026 0.707 0.445 1.871 0.752-1.27 1.158-2.572 2.559-2.644 2.637-0.288 0.307-0.268 0.792 0.046 1.080 0.144 0.138 0.334 0.203 0.517 0.203 0.209 0 0.412-0.085 0.563-0.249 0.013-0.013 0.916-0.988 1.93-1.963-0.936 1.171-1.819 2.395-1.976 2.618-0.249 0.347-0.17 0.825 0.177 1.067 0.137 0.098 0.288 0.144 0.445 0.144 0.236 0 0.471-0.111 0.622-0.321 0.497-0.7 1.211-1.642 1.885-2.493-0.249 0.497-0.569 1.060-1.211 2.087-0.222 0.36-0.111 0.831 0.249 1.053 0.124 0.078 0.268 0.118 0.406 0.118 0.255 0 0.504-0.131 0.654-0.36 0.262-0.425 0.471-0.772 0.654-1.073-0.131 0.334-0.020 0.72 0.294 0.923 0.131 0.085 0.275 0.124 0.419 0.124 0.249 0 0.497-0.124 0.641-0.347 0.72-1.106 1.067-2.002 1.217-2.709l0.033 0.026c0.406-2.146-0.111-3.167-0.89-3.724zM35.753 44.465c0.255-0.445 0.425-0.779 0.589-1.119-0.138 0.327-0.334 0.7-0.589 1.119z"></path>
<path fill="#00396a" d="M13.851 47.756c-2.421-0.138-5.935 4.607-2.343 5.896-3.252-0.078-4.051 4.522-1.067 5.798-5.229-1.014-4.62 5.759-2.146 8.206-1.675-0.268-3.37 1.335-3.115 3.076 0.255 1.754 0.949 4.188 5.294 5.49s6.995-1.139 9.162-3.442c1.381 2.827 8.219-0.995 7.467-4.378 2.578 0.916 4.895-2.016 4.947-4.352 0.052-2.284-1.551-4.025-3.069-5.51 1.073-0.981 1.276-2.801 0.995-4.188-0.471-2.31-3.364-2.539-3.364-4.378 0-0.641 0.124-2.644-0.425-3.521-0.87-1.394-2.389-2.781-4.299-2.094-8.036-3.802-8.036 3.396-8.036 3.396z"></path>
<path fill="#002e4f" d="M18.529 122.042c-2.205-0.386-2.565-0.275-4.744-0.805l-5.052 6.171h19.586l-11.373-3.063 1.584-2.303z"></path>
<path fill="#002e4f" d="M54.998 123.809l-1.158-1.518c-1.047 0.674-2.133 1.256-3.311 1.662l3.095 3.455h11.478l-10.104-3.599z"></path>
<path fill="#002e4f" d="M11.711 122.062c2.192 0.537 4.391 1.099 6.609 1.472l16.177-19.9-2.755-7.905-11.328-13.055 3.259 18.506-11.962 20.882z"></path>
<path fill="#00396a" d="M33.711 77.197c-4.437-1.178-10.457 0.314-14.77 1.943 0 0 2.65 10.542 4.384 13.69 5.065 9.155 26.961 32.013 26.961 32.013 1.204-0.406 3.521-2.107 4.581-2.794l-21.156-44.852z"></path>
<path fill="#cde5e8" d="M18.353 83.257c4.286-1.61 12.879-4.326 17.296-3.219 0 0-5.844-13.722-8.494-16.746-1.793-2.042-11.563-7.794-11.563-0.275 0 10.293 2.761 20.24 2.761 20.24z"></path>
<path fill="#00a4e2" d="M22.161 62.375c-0.059 0.020-0.111 0.039-0.177 0.052-1.302 0.353-2.65-0.419-3.004-1.728-0.366-1.368-0.386-3.069-0.386-3.259-0.006-1.355 1.086-2.454 2.441-2.461s2.454 1.086 2.461 2.434c0.006 0.478 0.066 1.44 0.216 2.009 0.334 1.25-0.353 2.532-1.551 2.951z"></path>
<path fill="#0086cf" d="M23.791 59.954c-0.006-0.177-0.033-0.353-0.078-0.53-0.151-0.563-0.216-1.531-0.216-2.009-0.006-1.348-1.106-2.441-2.461-2.434s-2.447 1.106-2.441 2.461c0 0.033 0 0.105 0.006 0.209 1.204 1.361 3.193 2.002 5.189 2.303z"></path>
<path fill="#00a4e2" d="M26.186 52.612c0.792 2.434-0.543 5.045-2.971 5.831v0c-2.434 0.792-5.045-0.543-5.831-2.971l-0.995-3.056c-0.792-2.434 0.543-5.045 2.971-5.831v0c2.434-0.792 5.045 0.543 5.831 2.971l0.995 3.056z"></path>
<path fill="#00a4e2" d="M53.454 50.158c-0.098-0.078-0.209-0.131-0.327-0.157 0.111-0.124 0.229-0.255 0.373-0.406 0.288-0.314 0.268-0.792-0.046-1.080-0.039-0.033-0.078-0.066-0.124-0.092 0.216-0.307 0.177-0.733-0.105-0.995-0.216-0.203-0.523-0.255-0.785-0.157 0.347-0.353 0.563-0.595 0.589-0.628 0.281-0.314 0.249-0.798-0.066-1.080s-0.798-0.249-1.080 0.072c-0.020 0.020-1.682 1.898-3.39 2.873-0.739-1.119-1.741-1.518-1.793-1.538-0.393-0.151-0.825 0.046-0.981 0.438-0.151 0.393 0.039 0.831 0.432 0.988 0.033 0.013 0.622 0.262 1.073 0.962-0.066 0.17-0.138 0.419-0.177 0.707-11.262 15.234-26.189 9.829-26.869 9.574-1.335-0.51-2.84 0.151-3.357 1.485-0.517 1.341 0.144 2.847 1.485 3.364 0.183 0.072 3.835 1.459 9.050 1.459 1.047 0 2.16-0.059 3.318-0.19 5.621-0.654 13.932-3.887 20.581-12.453 0.111-0.066 0.262-0.157 0.465-0.307 0.138-0.085 0.275-0.183 0.419-0.301l-0.020-0.013c0.393-0.334 0.877-0.798 1.427-1.453 0.275-0.321 0.229-0.805-0.092-1.073z"></path>
<path fill="#e1f3f6" d="M32.723 59.679l-0.635 0.138c-1.544 0.334-3.148 0.504-4.757 0.504-3.946 0-6.688-0.995-6.989-1.106-0.353-0.138-0.72-0.203-1.093-0.203-1.276 0-2.395 0.766-2.853 1.957-0.294 0.759-0.347 1.629 0.052 2.343 1.492 2.65 5.595 3.723 10.909 3.723 1.132 0 2.264-0.066 3.37-0.19 0.674-0.079 1.387-0.196 2.114-0.347l0.445-0.118c0 0-0.635-1.93-0.772-3.894-0.052-0.766 0.209-2.807 0.209-2.807z"></path>
<path fill="#00396a" d="M16.285 54.876c1.61-1.021 2.16-2.932 1.983-4.849 1.407 0.949 2.526 0.366 3.403-1.256 2.67 3.743 6.74-1.826 1.191-3.841-4.437-1.61-8.789 2.775-7.65 7.192l1.073 2.755z"></path>
</svg>
