<svg xmlns="http://www.w3.org/2000/svg" xmlns:xlink="http://www.w3.org/1999/xlink" width="147" height="29" stroke="#000" stroke-linecap="round" stroke-linejoin="round" fill="#fff" fill-rule="evenodd"><g stroke="none"><rect height="28" rx="4" width="146" fill="#001e36"/><g fill-rule="nonzero"><path d="M10.1 5.5h11.3a3.1 3.1 0 0 1 3.1 3.1v10.86a3.1 3.1 0 0 1-3.1 3.1H10.1a3.1 3.1 0 0 1-3.1-3.1V8.6a3.1 3.1 0 0 1 3.1-3.1z"/><path d="M10.94 17.47V9.96c0-.05.02-.08.07-.08h.41l.56-.02.63-.01.66-.01c.6 0 1.1.07 1.51.23a2.5 2.5 0 0 1 .97.59c.24.24.42.52.53.84.11.3.17.62.17.94 0 .63-.14 1.15-.43 1.56-.3.4-.7.71-1.18.89-.49.18-1.04.24-1.64.24h-.36c-.08-.01-.18-.01-.32-.01v2.34c.01.05-.03.09-.08.1h-1.41c-.06 0-.09-.03-.09-.09zm1.59-6.18v2.45l.28.02h.39a2.7 2.7 0 0 0 .84-.14c.23-.06.44-.2.6-.38.15-.18.22-.43.22-.75.01-.23-.05-.46-.16-.65-.13-.19-.3-.34-.52-.42-.26-.11-.56-.15-.86-.14h-.49l-.3.01zM21 13.3c-.22-.12-.45-.2-.7-.25-.27-.06-.54-.1-.81-.1-.15 0-.3.02-.44.05-.1.03-.18.08-.23.15-.03.06-.06.13-.06.2 0 .06.03.13.08.19.06.08.15.14.24.19a6 6 0 0 0 .52.24 5.6 5.6 0 0 1 1.13.54c.24.15.43.35.57.6.12.24.18.49.17.75.01.35-.1.69-.29.97-.2.29-.48.52-.81.65-.36.15-.8.24-1.32.24a4.6 4.6 0 0 1-.99-.1c-.26-.04-.51-.12-.75-.23-.05-.03-.08-.08-.08-.14v-1.27c0-.02.01-.05.03-.07.02-.01.05 0 .07.01.28.17.58.29.9.36.28.07.57.11.86.11a1.5 1.5 0 0 0 .61-.1c.11-.06.19-.18.19-.31 0-.1-.05-.2-.17-.29-.12-.1-.36-.21-.72-.34-.37-.14-.71-.31-1.03-.53-.23-.16-.42-.37-.55-.62-.12-.23-.18-.49-.17-.74 0-.32.08-.62.25-.89.18-.29.45-.52.76-.67.34-.17.77-.25 1.29-.25.3 0 .61.02.91.06.21.03.43.09.62.17.03.01.06.04.08.07 0 .03.01.06.01.08v1.19c0 .03-.01.06-.04.08-.06.01-.1.01-.13 0z" fill="#001e36"/></g><path d="M39.68 18.29l-.64-1.9H35.7l-.64 1.9h-2.02l3.44-9.24h1.77l3.45 9.24h-2.02zm-2.32-6.9l-1.15 3.46h2.31l-1.16-3.46zm4.8 3.42q0-1.61.72-2.56.72-.96 1.97-.96 1 0 1.66.75v-3.5h1.84v9.75h-1.66l-.09-.73q-.68.86-1.76.86-1.21 0-1.95-.96-.73-.95-.73-2.65zm1.83.13q0 .96.34 1.48.34.51.98.51.85 0 1.2-.72V13.5q-.34-.71-1.19-.71-1.33 0-1.33 2.15z"/><use xlink:href="#B"/><path d="M63.31 14.82v.1q0 1.65-.71 2.57-.7.93-1.96.93-1.12 0-1.79-.86l-.08.73h-1.65V8.54h1.83v3.5q.64-.75 1.67-.75 1.26 0 1.97.93.72.92.72 2.6zm-1.84-.03q0-1.04-.33-1.52-.33-.48-.98-.48-.88 0-1.21.71v2.71q.34.73 1.22.73.89 0 1.17-.88.13-.42.13-1.27zm6.13 3.62q-1.51 0-2.46-.92-.95-.93-.95-2.47v-.18q0-1.04.4-1.85.4-.82 1.13-1.26.74-.44 1.68-.44 1.4 0 2.21.89.81.89.81 2.52v.75h-4.37q.09.67.54 1.08.44.4 1.13.4 1.06 0 1.66-.76l.9 1q-.42.59-1.12.92-.7.32-1.56.32zm-.21-5.63q-.55 0-.89.36-.34.37-.43 1.06h2.55v-.15q-.01-.61-.33-.94-.32-.33-.9-.33zm11.01 2.26h-1.67v3.25h-1.9V9.05h3.61q1.04 0 1.83.38.79.38 1.21 1.08.43.7.43 1.6 0 1.36-.93 2.14-.93.79-2.58.79zm-1.67-4.45v2.9h1.71q.75 0 1.15-.35.39-.36.39-1.02 0-.68-.4-1.1-.4-.41-1.1-.43h-1.75z"/><use xlink:href="#C"/><use xlink:href="#B" x="40.59"/><path d="M98.08 9.73h1.84v1.69h1.17v1.34h-1.17v3.43q0 .38.14.55.15.16.56.16.31 0 .54-.04v1.39q-.54.16-1.11.16-1.93 0-1.97-1.95v-3.7h-1v-1.34h1V9.73z"/><use xlink:href="#B" x="52.14"/><path d="M112.99 16.39q0-.34-.33-.53-.34-.2-1.07-.35-2.45-.51-2.45-2.08 0-.91.75-1.53.76-.61 1.99-.61 1.31 0 2.09.62.78.61.78 1.6h-1.83q0-.4-.25-.66-.26-.25-.8-.25-.46 0-.72.21-.25.21-.25.53 0 .3.29.49.29.19.97.33.69.13 1.16.3 1.45.54 1.45 1.85 0 .94-.8 1.52-.81.58-2.09.58-.86 0-1.53-.31-.67-.3-1.05-.84-.38-.54-.38-1.16h1.74q.02.49.36.75.34.26.9.26.53 0 .8-.2.27-.2.27-.52z"/><use xlink:href="#C" x="32.86"/><use xlink:href="#B" x="73.45"/><path d="M136.76 14.82v.09q0 1.59-.72 2.55-.72.95-1.94.95-1.04 0-1.69-.72v3.24h-1.83v-9.51h1.7l.06.67q.67-.8 1.74-.8 1.27 0 1.98.94.7.94.7 2.59zm-1.83-.04q0-.96-.34-1.48-.34-.52-.99-.52-.86 0-1.19.66v2.81q.34.68 1.2.68 1.32 0 1.32-2.15z"/></g><defs ><path id="B" d="M49.49 14.87v-.08q0-1.02.39-1.82.4-.8 1.14-1.24.74-.44 1.71-.44 1.39 0 2.27.85.88.85.98 2.31l.02.47q0 1.58-.89 2.54-.88.95-2.36.95-1.49 0-2.37-.95-.89-.95-.89-2.59zm1.83.05q0 .98.37 1.5.37.51 1.06.51.66 0 1.04-.51.37-.51.37-1.63 0-.96-.37-1.49-.38-.52-1.06-.52-.67 0-1.04.52-.37.52-.37 1.62z"/><path id="C" d="M84.88 8.54v3.63q.73-.88 1.84-.88 2.23 0 2.27 2.6v4.4h-1.84v-4.35q0-.59-.25-.87-.26-.28-.85-.28-.8 0-1.17.62v4.88h-1.83V8.54h1.83z"/></defs></svg>