<svg xmlns="http://www.w3.org/2000/svg" xmlns:xlink="http://www.w3.org/1999/xlink" width="142" height="29" stroke="#000" stroke-linecap="round" stroke-linejoin="round" fill="#fff" fill-rule="evenodd"><g stroke="none"><rect height="28" rx="4" width="140.5" fill="#ff9a00"/><g fill-rule="nonzero"><path d="M9.69 5.5h11.62a3.2 3.2 0 0 1 3.19 3.19v11.17c0 1.77-1.42 3.19-3.19 3.19H9.69a3.2 3.2 0 0 1-3.19-3.19V8.69A3.2 3.2 0 0 1 9.69 5.5z"/><path d="M15.2 16h-2.79l-.57 1.76c-.01.07-.07.11-.14.11h-1.41c-.08 0-.1-.05-.08-.14l2.41-6.95c.03-.08.05-.16.08-.25.03-.16.04-.32.04-.49a.1.1 0 0 1 .06-.08h.03 1.92c.06 0 .09.02.09.06l2.74 7.73c.02.08 0 .12-.07.12h-1.57c-.05 0-.11-.03-.12-.09L15.2 16zm-2.35-1.53h1.9l-.17-.53-.2-.65-.22-.69-.2-.67-.17-.58h-.01l-.26.97-.34 1.11-.33 1.04zm6.4-3.2c-.24.01-.48-.09-.66-.26-.18-.19-.27-.43-.26-.69a.9.9 0 0 1 .27-.67c.18-.17.42-.26.67-.26.29 0 .52.09.68.26.17.18.26.42.25.67.01.26-.08.5-.26.69-.18.18-.43.28-.69.26zm-.84 6.51v-5.77c0-.08.03-.11.1-.11H20c.06 0 .09.04.09.11v5.77c0 .09-.03.12-.09.12h-1.47c-.08 0-.12-.04-.12-.12z" fill="#ff9a00"/></g><path d="M39.68 18.29l-.64-1.9H35.7l-.64 1.9h-2.02l3.44-9.24h1.77l3.45 9.24h-2.02zm-2.32-6.9l-1.15 3.46h2.31l-1.16-3.46zm4.8 3.42q0-1.61.72-2.56.72-.96 1.97-.96 1 0 1.66.75v-3.5h1.84v9.75h-1.66l-.09-.73q-.68.86-1.76.86-1.21 0-1.95-.96-.73-.95-.73-2.65zm1.83.13q0 .96.34 1.48.34.51.98.51.85 0 1.2-.72V13.5q-.34-.71-1.19-.71-1.33 0-1.33 2.15z"/><use xlink:href="#B"/><path d="M63.31 14.82v.1q0 1.65-.71 2.57-.7.93-1.96.93-1.12 0-1.79-.86l-.08.73h-1.65V8.54h1.83v3.5q.64-.75 1.67-.75 1.26 0 1.97.93.72.92.72 2.6zm-1.84-.03q0-1.04-.33-1.52-.33-.48-.98-.48-.88 0-1.21.71v2.71q.34.73 1.22.73.89 0 1.17-.88.13-.42.13-1.27zm6.13 3.62q-1.51 0-2.46-.92-.95-.93-.95-2.47v-.18q0-1.04.4-1.85.4-.82 1.13-1.26.74-.44 1.68-.44 1.4 0 2.21.89.81.89.81 2.52v.75h-4.37q.09.67.54 1.08.44.4 1.13.4 1.06 0 1.66-.76l.9 1q-.42.59-1.12.92-.7.32-1.56.32zm-.21-5.63q-.55 0-.89.36-.34.37-.43 1.06h2.55v-.15q-.01-.61-.33-.94-.32-.33-.9-.33zm9.46-3.73v9.24h-1.9V9.05h1.9zm3.58-.51v9.75h-1.84V8.54h1.84zm3.45 0v9.75h-1.84V8.54h1.84zm5.67 9.75l-.05-.7q-.68.83-1.88.83-1.11 0-1.69-.64-.58-.63-.59-1.86v-4.5h1.83v4.44q0 1.07.98 1.07.94 0 1.28-.65v-4.86h1.85v6.87h-1.73zm6.83-1.9q0-.34-.33-.53-.34-.2-1.07-.35-2.45-.51-2.45-2.08 0-.91.75-1.53.76-.61 1.99-.61 1.31 0 2.09.62.78.61.78 1.6h-1.83q0-.4-.25-.66-.26-.25-.8-.25-.46 0-.72.21-.25.21-.25.53 0 .3.29.49.29.19.97.33.69.13 1.16.3 1.45.54 1.45 1.85 0 .94-.8 1.52-.81.58-2.09.58-.86 0-1.53-.31-.67-.3-1.05-.84-.38-.54-.38-1.16h1.74q.02.49.36.75.34.26.9.26.53 0 .8-.2.27-.2.27-.52z"/><use xlink:href="#C"/><use xlink:href="#D"/><path d="M114.13 18.29h-1.86q-.12-.25-.18-.62-.67.74-1.73.74-1.01 0-1.68-.58-.66-.59-.66-1.47 0-1.1.81-1.68.81-.58 2.34-.59h.84v-.39q0-.48-.24-.77-.25-.28-.77-.28-.47 0-.73.22-.26.22-.26.61h-1.84q0-.6.37-1.1.37-.51 1.04-.8.67-.29 1.51-.29 1.27 0 2.02.64.74.64.74 1.79v2.98q.01.98.28 1.48v.11zm-3.37-1.28q.4 0 .74-.18.35-.18.51-.49v-1.18h-.68q-1.38 0-1.47.95l-.01.11q0 .34.25.57.24.22.66.22z"/><use xlink:href="#C" x="15.91"/><use xlink:href="#B" x="69.69"/><use xlink:href="#D" x="23.07"/></g><defs ><path id="B" d="M49.49 14.87v-.08q0-1.02.39-1.82.4-.8 1.14-1.24.74-.44 1.71-.44 1.39 0 2.27.85.88.85.98 2.31l.02.47q0 1.58-.89 2.54-.88.95-2.36.95-1.49 0-2.37-.95-.89-.95-.89-2.59zm1.83.05q0 .98.37 1.5.37.51 1.06.51.66 0 1.04-.51.37-.51.37-1.63 0-.96-.37-1.49-.38-.52-1.06-.52-.67 0-1.04.52-.37.52-.37 1.62z"/><path id="C" d="M99.71 9.73h1.84v1.69h1.17v1.34h-1.17v3.43q0 .38.14.55.15.16.56.16.31 0 .54-.04v1.39q-.54.16-1.11.16-1.93 0-1.97-1.95v-3.7h-1v-1.34h1V9.73z"/><path id="D" d="M107.62 11.37l-.02 1.77q-.38-.05-.66-.05-1.04 0-1.37.7v4.5h-1.83v-6.87h1.73l.05.82q.56-.95 1.53-.95.31 0 .57.08z"/></defs></svg>