<svg xmlns="http://www.w3.org/2000/svg" width="101" height="29" stroke="none" stroke-linecap="round" stroke-linejoin="round" fill="#fff" fill-rule="evenodd"><rect height="28" rx="4" width="99.5" fill="#ff61f6"/><g fill-rule="nonzero"><path d="M9.69 5.45h11.62a3.2 3.2 0 0 1 3.19 3.19v11.17c0 1.77-1.42 3.19-3.19 3.19H9.69a3.2 3.2 0 0 1-3.19-3.19V8.64a3.2 3.2 0 0 1 3.19-3.19z"/><path d="M15.96 10.07l-2.25 3.71 2.4 3.94c.02.03.03.06.02.09s-.04 0-.08.01h-1.72c-.12 0-.2-.01-.26-.08l-.48-.94-.51-.94-.54-.98h-.01l-.5.97-.51.96-.52.94c-.03.08-.09.09-.17.09H9.18c-.03 0-.06.01-.06-.03 0-.03 0-.06.02-.08l2.33-3.82-2.27-3.85c-.02-.03-.03-.06-.02-.08.02-.02.05-.03.08-.03h1.7c.04 0 .08.01.11.02s.05.04.07.07l.48.96.54.96a12.3 12.3 0 0 1 .5.95h.02l.49-.97.51-.94.5-.95c.01-.03.02-.06.04-.07.03-.02.06-.03.1-.02h1.58c.04-.01.08.02.09.05 0 .01-.01.04-.03.06zm3.47 7.91a3.7 3.7 0 0 1-1.61-.34c-.48-.22-.87-.58-1.14-1.02-.27-.46-.41-1.03-.41-1.71-.01-.55.14-1.1.41-1.58a3.1 3.1 0 0 1 1.2-1.16c.52-.3 1.15-.44 1.89-.44.04 0 .09 0 .16.01s.14.01.23.01V9.38c0-.05.03-.08.08-.08h1.52c.04-.01.07.02.08.05v7.16l.01.45c.02.16.02.31.03.43 0 .06-.02.1-.07.12-.39.17-.81.29-1.23.36a6.3 6.3 0 0 1-1.15.11zm.73-1.5v-3.3c-.06-.02-.13-.03-.2-.04-.08-.01-.16-.01-.25-.01-.29 0-.58.06-.84.19s-.48.32-.64.56c-.17.24-.25.56-.25.95-.01.26.04.52.13.77.07.2.19.38.34.53.14.14.31.24.51.3.2.07.41.1.62.1l.31-.01a.8.8 0 0 0 .27-.04z" fill="#ff61f6"/></g><path d="M39.68 18.29l-.64-1.9H35.7l-.64 1.9h-2.02l3.44-9.24h1.77l3.45 9.24h-2.02zm-2.32-6.9l-1.15 3.46h2.31l-1.16-3.46zm4.8 3.42q0-1.61.72-2.56.72-.96 1.97-.96 1 0 1.66.75v-3.5h1.84v9.75h-1.66l-.09-.73q-.68.86-1.76.86-1.21 0-1.95-.96-.73-.95-.73-2.65zm1.83.13q0 .96.34 1.48.34.51.98.51.85 0 1.2-.72V13.5q-.34-.71-1.19-.71-1.33 0-1.33 2.15zm5.5-.07v-.08q0-1.02.39-1.82.4-.8 1.14-1.24.74-.44 1.71-.44 1.39 0 2.27.85.88.85.98 2.31l.02.47q0 1.58-.89 2.54-.88.95-2.36.95-1.49 0-2.37-.95-.89-.95-.89-2.59zm1.83.05q0 .98.37 1.5.37.51 1.06.51.66 0 1.04-.51.37-.51.37-1.63 0-.96-.37-1.49-.38-.52-1.06-.52-.67 0-1.04.52-.37.52-.37 1.62zm11.99-.1v.1q0 1.65-.71 2.57-.7.93-1.96.93-1.12 0-1.79-.86l-.08.73h-1.65V8.54h1.83v3.5q.64-.75 1.67-.75 1.26 0 1.97.93.72.92.72 2.6zm-1.84-.03q0-1.04-.33-1.52-.33-.48-.98-.48-.88 0-1.21.71v2.71q.34.73 1.22.73.89 0 1.17-.88.13-.42.13-1.27zm6.13 3.62q-1.51 0-2.46-.92-.95-.93-.95-2.47v-.18q0-1.04.4-1.85.4-.82 1.13-1.26.74-.44 1.68-.44 1.4 0 2.21.89.81.89.81 2.52v.75h-4.37q.09.67.54 1.08.44.4 1.13.4 1.06 0 1.66-.76l.9 1q-.42.59-1.12.92-.7.32-1.56.32zm-.21-5.63q-.55 0-.89.36-.34.37-.43 1.06h2.55v-.15q-.01-.61-.33-.94-.32-.33-.9-.33zm9.01-3.73l1.73 3.19 1.74-3.19h2.19l-2.7 4.58 2.77 4.66h-2.22l-1.78-3.24-1.77 3.24h-2.22l2.76-4.66-2.69-4.58h2.19zm9.54 9.24h-2.86V9.05h2.84q1.22 0 2.18.55.97.55 1.51 1.56.53 1.01.53 2.3v.43q0 1.29-.53 2.29-.53 1-1.49 1.55-.96.56-2.18.56zm-.02-7.7h-.94v6.17h.92q1.12 0 1.71-.73.59-.73.61-2.09v-.48q0-1.41-.59-2.14-.58-.73-1.71-.73z"/></svg>