<svg xmlns="http://www.w3.org/2000/svg" width="99" height="29" stroke="none" stroke-linecap="round" stroke-linejoin="round" fill="#fff" fill-rule="evenodd"><rect fill="#0077b7" height="28" rx="4" width="97.5"/><path d="M17.05 13.4l-4.74 4.74c-.16.16-.16.41 0 .56.07.08.17.12.28.12.1 0 .2-.04.28-.12l4.74-4.74c.16-.16.16-.41 0-.56-.15-.16-.4-.16-.56 0zm7.41-6.86c-.99-.98-2.3-1.53-3.7-1.53s-2.71.55-3.7 1.53c-1.53 1.53-1.96 3.83-1.11 5.79l-7.32 7.33c-.07.07-.12.17-.12.27v2.17c0 .11.04.21.12.28.07.08.17.12.27.12h4.21c.11 0 .21-.04.28-.11.07-.08.12-.18.12-.28v-1.65h1.64a.4.4 0 0 0 .4-.4v-1.65h1.65c.22 0 .4-.17.4-.39v-1.88l1.08-1.08c.67.29 1.38.43 2.08.43a5.2 5.2 0 0 0 3.7-1.54 5.2 5.2 0 0 0 0-7.4zm-.56 6.85c-1.35 1.36-3.42 1.7-5.13.84-.15-.08-.34-.05-.46.07l-1.39 1.39c-.08.08-.12.18-.12.28v1.65h-1.65a.4.4 0 0 0-.39.4v1.65h-1.65c-.22 0-.4.17-.4.39v1.65H9.86l1.89-1.89c.15-.15.15-.41 0-.56-.16-.15-.41-.15-.56 0L9.3 21.15V20.1l7.41-7.4c.12-.12.15-.31.07-.46-.86-1.72-.52-3.78.83-5.14.84-.84 1.96-1.3 3.15-1.3a4.4 4.4 0 0 1 3.14 1.3c.84.84 1.31 1.96 1.31 3.15a4.4 4.4 0 0 1-1.31 3.14zm-3.39-5.53c-.72.73-.72 1.91 0 2.63.37.37.84.55 1.32.55a1.8 1.8 0 0 0 1.31-.55c.73-.72.73-1.9 0-2.63-.72-.72-1.9-.72-2.63 0zm2.07 2.07c-.41.42-1.09.42-1.51 0-.41-.41-.41-1.09 0-1.51h0c.42-.41 1.1-.41 1.51 0 .42.42.42 1.1 0 1.51z" fill-rule="nonzero"/><path d="M38.92 18.29h-3.59V9.05h3.24q1.68 0 2.55.64.87.65.87 1.89 0 .68-.35 1.2-.35.52-.97.76.71.18 1.12.72.41.53.41 1.32 0 1.33-.85 2.01-.85.69-2.43.7zm.06-4.02h-1.75v2.49h1.64q.67 0 1.05-.32.37-.32.37-.88 0-1.27-1.31-1.29zm-1.75-3.68v2.33h1.41q1.44-.02 1.44-1.15 0-.63-.36-.9-.37-.28-1.15-.28h-1.34zm9.13 6.35q.51 0 .83-.28.31-.28.33-.74h1.72q-.01.7-.38 1.28-.38.58-1.03.9-.65.32-1.44.32-1.47 0-2.32-.93-.85-.94-.85-2.59v-.12q0-1.59.84-2.53.85-.95 2.32-.95 1.29 0 2.07.73.77.74.79 1.96h-1.72q-.02-.54-.33-.87-.32-.33-.84-.33-.64 0-.97.46-.33.47-.33 1.52v.19q0 1.06.33 1.52.32.46.98.46zm7.81-5.56l-.02 1.77q-.38-.05-.66-.05-1.04 0-1.37.7v4.5h-1.83v-6.87h1.73l.05.82q.56-.95 1.53-.95.31 0 .57.08zm2.26.04l1.28 4.27 1.27-4.27h1.97l-2.76 7.93-.16.37q-.61 1.34-2.03 1.34-.4 0-.81-.12v-1.39l.28.01q.52 0 .78-.16.25-.16.4-.53l.22-.56-2.41-6.89h1.97zm11.42 3.41v.09q0 1.59-.72 2.55-.72.95-1.94.95-1.04 0-1.69-.72v3.24h-1.83v-9.51h1.7l.06.67q.67-.8 1.74-.8 1.27 0 1.98.94.7.94.7 2.59zm-1.83-.04q0-.96-.34-1.48-.34-.52-.99-.52-.86 0-1.19.66v2.81q.34.68 1.2.68 1.32 0 1.32-2.15zm3.32-5.05h1.84v1.69h1.17v1.34h-1.17v3.43q0 .38.14.55.15.16.56.16.31 0 .54-.04v1.39q-.54.16-1.11.16-1.93 0-1.97-1.95v-3.7h-1v-1.34h1V9.74zm7.89 5.71v-6.4h1.9v6.4q0 .88-.39 1.56-.39.67-1.1 1.04-.71.37-1.61.37-1.46 0-2.28-.75-.82-.74-.82-2.11h1.92q0 .68.28 1.01.29.32.9.32.55 0 .87-.38.33-.37.33-1.06zm7.13.95q0-.34-.33-.53-.34-.2-1.07-.35-2.45-.51-2.45-2.08 0-.91.75-1.53.76-.61 1.99-.61 1.31 0 2.09.62.78.61.78 1.6h-1.83q0-.4-.25-.66-.26-.25-.8-.25-.46 0-.72.21-.25.21-.25.53 0 .3.29.49.29.19.97.33.69.13 1.16.3 1.45.54 1.45 1.85 0 .94-.8 1.52-.81.58-2.09.58-.86 0-1.53-.31-.67-.3-1.05-.84-.38-.54-.38-1.16h1.74q.02.49.36.75.34.26.9.26.53 0 .8-.2.27-.2.27-.52z"/></svg>