<svg xmlns="http://www.w3.org/2000/svg" xmlns:xlink="http://www.w3.org/1999/xlink" width="105" height="29" stroke="#000" stroke-linecap="round" stroke-linejoin="round" fill="#fff" fill-rule="evenodd"><g stroke="none"><rect height="28" rx="4" width="103.5" fill="#7952b3"/><path d="M9.65 6.03c-1.14 0-1.98 1-1.94 2.08a11.4 11.4 0 0 1-.35 3.49c-.34 1.1-.92 1.8-1.86 1.89v1.01c.94.09 1.52.79 1.86 1.89a11.4 11.4 0 0 1 .35 3.49c-.04 1.08.8 2.08 1.94 2.08h11.7a2 2 0 0 0 1.95-2.08 11.1 11.1 0 0 1 .35-3.49c.34-1.1.91-1.8 1.85-1.89v-1.01c-.94-.09-1.51-.79-1.85-1.89a11.1 11.1 0 0 1-.35-3.49 2 2 0 0 0-1.95-2.08H9.65zm9.41 9.81c0 1.49-1.11 2.39-2.96 2.39h-3.14c-.19 0-.34-.15-.34-.34V10.1c0-.19.15-.34.34-.34h3.12c1.54 0 2.55.83 2.55 2.11a1.9 1.9 0 0 1-1.54 1.85v.04c1.18.13 1.97.95 1.97 2.08zm-3.3-5.01h-1.79v2.53h1.51c1.16 0 1.81-.47 1.81-1.3 0-.79-.56-1.23-1.53-1.23zm-1.79 3.54v2.79h1.85c1.22 0 1.86-.49 1.86-1.41 0-.91-.66-1.38-1.93-1.38h-1.78zm27.95 3.92h-3.59V9.05h3.24q1.68 0 2.55.64.87.65.87 1.89 0 .68-.35 1.2-.35.52-.97.76.71.18 1.12.72.41.53.41 1.32 0 1.33-.85 2.01-.85.69-2.43.7zm.06-4.02h-1.75v2.49h1.64q.67 0 1.05-.32.37-.32.37-.88 0-1.27-1.31-1.29zm-1.75-3.68v2.33h1.41q1.44-.02 1.44-1.15 0-.63-.36-.9-.37-.28-1.15-.28h-1.34z"/><use xlink:href="#B"/><use xlink:href="#B" x="7.35"/><use xlink:href="#C"/><path d="M69.32 16.4q0-.34-.33-.53-.34-.2-1.07-.35-2.45-.51-2.45-2.08 0-.91.75-1.53.76-.61 1.99-.61 1.31 0 2.09.62.78.61.78 1.6h-1.83q0-.4-.25-.66-.26-.25-.8-.25-.46 0-.72.21-.25.21-.25.53 0 .3.29.49.29.19.97.33.69.13 1.16.3 1.45.54 1.45 1.85 0 .94-.8 1.52-.81.58-2.09.58-.86 0-1.53-.31-.67-.3-1.05-.84-.38-.54-.38-1.16h1.74q.02.49.36.75.34.26.9.26.53 0 .8-.2.27-.2.27-.52z"/><use xlink:href="#C" x="11.07"/><path d="M80.56 11.38l-.02 1.77q-.38-.05-.66-.05-1.04 0-1.37.7v4.5h-1.83v-6.87h1.73l.05.82q.56-.95 1.53-.95.31 0 .57.08zm6.5 6.92H85.2q-.12-.25-.18-.62-.67.74-1.73.74-1.01 0-1.68-.58-.66-.59-.66-1.47 0-1.1.81-1.68.81-.58 2.34-.59h.84v-.39q0-.48-.24-.77-.25-.28-.77-.28-.47 0-.73.22-.26.22-.26.61H81.1q0-.6.37-1.1.37-.51 1.04-.8.67-.29 1.51-.29 1.27 0 2.02.64.74.64.74 1.79v2.98q.01.98.28 1.48v.11zm-3.37-1.28q.4 0 .74-.18.35-.18.51-.49v-1.18h-.68q-1.38 0-1.47.95l-.01.11q0 .34.25.57.24.22.66.22zm10.69-2.19v.09q0 1.59-.72 2.55-.72.95-1.94.95-1.04 0-1.69-.72v3.24H88.2v-9.51h1.7l.06.67q.67-.8 1.74-.8 1.27 0 1.98.94.7.94.7 2.59zm-1.83-.04q0-.96-.34-1.48-.34-.52-.99-.52-.86 0-1.19.66v2.81q.34.68 1.2.68 1.32 0 1.32-2.15z"/></g><defs ><path id="B" d="M46.22 14.88v-.08q0-1.02.39-1.82.4-.8 1.14-1.24.74-.44 1.71-.44 1.39 0 2.27.85.88.85.98 2.31l.02.47q0 1.58-.89 2.54-.88.95-2.36.95-1.49 0-2.37-.95-.89-.95-.89-2.59zm1.83.05q0 .98.37 1.5.37.51 1.06.51.66 0 1.04-.51.37-.51.37-1.63 0-.96-.37-1.49-.38-.52-1.06-.52-.67 0-1.04.52-.37.52-.37 1.62z"/><path id="C" d="M61.57 9.74h1.84v1.69h1.17v1.34h-1.17v3.43q0 .38.14.55.15.16.56.16.31 0 .54-.04v1.39q-.54.16-1.11.16-1.93 0-1.97-1.95v-3.7h-1v-1.34h1V9.74z"/></defs></svg>