<svg xmlns="http://www.w3.org/2000/svg" xmlns:xlink="http://www.w3.org/1999/xlink" width="74" height="29" stroke="#000" stroke-linecap="round" stroke-linejoin="round" fill="#fff" fill-rule="evenodd"><g stroke="none"><rect height="28" rx="4" width="73" fill="#1b73ba"/><g fill-rule="nonzero"><path d="M8.3 21.36L7 5.5l15.5.03-1.37 15.83-6.32 1.83z"/><path d="M14.81 21.66V7.01l6.38.02-1.14 13.11z"/><path d="M19.61 8.88H9.79l.27 1.91h4.66l-4.59 1.97.27 1.85h6.75l-.24 2.59-2.29.45-2.07-.54-.16-1.46h-1.91l.26 3.05 4.08 1.14 3.92-1.25.5-5.97H15.1l4.51-1.87z" fill="#1b73ba"/></g><path d="M38.68 15.21h1.9q-.1 1.49-1.1 2.35-.99.86-2.62.86-1.77 0-2.79-1.2-1.02-1.2-1.02-3.29v-.56q0-1.33.47-2.35.47-1.01 1.34-1.56.88-.54 2.03-.54 1.6 0 2.58.86.98.85 1.13 2.4h-1.91q-.07-.89-.5-1.3-.42-.4-1.3-.4-.95 0-1.42.68-.48.69-.49 2.12v.7q0 1.5.45 2.19.46.69 1.43.69.89 0 1.32-.4.44-.41.5-1.25z"/><use xlink:href="#B"/><use xlink:href="#B" x="7.99"/><path d="M59.49 14.29v-1.43h.98q.69 0 1.03-.35.34-.35.34-.93 0-.56-.34-.87-.33-.31-.91-.31-.53 0-.89.29-.35.29-.35.75h-1.84q0-.72.39-1.3.4-.57 1.1-.9.7-.32 1.54-.32 1.47 0 2.3.7.83.7.83 1.93 0 .64-.39 1.17-.38.54-1.01.82.78.28 1.16.84.39.56.39 1.32 0 1.23-.9 1.97-.9.75-2.38.75-1.38 0-2.26-.73-.88-.73-.88-1.93h1.83q0 .52.39.85.4.33.97.33.65 0 1.02-.35.37-.34.37-.92 0-1.38-1.52-1.38h-.97z"/></g><defs ><path id="B" d="M46.63 15.86q0-.54-.38-.82-.38-.29-1.37-.61-.99-.32-1.57-.63-1.57-.86-1.57-2.3 0-.75.42-1.33.42-.59 1.21-.92.79-.33 1.77-.33.99 0 1.77.36.77.36 1.2 1.01.43.65.43 1.49h-1.9q0-.64-.4-.99-.4-.35-1.13-.35-.7 0-1.08.29-.39.3-.39.78 0 .45.45.76.46.3 1.34.57 1.62.49 2.37 1.21.74.72.74 1.8 0 1.2-.91 1.88-.91.69-2.44.69-1.07 0-1.94-.39-.88-.39-1.34-1.07-.46-.68-.46-1.58h1.91q0 1.53 1.83 1.53.68 0 1.06-.27.38-.28.38-.78z"/></defs></svg>