<svg xmlns="http://www.w3.org/2000/svg" xmlns:xlink="http://www.w3.org/1999/xlink" width="145" height="29" stroke="#000" stroke-linecap="round" stroke-linejoin="round" fill="#fff" fill-rule="evenodd"><g stroke="none"><rect height="28" rx="4" width="143.5" fill="#9a00ff"/><g fill-rule="nonzero"><path d="M25.5 13.9c0 .65-.06 1.29-.19 1.9l.01-.06a8.8 8.8 0 0 1-.56 1.82l.03-.06a10 10 0 0 1-.89 1.66l.02-.03a10.3 10.3 0 0 1-1.17 1.42h0c-.43.43-.89.81-1.39 1.15l-.04.02a8.9 8.9 0 0 1-1.56.84l-.06.03a8.9 8.9 0 0 1-1.7.52l-.06.01a8.9 8.9 0 0 1-1.84.18h0c-.65 0-1.28-.06-1.89-.19l.06.01a8.9 8.9 0 0 1-1.83-.56l.06.03a10.4 10.4 0 0 1-1.66-.89l.04.02a9.8 9.8 0 0 1-1.43-1.17h0c-.42-.43-.81-.89-1.14-1.39l-.02-.04c-.32-.46-.61-1-.85-1.56l-.02-.06a8.9 8.9 0 0 1-.53-1.7l-.01-.06c-.11-.56-.18-1.19-.18-1.84h0c0-.65.07-1.28.19-1.89l-.01.06c.14-.67.32-1.27.56-1.83l-.02.06c.26-.62.55-1.15.89-1.66l-.03.04a9.8 9.8 0 0 1 1.17-1.43h0c.43-.42.89-.81 1.39-1.14l.04-.02c.46-.32 1-.61 1.56-.85l.06-.02a8.8 8.8 0 0 1 1.71-.53l.06-.01c.55-.11 1.18-.18 1.83-.18h0c.65 0 1.28.07 1.9.19l-.07-.01c.68.14 1.27.32 1.83.56l-.06-.02a9.3 9.3 0 0 1 1.66.89l-.04-.03a9.8 9.8 0 0 1 1.43 1.17h0c.42.43.81.89 1.15 1.39l.02.04a8.9 8.9 0 0 1 .84 1.56l.03.06a8.8 8.8 0 0 1 .52 1.71l.01.06c.12.55.18 1.18.18 1.83h0z"/><path d="M13.77 20.38l-5.13-5.12 2.04-2.05 3.09 3.09 7.74-7.75 2.05 2.04z" fill="#9a00ff"/></g><path d="M39.39 12.8v1.49h-3.66v2.47h4.3v1.53h-6.2V9.05h6.18v1.54h-4.28v2.21h3.66zm3.12-1.38l1.13 2.05 1.15-2.05h1.96l-1.95 3.36 2.04 3.51h-1.97l-1.23-2.16-1.22 2.16h-1.97l2.04-3.51-1.95-3.36h1.97zm11.31 3.4v.09q0 1.59-.72 2.55-.72.95-1.94.95-1.04 0-1.69-.72v3.24h-1.83v-9.51h1.7l.06.67q.67-.8 1.74-.8 1.27 0 1.98.94.7.94.7 2.59zm-1.83-.04q0-.96-.34-1.48-.34-.52-.99-.52-.86 0-1.19.66v2.81q.34.68 1.2.68 1.32 0 1.32-2.15z"/><use xlink:href="#B"/><path d="M62.74 18.41q-1.51 0-2.46-.92-.95-.93-.95-2.47v-.18q0-1.04.4-1.85.4-.82 1.13-1.26.74-.44 1.68-.44 1.4 0 2.21.89.81.89.81 2.52v.75h-4.37q.09.67.54 1.08.44.4 1.13.4 1.06 0 1.66-.76l.9 1q-.42.59-1.12.92-.7.32-1.56.32zm-.21-5.63q-.55 0-.89.36-.34.37-.43 1.06h2.55v-.15q-.01-.61-.33-.94-.32-.33-.9-.33z"/><use xlink:href="#C"/><use xlink:href="#C" x="6.69"/><path d="M84.66 9.05L86.75 16l2.09-6.95h2.12l-3.22 9.24h-1.98l-3.21-9.24h2.11z"/><use xlink:href="#D"/><path d="M100.32 8.54v9.75h-1.84V8.54h1.84zm3.45 2.88v6.87h-1.84v-6.87h1.84zm-1.95-1.77q0-.42.28-.68.27-.27.75-.27.47 0 .75.27.28.26.28.68 0 .41-.29.68-.28.27-.74.27-.47 0-.75-.27-.28-.27-.28-.68zm3.17 5.16q0-1.61.72-2.56.72-.96 1.97-.96 1 0 1.66.75v-3.5h1.84v9.75h-1.66l-.09-.73q-.68.86-1.76.86-1.21 0-1.95-.96-.73-.95-.73-2.65zm1.83.13q0 .96.34 1.48.34.51.98.51.85 0 1.2-.72V13.5q-.34-.71-1.19-.71-1.33 0-1.33 2.15z"/><use xlink:href="#D" x="21.19"/><path d="M119.93 9.73h1.84v1.69h1.17v1.34h-1.17v3.43q0 .38.14.55.15.16.56.16.31 0 .54-.04v1.39q-.54.16-1.11.16-1.93 0-1.97-1.95v-3.7h-1v-1.34h1V9.73zm3.56 5.14v-.08q0-1.02.39-1.82.4-.8 1.14-1.24.74-.44 1.71-.44 1.39 0 2.27.85.88.85.98 2.31l.02.47q0 1.58-.89 2.54-.88.95-2.36.95-1.49 0-2.37-.95-.89-.95-.89-2.59zm1.83.05q0 .98.37 1.5.37.51 1.06.51.66 0 1.04-.51.37-.51.37-1.63 0-.96-.37-1.49-.38-.52-1.06-.52-.67 0-1.04.52-.37.52-.37 1.62z"/><use xlink:href="#B" x="76.17"/></g><defs ><path id="B" d="M58.84 11.37l-.02 1.77q-.38-.05-.66-.05-1.04 0-1.37.7v4.5h-1.83v-6.87h1.73l.05.82q.56-.95 1.53-.95.31 0 .57.08z"/><path id="C" d="M70.32 16.39q0-.34-.33-.53-.34-.2-1.07-.35-2.45-.51-2.45-2.08 0-.91.75-1.53.76-.61 1.99-.61 1.31 0 2.09.62.78.61.78 1.6h-1.83q0-.4-.25-.66-.26-.25-.8-.25-.46 0-.72.21-.25.21-.25.53 0 .3.29.49.29.19.97.33.69.13 1.16.3 1.45.54 1.45 1.85 0 .94-.8 1.52-.81.58-2.09.58-.86 0-1.53-.31-.67-.3-1.05-.84-.38-.54-.38-1.16h1.74q.02.49.36.75.34.26.9.26.53 0 .8-.2.27-.2.27-.52z"/><path id="D" d="M97.25 18.29h-1.86q-.12-.25-.18-.62-.67.74-1.73.74-1.01 0-1.68-.58-.66-.59-.66-1.47 0-1.1.81-1.68.81-.58 2.34-.59h.84v-.39q0-.48-.24-.77-.25-.28-.77-.28-.47 0-.73.22-.26.22-.26.61h-1.84q0-.6.37-1.1.37-.51 1.04-.8.67-.29 1.51-.29 1.27 0 2.02.64.74.64.74 1.79v2.98q.01.98.28 1.48v.11zm-3.37-1.28q.4 0 .74-.18.35-.18.51-.49v-1.18h-.68q-1.38 0-1.47.95l-.01.11q0 .34.25.57.24.22.66.22z"/></defs></svg>