<svg xmlns="http://www.w3.org/2000/svg" width="77" height="29" stroke="none" stroke-linecap="round" stroke-linejoin="round" fill="#fff" fill-rule="evenodd"><rect height="28" rx="4" width="76" fill="#0acf83"/><g fill-rule="nonzero"><path d="M10.12 23.22c1.82 0 3.29-1.34 3.29-2.99v-2.99h-3.29c-1.82 0-3.29 1.34-3.29 2.99s1.47 2.99 3.29 2.99z"/><path d="M6.83 14.25c0-1.65 1.47-2.99 3.29-2.99h3.29v5.99h-3.29c-1.82 0-3.29-1.35-3.29-3z"/><path d="M6.83 8.26c0-1.65 1.47-2.99 3.29-2.99h3.29v5.99h-3.29c-1.82 0-3.29-1.35-3.29-3z"/><path d="M13.41 5.27h3.29c1.82 0 3.29 1.34 3.29 2.99s-1.47 2.99-3.29 2.99h-3.29z"/><path d="M19.99 14.25c0 1.65-1.47 2.99-3.29 2.99s-3.29-1.34-3.29-2.99 1.47-2.99 3.29-2.99 3.29 1.34 3.29 2.99z"/></g><path d="M35.39 12.98v1.54h-3.66v3.77h-1.9V9.05h6.02v1.54h-4.12v2.39h3.66zm3.38-1.56v6.87h-1.84v-6.87h1.84zm-1.95-1.77q0-.42.28-.68.27-.27.75-.27.47 0 .75.27.28.26.28.68 0 .41-.29.68-.28.27-.74.27-.47 0-.75-.27-.28-.27-.28-.68zm3.19 5.24v-.08q0-1.58.75-2.55.75-.96 2.03-.96 1.13 0 1.76.77l.07-.64h1.67v6.64q0 .9-.41 1.56-.41.67-1.15 1.02-.75.35-1.74.35-.76 0-1.48-.3-.71-.3-1.08-.78l.81-1.12q.69.77 1.66.77.73 0 1.14-.39.41-.39.41-1.11v-.37q-.64.72-1.67.72-1.24 0-2.01-.97-.76-.96-.76-2.56zm1.83.05q0 .94.38 1.47.37.53 1.03.53.84 0 1.2-.63v-2.89q-.37-.63-1.19-.63-.66 0-1.04.54-.38.54-.38 1.61zm5.86-3.51h1.72l.06.77q.73-.9 1.97-.9 1.33 0 1.82 1.05.73-1.05 2.07-1.05 1.11 0 1.66.65.55.65.55 1.96v4.39H55.7v-4.38q0-.59-.22-.86-.23-.27-.81-.27-.83 0-1.14.79v4.72H51.7v-4.38q0-.6-.24-.86-.23-.27-.8-.27-.78 0-1.13.65v4.86H47.7v-6.87zm17.09 6.87h-1.86q-.12-.25-.18-.62-.67.74-1.73.74-1.01 0-1.68-.58-.66-.59-.66-1.47 0-1.1.81-1.68.81-.58 2.34-.59h.84v-.39q0-.48-.24-.77-.25-.28-.77-.28-.47 0-.73.22-.26.22-.26.61h-1.84q0-.6.37-1.1.37-.51 1.04-.8.67-.29 1.51-.29 1.27 0 2.02.64.74.64.74 1.79v2.98q.01.98.28 1.48v.11zm-3.37-1.28q.4 0 .74-.18.35-.18.51-.49v-1.18h-.68q-1.38 0-1.47.95l-.01.11q0 .34.25.57.24.22.66.22z"/></svg>