<svg xmlns="http://www.w3.org/2000/svg" width="102" height="29" stroke="none" stroke-linecap="round" stroke-linejoin="round" fill="#fff" fill-rule="evenodd"><rect fill="#11c0a8" height="28" rx="4" width="101"/><path d="M22.02 15.05l2.7-3.04c.18-.19.26-.45.24-.7-.02-.26-.15-.5-.35-.66-.41-.3-.99-.24-1.32.15l-2.05 2.3c-.05.06-.13.1-.21.1-.09.01-.17-.02-.23-.07l-3.04-2.71c-.06-.06-.14-.08-.23-.08-.08.01-.16.04-.21.11L7.57 21.39c-.35.38-.35.96 0 1.33.19.18.44.28.69.27.26 0 .51-.12.68-.31l8.53-9.58c.06-.07.13-.1.22-.11.08 0 .16.03.22.08l2.34 2.08c.52.46 1.31.42 1.77-.1zM9.2 11.17c.41.3.99.24 1.33-.15l2.04-2.3c.06-.06.13-.1.22-.1.08-.01.16.02.22.07l2.11 1.88c.06.05.14.08.22.08.09-.01.16-.05.22-.11l.83-.93c.06-.06.09-.15.08-.23 0-.08-.04-.16-.1-.21l-2.81-2.5c-.51-.46-1.31-.42-1.77.1l-2.7 3.04c-.17.19-.26.44-.24.7s.15.49.35.66zm7.19 10.22c-.35.38-.35.96 0 1.34.19.18.44.28.69.27.26-.01.51-.12.68-.32l2.7-3.04c.23-.24.34-.57.32-.9s-.17-.64-.42-.86l-2.8-2.5c-.06-.06-.15-.08-.23-.08-.08.01-.16.04-.21.11l-.84.93c-.05.06-.08.14-.08.23.01.08.05.16.11.21l2.1 1.88c.06.05.1.13.11.21 0 .08-.03.17-.08.23zm2.22-12.18a2.5 2.5 0 0 0 3.53-.2c.92-1.03.83-2.62-.2-3.54s-2.62-.82-3.54.21c-.44.49-.66 1.15-.63 1.81a2.5 2.5 0 0 0 .84 1.72zM6.81 13.3h2.51c.17 0 .31-.14.31-.32 0-.17-.14-.31-.31-.31H6.81c-.17 0-.31.14-.31.31 0 .18.14.32.31.32zm.94.93c0 .18.14.32.31.32h2.51c.17 0 .31-.14.31-.32 0-.17-.14-.31-.31-.31H8.06c-.17 0-.31.14-.31.31z" fill-rule="nonzero"/><path d="M41.39 12.98v1.54h-3.66v3.77h-1.9V9.05h6.02v1.54h-4.12v2.39h3.66zm3.38-4.44v9.75h-1.84V8.54h1.84zm3.45 2.88v6.87h-1.84v-6.87h1.84zm-1.95-1.77q0-.42.28-.68.27-.27.75-.27.47 0 .75.27.28.26.28.68 0 .41-.29.68-.28.27-.74.27-.47 0-.75-.27-.28-.27-.28-.68zm9.64 5.17v.09q0 1.59-.72 2.55-.72.95-1.94.95-1.04 0-1.69-.72v3.24h-1.83v-9.51h1.7l.06.67q.67-.8 1.74-.8 1.27 0 1.98.94.7.94.7 2.59zm-1.83-.04q0-.96-.34-1.48-.34-.52-.99-.52-.86 0-1.19.66v2.81q.34.68 1.2.68 1.32 0 1.32-2.15zm6.2-3.36H62l.06.77q.73-.9 1.97-.9 1.33 0 1.82 1.05.73-1.05 2.07-1.05 1.11 0 1.66.65.55.65.55 1.96v4.39h-1.85v-4.38q0-.59-.22-.86-.23-.27-.81-.27-.83 0-1.14.79v4.72h-1.83v-4.38q0-.6-.24-.86-.23-.27-.8-.27-.78 0-1.13.65v4.86h-1.83v-6.87zm10.97 3.45v-.08q0-1.02.39-1.82.4-.8 1.14-1.24.74-.44 1.71-.44 1.39 0 2.27.85.88.85.98 2.31l.02.47q0 1.58-.89 2.54-.88.95-2.36.95-1.49 0-2.37-.95-.89-.95-.89-2.59zm1.83.05q0 .98.37 1.5.37.51 1.06.51.66 0 1.04-.51.37-.51.37-1.63 0-.96-.37-1.49-.38-.52-1.06-.52-.67 0-1.04.52-.37.52-.37 1.62zm7.01-3.5l1.27 4.63 1.28-4.63h1.92l-2.32 6.87h-1.75l-2.32-6.87h1.92zm8.35 6.99q-1.51 0-2.46-.92-.95-.93-.95-2.47v-.18q0-1.04.4-1.85.4-.82 1.13-1.26.74-.44 1.68-.44 1.4 0 2.21.89.81.89.81 2.52v.75h-4.37q.09.67.54 1.08.44.4 1.13.4 1.06 0 1.66-.76l.9 1q-.42.59-1.12.92-.7.32-1.56.32zm-.21-5.63q-.55 0-.89.36-.34.37-.43 1.06h2.55v-.15q-.01-.61-.33-.94-.32-.33-.9-.33z"/></svg>