<svg xmlns="http://www.w3.org/2000/svg" xmlns:xlink="http://www.w3.org/1999/xlink" width="129" height="29" stroke="#000" stroke-linecap="round" stroke-linejoin="round" fill="#fff" fill-rule="evenodd"><g stroke="none"><rect height="28" rx="4" width="127.5" fill="#000"/><path d="M7.5 5.5h12v6h-6zm0 6h6l6 6h-6v6l-6-6z" fill-rule="nonzero"/><path d="M38.39 12.98v1.54h-3.66v3.77h-1.9V9.05h6.02v1.54h-4.12v2.39h3.66z"/><use xlink:href="#B"/><path d="M50.05 18.3h-1.86q-.12-.25-.18-.62-.67.74-1.73.74-1.01 0-1.68-.58-.66-.59-.66-1.47 0-1.1.81-1.68.81-.58 2.34-.59h.84v-.39q0-.48-.24-.77-.25-.28-.77-.28-.47 0-.73.22-.26.22-.26.61h-1.84q0-.6.37-1.1.37-.51 1.04-.8.67-.29 1.51-.29 1.27 0 2.02.64.74.64.74 1.79v2.98q.01.98.28 1.48v.11zm-3.37-1.28q.4 0 .74-.18.35-.18.51-.49v-1.18h-.68q-1.38 0-1.47.95l-.01.11q0 .34.25.57.24.22.66.22zm4.51-5.59h1.72l.06.77q.73-.9 1.97-.9 1.33 0 1.82 1.05.73-1.05 2.07-1.05 1.11 0 1.66.65.55.65.55 1.96v4.39h-1.85v-4.38q0-.59-.22-.86-.23-.27-.81-.27-.83 0-1.14.79v4.72h-1.83v-4.38q0-.6-.24-.86-.23-.27-.8-.27-.78 0-1.13.65v4.86h-1.83v-6.87zm14.41 6.99q-1.51 0-2.46-.92-.95-.93-.95-2.47v-.18q0-1.04.4-1.85.4-.82 1.13-1.26.74-.44 1.68-.44 1.4 0 2.21.89.81.89.81 2.52v.75h-4.37q.09.67.54 1.08.44.4 1.13.4 1.06 0 1.66-.76l.9 1q-.42.59-1.12.92-.7.32-1.56.32zm-.21-5.63q-.55 0-.89.36-.34.37-.43 1.06h2.55v-.15q-.01-.61-.33-.94-.32-.33-.9-.33z"/><use xlink:href="#B" x="29.8"/><path d="M77.57 9.05h2.49l2.37 6.7 2.36-6.7h2.5v9.24h-1.91v-2.52l.19-4.37-2.49 6.89h-1.31l-2.49-6.88.19 4.36v2.52h-1.9V9.05z"/><use xlink:href="#C"/><path d="M96.54 9.73h1.84v1.69h1.17v1.34h-1.17v3.43q0 .38.14.55.15.16.56.16.31 0 .54-.04v1.39q-.54.16-1.11.16-1.93 0-1.97-1.95v-3.7h-1v-1.34h1V9.73zm5.98 1.69v6.87h-1.84v-6.87h1.84zm-1.95-1.77q0-.42.28-.68.27-.27.75-.27.47 0 .75.27.28.26.28.68 0 .41-.29.68-.28.27-.74.27-.47 0-.75-.27-.28-.27-.28-.68z"/><use xlink:href="#C" x="15.19"/><path d="M111.34 11.43h1.73l.05.79q.74-.92 1.98-.92 1.09 0 1.62.64.54.64.55 1.92v4.44h-1.84v-4.4q0-.58-.25-.84-.25-.27-.84-.27-.78 0-1.17.66v4.85h-1.83v-6.87z"/></g><defs ><path id="B" d="M43.55 11.38l-.02 1.77q-.38-.05-.66-.05-1.04 0-1.37.7v4.5h-1.83v-6.87h1.73l.05.82q.56-.95 1.53-.95.31 0 .57.08z"/><path id="C" d="M88.55 14.88v-.08q0-1.02.39-1.82.4-.8 1.14-1.24.74-.44 1.71-.44 1.39 0 2.27.85.88.85.98 2.31l.02.47q0 1.58-.89 2.54-.88.95-2.36.95-1.49 0-2.37-.95-.89-.95-.89-2.59zm1.83.05q0 .98.37 1.5.37.51 1.06.51.66 0 1.04-.51.37-.51.37-1.63 0-.96-.37-1.49-.38-.52-1.06-.52-.67 0-1.04.52-.37.52-.37 1.62z"/></defs></svg>