<svg xmlns="http://www.w3.org/2000/svg" width="86" height="29" stroke="none" stroke-linecap="round" stroke-linejoin="round" fill="#fff" fill-rule="evenodd"><rect height="28" rx="4" width="84.5" fill="#744c9e"/><path d="M14.75 5.5C9.92 5.5 6 9.42 6 14.25S9.92 23 14.75 23s8.75-3.92 8.75-8.75-3.92-8.75-8.75-8.75zm-6.87 8.84l6.78 6.78a6.9 6.9 0 0 1-6.78-6.78zm8.41 6.61l-8.24-8.24a6.9 6.9 0 0 1 6.7-5.33c2.28 0 4.31 1.11 5.56 2.83l-.96.84c-1.01-1.46-2.69-2.41-4.6-2.41a5.6 5.6 0 0 0-5.28 3.7l7.19 7.18a5.6 5.6 0 0 0 3.54-3.92h-2.98v-1.35h4.4a6.9 6.9 0 0 1-5.33 6.7z" fill-rule="nonzero"/><path d="M42.64 13.43v3.69q-.51.62-1.45.96-.94.34-2.08.34-1.2 0-2.11-.53-.9-.52-1.4-1.52-.49-.99-.5-2.34v-.63q0-1.38.47-2.39.46-1.02 1.34-1.55.88-.54 2.06-.54 1.65 0 2.57.78.93.79 1.1 2.29h-1.85q-.13-.8-.56-1.17-.44-.36-1.2-.36-.97 0-1.48.73-.51.73-.51 2.17v.59q0 1.45.55 2.19.55.75 1.62.75 1.07 0 1.53-.46v-1.59H39v-1.41h3.64zm7.26 4.86h-1.86q-.12-.25-.18-.62-.67.74-1.73.74-1.01 0-1.68-.58-.66-.59-.66-1.47 0-1.1.81-1.68.81-.58 2.34-.59h.84v-.39q0-.48-.24-.77-.25-.28-.77-.28-.47 0-.73.22-.26.22-.26.61h-1.84q0-.6.37-1.1.37-.51 1.04-.8.67-.29 1.51-.29 1.27 0 2.02.64.74.64.74 1.79v2.98q.01.98.28 1.48v.11zm-3.37-1.28q.4 0 .74-.18.35-.18.51-.49v-1.18h-.68q-1.38 0-1.47.95l-.01.11q0 .34.25.57.24.22.66.22zm4.86-7.28h1.84v1.69h1.17v1.34h-1.17v3.43q0 .38.14.55.15.16.56.16.31 0 .54-.04v1.39q-.54.16-1.11.16-1.93 0-1.97-1.95v-3.7h-1v-1.34h1V9.73zm7.76 6.66q0-.34-.33-.53-.34-.2-1.07-.35-2.45-.51-2.45-2.08 0-.91.75-1.53.76-.61 1.99-.61 1.31 0 2.09.62.78.61.78 1.6h-1.83q0-.4-.25-.66-.26-.25-.8-.25-.46 0-.72.21-.25.21-.25.53 0 .3.29.49.29.19.97.33.69.13 1.16.3 1.45.54 1.45 1.85 0 .94-.8 1.52-.81.58-2.09.58-.86 0-1.53-.31-.67-.3-1.05-.84-.38-.54-.38-1.16h1.74q.02.49.36.75.34.26.9.26.53 0 .8-.2.27-.2.27-.52zm9.15-1.57v.1q0 1.65-.71 2.57-.7.93-1.96.93-1.12 0-1.79-.86l-.08.73h-1.65V8.54h1.83v3.5q.64-.75 1.67-.75 1.26 0 1.97.93.72.92.72 2.6zm-1.84-.03q0-1.04-.33-1.52-.33-.48-.98-.48-.88 0-1.21.71v2.71q.34.73 1.22.73.89 0 1.17-.88.13-.42.13-1.27zm4.18-3.37l1.28 4.27 1.27-4.27h1.97l-2.76 7.93-.16.37q-.61 1.34-2.03 1.34-.4 0-.81-.12v-1.39l.28.01q.52 0 .78-.16.25-.16.4-.53l.22-.56-2.41-6.89h1.97z"/></svg>