<svg xmlns="http://www.w3.org/2000/svg" width="60" height="29" stroke="none" stroke-linecap="round" stroke-linejoin="round" fill="#fff" fill-rule="evenodd"><rect height="28" rx="4" width="58.5" fill="#de4c36"/><path d="M22.69 13.5l-7.2-7.19c-.41-.41-1.08-.41-1.5 0L12.5 7.8l1.89 1.9c.44-.15.95-.05 1.3.3.35.36.45.86.3 1.31l1.83 1.82c.44-.15.95-.05 1.3.3.49.5.49 1.29 0 1.79-.49.49-1.29.49-1.79 0-.37-.37-.46-.92-.27-1.38l-1.7-1.7v4.48c.12.06.23.15.33.24.49.5.49 1.29 0 1.79-.49.49-1.29.49-1.79 0-.49-.5-.49-1.29 0-1.79.12-.12.26-.21.42-.27v-4.53c-.16-.06-.3-.15-.42-.27-.37-.38-.46-.92-.27-1.38l-1.87-1.87-4.93 4.93c-.41.42-.41 1.09 0 1.5l7.2 7.2c.41.41 1.08.41 1.5 0l7.16-7.16c.41-.42.41-1.09 0-1.51" fill-rule="nonzero"/><path d="M39.14 13.43v3.69q-.51.62-1.45.96-.94.34-2.08.34-1.2 0-2.11-.53-.9-.52-1.4-1.52-.49-.99-.5-2.34v-.63q0-1.38.47-2.39.46-1.02 1.34-1.55.88-.54 2.06-.54 1.65 0 2.57.78.93.79 1.1 2.29h-1.85q-.13-.8-.56-1.17-.44-.36-1.2-.36-.97 0-1.48.73-.51.73-.51 2.17v.59q0 1.45.55 2.19.55.75 1.62.75 1.07 0 1.53-.46v-1.59H35.5v-1.41h3.64zm3.36-2.01v6.87h-1.84v-6.87h1.84zm-1.95-1.77q0-.42.28-.68.27-.27.75-.27.47 0 .75.27.28.26.28.68 0 .41-.29.68-.28.27-.74.27-.47 0-.75-.27-.28-.27-.28-.68zm3.82.08h1.84v1.69h1.17v1.34h-1.17v3.43q0 .38.14.55.15.16.56.16.31 0 .54-.04v1.39q-.54.16-1.11.16-1.93 0-1.97-1.95v-3.7h-1v-1.34h1V9.73z"/></svg>