<svg xmlns="http://www.w3.org/2000/svg" width="80" height="29" stroke="none" stroke-linecap="round" stroke-linejoin="round" fill="#fff" fill-rule="evenodd"><rect height="28" rx="4" width="79" fill="#000"/><g fill-rule="nonzero"><path d="M15.5 5.07c-5.06 0-9.16 4.1-9.16 9.16 0 4.05 2.62 7.48 6.26 8.69.46.09.63-.2.63-.44l-.01-1.7c-2.55.55-3.09-1.08-3.09-1.08-.41-1.06-1.02-1.34-1.02-1.34-.83-.57.07-.56.07-.56.92.06 1.4.94 1.4.94.82 1.4 2.14 1 2.67.76.08-.59.32-.99.58-1.22-2.04-.23-4.17-1.02-4.17-4.53 0-1 .35-1.82.94-2.46-.1-.23-.41-1.16.09-2.42 0 0 .77-.25 2.52.94.73-.2 1.51-.31 2.29-.31s1.56.11 2.3.31c1.74-1.19 2.51-.94 2.51-.94.5 1.26.19 2.19.09 2.42.59.64.94 1.46.94 2.46 0 3.52-2.14 4.3-4.18 4.52.33.29.62.84.62 1.7l-.01 2.51c0 .25.17.53.63.44 3.64-1.21 6.26-4.64 6.26-8.69 0-5.06-4.1-9.16-9.16-9.16"/><path d="M9.78 18.12c-.02.04-.1.05-.16.02-.07-.03-.11-.09-.08-.13.02-.05.09-.06.15-.03.07.03.11.09.09.14m.45.4c-.05.04-.13.02-.19-.04-.06-.07-.07-.15-.03-.2.05-.04.13-.02.19.05.06.06.07.15.03.19m.31.51c-.06.04-.15 0-.21-.08s-.06-.18 0-.22c.06-.03.15 0 .21.08.05.08.05.18 0 .22m.52.6c-.05.05-.16.04-.24-.04-.08-.07-.1-.18-.05-.23.05-.06.16-.04.24.03.08.08.1.18.05.24m.67.2c-.02.07-.12.1-.23.07-.1-.03-.17-.11-.15-.19.03-.07.13-.1.23-.07.11.03.18.12.15.19m.77.08c.01.08-.08.14-.19.14-.11.01-.2-.06-.2-.13 0-.08.08-.14.19-.14s.2.06.2.13m.76-.02c.01.07-.06.14-.17.16s-.21-.02-.22-.09c-.01-.08.06-.16.17-.18.11-.01.2.03.22.11"/></g><path d="M39.14 13.43v3.69q-.51.62-1.45.96-.94.34-2.08.34-1.2 0-2.11-.53-.9-.52-1.4-1.52-.49-.99-.5-2.34v-.63q0-1.38.47-2.39.46-1.02 1.34-1.55.88-.54 2.06-.54 1.65 0 2.57.78.93.79 1.1 2.29h-1.85q-.13-.8-.56-1.17-.44-.36-1.2-.36-.97 0-1.48.73-.51.73-.51 2.17v.59q0 1.45.55 2.19.55.75 1.62.75 1.07 0 1.53-.46v-1.59H35.5v-1.41h3.64zm3.36-2.01v6.87h-1.84v-6.87h1.84zm-1.95-1.77q0-.42.28-.68.27-.27.75-.27.47 0 .75.27.28.26.28.68 0 .41-.29.68-.28.27-.74.27-.47 0-.75-.27-.28-.27-.28-.68zm3.82.08h1.84v1.69h1.17v1.34h-1.17v3.43q0 .38.14.55.15.16.56.16.31 0 .54-.04v1.39q-.54.16-1.11.16-1.93 0-1.97-1.95v-3.7h-1v-1.34h1V9.73zm5.82-1.19v3.63q.73-.88 1.84-.88 2.23 0 2.27 2.6v4.4h-1.84v-4.35q0-.59-.25-.87-.26-.28-.85-.28-.8 0-1.17.62v4.88h-1.83V8.54h1.83zm9.65 9.75l-.05-.7q-.68.83-1.88.83-1.11 0-1.69-.64-.58-.63-.59-1.86v-4.5h1.83v4.44q0 1.07.98 1.07.94 0 1.28-.65v-4.86h1.85v6.87h-1.73zm9.3-3.47v.1q0 1.65-.71 2.57-.7.93-1.96.93-1.12 0-1.79-.86l-.08.73h-1.65V8.54h1.83v3.5q.64-.75 1.67-.75 1.26 0 1.97.93.72.92.72 2.6zm-1.84-.03q0-1.04-.33-1.52-.33-.48-.98-.48-.88 0-1.21.71v2.71q.34.73 1.22.73.89 0 1.17-.88.13-.42.13-1.27z"/></svg>