<svg xmlns="http://www.w3.org/2000/svg" width="92" height="29" stroke="none" stroke-linecap="round" stroke-linejoin="round" fill="#fff" fill-rule="evenodd"><rect height="28" rx="4" width="91" fill="#e10098"/><g fill-rule="nonzero"><path d="M7.05 19l-.7-.4 7.81-13.53.7.4z"/><path d="M6.19 17.52h15.62v.81H6.19z"/><path d="M14.31 22.49L6.5 17.98l.4-.7 7.82 4.51zm6.79-11.76l-7.81-4.51.4-.7 7.82 4.51z"/><path d="M6.9 10.72l-.4-.7 7.82-4.51.41.7z"/><path d="M20.96 19.01L13.15 5.47l.7-.4 7.81 13.53zM6.81 9.49h.81v9.02h-.81zm13.58 0h.81v9.02h-.81z"/><path d="M14.17 22.15l-.35-.62 6.8-3.92.35.61z"/><path d="M22.27 18.78c-.47.81-1.51 1.09-2.33.62-.81-.47-1.09-1.51-.62-2.33a1.7 1.7 0 1 1 2.95 1.71M8.68 10.93c-.47.81-1.51 1.09-2.33.62a1.7 1.7 0 0 1-.62-2.32 1.7 1.7 0 0 1 2.32-.63 1.7 1.7 0 0 1 .63 2.33m-2.95 7.85a1.7 1.7 0 1 1 2.95-1.71c.47.82.19 1.86-.62 2.33-.82.47-1.86.19-2.33-.62m13.59-7.85a1.7 1.7 0 0 1 .63-2.33 1.7 1.7 0 0 1 2.32.63 1.7 1.7 0 0 1-.62 2.32c-.82.47-1.86.19-2.33-.62M14 23.55c-.69 0-1.31-.41-1.57-1.05a1.7 1.7 0 0 1 2.22-2.22c.64.26 1.05.88 1.05 1.57a1.7 1.7 0 0 1-1.7 1.7m0-15.7c-.45.01-.89-.17-1.2-.49-.32-.32-.5-.76-.5-1.21 0-.61.32-1.17.85-1.47.53-.31 1.17-.31 1.7 0 .53.3.85.86.85 1.47 0 .45-.18.89-.5 1.21s-.75.49-1.2.49"/></g><path d="M39.14 13.43v3.69q-.51.62-1.45.96-.94.34-2.08.34-1.2 0-2.11-.53-.9-.52-1.4-1.52-.49-.99-.5-2.34v-.63q0-1.38.47-2.39.46-1.02 1.34-1.55.88-.54 2.06-.54 1.65 0 2.57.78.93.79 1.1 2.29h-1.85q-.13-.8-.56-1.17-.44-.36-1.2-.36-.97 0-1.48.73-.51.73-.51 2.17v.59q0 1.45.55 2.19.55.75 1.62.75 1.07 0 1.53-.46v-1.59H35.5v-1.41h3.64zm5.3-2.06l-.02 1.77q-.38-.05-.66-.05-1.04 0-1.37.7v4.5h-1.83v-6.87h1.73l.05.82q.56-.95 1.53-.95.31 0 .57.08zm6.51 6.92h-1.86q-.12-.25-.18-.62-.67.74-1.73.74-1.01 0-1.68-.58-.66-.59-.66-1.47 0-1.1.81-1.68.81-.58 2.34-.59h.84v-.39q0-.48-.24-.77-.25-.28-.77-.28-.47 0-.73.22-.26.22-.26.61h-1.84q0-.6.37-1.1.37-.51 1.04-.8.67-.29 1.51-.29 1.27 0 2.02.64.74.64.74 1.79v2.98q.01.98.28 1.48v.11zm-3.37-1.28q.4 0 .74-.18.35-.18.51-.49v-1.18h-.68q-1.38 0-1.47.95l-.01.11q0 .34.25.57.24.22.66.22zm10.68-2.19v.09q0 1.59-.72 2.55-.72.95-1.94.95-1.04 0-1.69-.72v3.24h-1.83v-9.51h1.7l.06.67q.67-.8 1.74-.8 1.27 0 1.98.94.7.94.7 2.59zm-1.83-.04q0-.96-.34-1.48-.34-.52-.99-.52-.86 0-1.19.66v2.81q.34.68 1.2.68 1.32 0 1.32-2.15zm4.76-6.24v3.63q.73-.88 1.84-.88 2.23 0 2.27 2.6v4.4h-1.84v-4.35q0-.59-.25-.87-.26-.28-.85-.28-.8 0-1.17.62v4.88h-1.83V8.54h1.83zm13.19 4.92v.42q0 1.29-.42 2.25-.42.95-1.16 1.53l1.54 1.21-1.22 1.07-1.96-1.58q-.34.06-.7.06-1.15 0-2.05-.56-.9-.55-1.4-1.57-.49-1.03-.5-2.36v-.46q0-1.36.49-2.4.49-1.04 1.39-1.59.9-.56 2.06-.56 1.15 0 2.05.56.9.55 1.39 1.59.49 1.04.49 2.39zm-1.93.45v-.45q0-1.46-.52-2.21-.52-.76-1.48-.76-.96 0-1.48.75-.52.75-.53 2.19v.45q0 1.41.52 2.19.52.78 1.5.78.96 0 1.47-.75.52-.75.52-2.19zm5.22-4.86v7.71h4.05v1.53h-5.95V9.05h1.9z"/></svg>