<svg xmlns="http://www.w3.org/2000/svg" width="66" height="29" stroke="none" stroke-linecap="round" stroke-linejoin="round" fill="#fff" fill-rule="evenodd"><path d="M0 4c0-2.22 1.51-4 3.39-4h57.72c1.88 0 3.39 1.78 3.39 4v20c0 2.22-1.51 4-3.39 4H3.39C1.51 28 0 26.22 0 24z" fill="#d34a47"/><g fill-rule="nonzero"><path d="M14.33 23.91l.2-3.37.56-.95s-1.27.52-3.4.52-3.38-.51-3.38-.51l.62 1.04.22 3.27c0 .36 1.16.64 2.59.64s2.59-.28 2.59-.64m-.64-15.75l.43-1.68 2.35-2.47-.62-.53-2.49 2.64-.5 2-1.11-.01C9.13 8.11 7 8.4 7 8.77s2.13.67 4.75.67 4.75-.3 4.75-.67c0-.27-1.15-.5-2.81-.61"/><path d="M13.44 9.1s-.09.02-.36.02-.46 0-.54-.07c-.02-.02-.03-.06-.03-.08 0-.05.03-.08.08-.1l.04.07c-.02.01-.03.01-.03.02 0 .04.28.06.49.06s.47-.02.47-.06c0-.01-.02-.02-.06-.03l.05-.06c.05.02.1.05.1.11 0 .09-.13.11-.21.12m3.02-5.09c.06-.07-.03-.24-.2-.39s-.36-.21-.41-.14c-.06.07.03.24.2.39.17.14.35.21.41.14m-2.25 11.66c-.05-.53 1.18-1.31.86-1.34-.68.04-1.02.8-1.36 1.59-.12.29-.55 1.53-.83 1.38s.36-1.17.54-1.78c-.21.16-.97.75-1.17.19-.32.27-.99.42-.92-.29-.17.3-.54.72-1 .54-.59-.22.35-2.12.58-2.03.24.1-.05.53-.12.7-.16.37-.35.83-.22.93.21.16.79-.62.81-.63.11-.15.42-1.09.67-.98.25.1-.63 1.35-.3 1.6.07.05.34-.03.5-.21.11-.12.07-.37.43-1.22.35-.84.67-1.9.91-1.82.24.09.04.63-.04.83-.41.94-1.12 2.51-.79 2.39.34-.12.51-.13.84-.51.32-.38.31-1.01.53-1 .21.01.18.22.12.37.22-.25 1.02-.76 1.22-.25.22.6-1.15 1.48-.81 1.44.34-.05.88-.39 1.11-.7l.64-5.73s-.64.53-4.72.53c-4.09 0-4.66-.52-4.66-.52l.54 5.23c.29-.82.97-2.48 2.05-2.42.49.02 1.15.97.59 1-.24.01-.26-.47-.55-.54-.2-.05-.48.11-.66.29-.37.36-1.15 1.76-1.05 2.46.14.9 1.24-.31 1.42-.67.13-.25.22-.99.51-.92.29.08-.03.85-.23 1.53-.24.77-.36 1.57-.65 1.48-.3-.09.18-1.08.16-1.25-.27.25-.78.9-1.43.58l.34 3.25s.9.7 3.59.7c2.7 0 3.63-.69 3.63-.69l.42-3.77c-.34.34-1.43.93-1.5.26"/></g><path d="M34.14 13.43v3.69q-.51.62-1.45.96-.94.34-2.08.34-1.2 0-2.11-.53-.9-.52-1.4-1.52-.49-.99-.5-2.34v-.63q0-1.38.47-2.39.46-1.02 1.34-1.55.88-.54 2.06-.54 1.65 0 2.57.78.93.79 1.1 2.29h-1.85q-.13-.8-.56-1.17-.44-.36-1.2-.36-.97 0-1.48.73-.51.73-.51 2.17v.59q0 1.45.55 2.19.55.75 1.62.75 1.07 0 1.53-.46v-1.59H30.5v-1.41h3.64zm5.59 4.86l-.05-.7q-.68.83-1.88.83-1.11 0-1.69-.64-.58-.63-.59-1.86v-4.5h1.83v4.44q0 1.07.98 1.07.94 0 1.28-.65v-4.86h1.85v6.87h-1.73zm5.04-9.75v9.75h-1.84V8.54h1.84zm7.69 6.28v.09q0 1.59-.72 2.55-.72.95-1.94.95-1.04 0-1.69-.72v3.24h-1.83v-9.51h1.7l.06.67q.67-.8 1.74-.8 1.27 0 1.98.94.7.94.7 2.59zm-1.83-.04q0-.96-.34-1.48-.34-.52-.99-.52-.86 0-1.19.66v2.81q.34.68 1.2.68 1.32 0 1.32-2.15z"/></svg>