<svg xmlns="http://www.w3.org/2000/svg" width="79" height="29" stroke="none" stroke-linecap="round" stroke-linejoin="round" fill="#fff" fill-rule="evenodd"><rect height="28" rx="4" width="78" fill="#e34f26"/><g fill-rule="nonzero"><path d="M8.5 21.14L7.22 5.5l15.28.03-1.35 15.61-6.23 1.81z"/><path d="M14.92 21.44V6.99l6.29.02-1.12 12.92z"/><path d="M19.48 10.6l.18-1.91H9.98l.53 5.85h6.69l-.26 2.5-2.14.58-2.18-.63-.11-1.49h-1.92l.26 3.04 3.95 1.1 3.97-1.1.54-5.94h-7.02l-.2-2z" fill="#e34f26"/></g><path d="M40.85 9.05v9.24h-1.9v-3.96h-3.72v3.96h-1.9V9.05h1.9v3.75h3.72V9.05h1.9zm1.9.68h1.84v1.69h1.17v1.34h-1.17v3.43q0 .38.14.55.15.16.56.16.31 0 .54-.04v1.39q-.54.16-1.11.16-1.93 0-1.97-1.95v-3.7h-1v-1.34h1V9.73zm4.04 1.69h1.72l.06.77q.73-.9 1.97-.9 1.33 0 1.82 1.05.73-1.05 2.07-1.05 1.11 0 1.66.65.55.65.55 1.96v4.39h-1.85v-4.38q0-.59-.22-.86-.23-.27-.81-.27-.83 0-1.14.79v4.72h-1.83v-4.38q0-.6-.24-.86-.23-.27-.8-.27-.78 0-1.13.65v4.86h-1.83v-6.87zm13.19-2.88v9.75h-1.84V8.54h1.84zm3.16 5.57l-1.46-.36.54-4.7h5.18v1.53h-3.68l-.23 1.99q.66-.35 1.39-.35 1.32 0 2.07.82.75.82.75 2.29 0 .89-.38 1.6-.37.71-1.08 1.1-.7.39-1.66.39-.84 0-1.56-.34-.71-.34-1.13-.96-.41-.61-.44-1.4h1.82q.05.58.4.9.34.32.9.32.63 0 .96-.45.34-.44.34-1.26 0-.79-.39-1.21-.39-.42-1.1-.42-.65 0-1.06.34l-.18.17z"/></svg>