<svg xmlns="http://www.w3.org/2000/svg" xmlns:xlink="http://www.w3.org/1999/xlink" width="106" height="29" stroke="#000" stroke-linecap="round" stroke-linejoin="round" fill="#fff" fill-rule="evenodd"><g stroke="none"><rect fill="#ffea00" height="28" rx="4" width="104.5"/><path d="M6 5h18v18H6z"/><g fill="#000"><path d="M14.11 19.17v-5.85h1.57v5.85c0 2.25-3.15 3.6-4.95.9l1.35-.9c.68 1.35 2.03.9 2.03 0zm6.75-3.82c-.91-1.24-2.03-.68-2.03.11 0 1.24 3.71 1.01 3.71 3.71-.11 3.15-4.5 3.04-5.85.68l1.35-.79c1.02 1.57 2.82 1.01 2.82.11-.12-1.57-3.6-.79-3.6-3.71-.12-2.25 3.26-3.49 4.83-.9l-1.23.79m17.57.1v-6.4h1.9v6.4q0 .88-.39 1.56-.39.67-1.1 1.04-.71.37-1.61.37-1.46 0-2.28-.75-.82-.74-.82-2.11h1.92q0 .68.28 1.01.29.32.9.32.55 0 .87-.38.33-.37.33-1.06z"/><use xlink:href="#B"/><path d="M50.01 11.42l1.27 4.63 1.28-4.63h1.92l-2.32 6.87h-1.75l-2.32-6.87h1.92z"/><use xlink:href="#B" x="13.35"/><path d="M67.07 15.86q0-.54-.38-.82-.38-.29-1.37-.61-.99-.32-1.57-.63-1.57-.86-1.57-2.3 0-.75.42-1.33.42-.59 1.21-.92.79-.33 1.77-.33.99 0 1.77.36.77.36 1.2 1.01.43.65.43 1.49h-1.9q0-.64-.4-.99-.4-.35-1.13-.35-.7 0-1.08.29-.39.3-.39.78 0 .45.45.76.46.3 1.34.57 1.62.49 2.37 1.21.74.72.74 1.8 0 1.2-.91 1.88-.91.69-2.44.69-1.07 0-1.94-.39-.88-.39-1.34-1.07-.46-.68-.46-1.58h1.91q0 1.53 1.83 1.53.68 0 1.06-.27.38-.28.38-.78zm5.94 1.08q.51 0 .83-.28.31-.28.33-.74h1.72q-.01.7-.38 1.28-.38.58-1.03.9-.65.32-1.44.32-1.47 0-2.32-.93-.85-.94-.85-2.59v-.12q0-1.59.84-2.53.85-.95 2.32-.95 1.29 0 2.07.73.77.74.79 1.96h-1.72q-.02-.54-.33-.87-.32-.33-.84-.33-.64 0-.97.46-.33.47-.33 1.52v.19q0 1.06.33 1.52.32.46.98.46zm7.8-5.56l-.02 1.77q-.38-.05-.66-.05-1.04 0-1.37.7v4.5h-1.83v-6.87h1.73l.05.82q.56-.95 1.53-.95.31 0 .57.08zm2.8.04v6.87h-1.84v-6.87h1.84zm-1.95-1.77q0-.42.28-.68.27-.27.75-.27.47 0 .75.27.28.26.28.68 0 .41-.29.68-.28.27-.74.27-.47 0-.75-.27-.28-.27-.28-.68zm9.64 5.18v.09q0 1.59-.72 2.55-.72.95-1.94.95-1.04 0-1.69-.72v3.24h-1.83v-9.51h1.7l.06.67q.67-.8 1.74-.8 1.27 0 1.98.94.7.94.7 2.59zm-1.83-.04q0-.96-.34-1.48-.34-.52-.99-.52-.86 0-1.19.66v2.81q.34.68 1.2.68 1.32 0 1.32-2.15zm3.33-5.06h1.84v1.69h1.17v1.34h-1.17v3.43q0 .38.14.55.15.16.56.16.31 0 .54-.04v1.39q-.54.16-1.11.16-1.93 0-1.97-1.95v-3.7h-1v-1.34h1V9.73z"/><path d="M362.53 577.05c-4.66 2.93-6.13 4.93-2 2.67 2.94-1.74 7.74-5.34 6.94-5.47-.4 0-2.67 1.33-4.94 2.8zm-9.2 6c-2.4 1.87-2.4 2 .54.53 1.6-.8 2.93-1.73 2.93-2 0-1.06-.67-.8-3.47 1.47zm-6.66 4c-2.4 1.87-2.4 2 .53.53 1.6-.8 2.93-1.73 2.93-2 0-1.06-.66-.8-3.46 1.47zm-6.67 4c-2.4 1.86-2.4 2 .53.53 1.6-.8 2.94-1.73 2.94-2 0-1.06-.67-.8-3.47 1.47zm-10.13 5.33c-5.07 2.67-4.8 3.73.27 1.2 2.26-1.2 4-2.4 4-2.67 0-.93-.14-.8-4.27 1.47z" fill-rule="nonzero"/></g></g><defs ><path id="B" d="M47.68 18.3h-1.86q-.12-.25-.18-.62-.67.74-1.73.74-1.01 0-1.68-.58-.66-.59-.66-1.47 0-1.1.81-1.68.81-.58 2.34-.59h.84v-.39q0-.48-.24-.77-.25-.28-.77-.28-.47 0-.73.22-.26.22-.26.61h-1.84q0-.6.37-1.1.37-.51 1.04-.8.67-.29 1.51-.29 1.27 0 2.02.64.74.64.74 1.79v2.98q.01.98.28 1.48v.11zm-3.37-1.28q.4 0 .74-.18.35-.18.51-.49v-1.18h-.68q-1.38 0-1.47.95l-.01.11q0 .34.25.57.24.22.66.22z"/></defs></svg>