<svg xmlns="http://www.w3.org/2000/svg" width="69" height="29" stroke="none" stroke-linecap="round" stroke-linejoin="round" fill="#fff" fill-rule="evenodd"><rect fill="#fb015b" height="28" rx="4" width="67.5"/><g fill-rule="nonzero"><path d="M17.89 10.34l-.02-4.84h-2.7l.02 4.84 1.35 1.86zm-2.7 8.3v4.87h2.7v-4.87l-1.35-1.85z"/><path d="M17.88 18.65l2.85 3.92 2.18-1.58-2.85-3.93-2.18-.7zm-2.7-8.3l-2.86-3.93L10.14 8l2.84 3.93 2.2.7z"/><path d="M12.99 11.92l-4.61-1.49-.83 2.56 4.61 1.51 2.18-.72zm5.72 3.28l1.35 1.86 4.61 1.49.83-2.56-4.61-1.49z"/><path d="M20.89 14.5l4.61-1.51-.83-2.56-4.61 1.49-1.35 1.86zm-8.73 0l-4.61 1.49.83 2.56 4.61-1.49 1.35-1.86z"/><path d="M12.98 17.06l-2.84 3.93 2.18 1.58 2.86-3.92v-2.29zm7.08-5.13L22.91 8l-2.18-1.58-2.85 3.93v2.28z"/></g><path d="M38.55 15.45v-6.4h1.9v6.4q0 .88-.39 1.56-.39.67-1.1 1.04-.71.37-1.61.37-1.46 0-2.28-.75-.82-.74-.82-2.11h1.92q0 .68.28 1.01.29.32.9.32.55 0 .87-.38.33-.37.33-1.06zm8.14-4.03l1.25 4.37.9-4.37h1.77l-1.75 6.87h-1.54l-1.3-4.32-1.3 4.32h-1.53l-1.75-6.87h1.77l.9 4.37 1.25-4.37h1.33zm5.18-1.68h1.84v1.69h1.17v1.34h-1.17v3.43q0 .38.14.55.15.16.56.16.31 0 .54-.04v1.39q-.54.16-1.11.16-1.93 0-1.97-1.95v-3.7h-1v-1.34h1V9.74z"/></svg>