<svg xmlns="http://www.w3.org/2000/svg" xmlns:xlink="http://www.w3.org/1999/xlink" width="118" height="29" stroke="#000" stroke-linecap="round" stroke-linejoin="round" fill="#fff" fill-rule="evenodd"><g stroke="none"><rect fill="#355ec9" height="28" rx="4" width="117"/><path d="M15.31 18.18c-.47 0-.84.37-.84.84v3.34c0 .46.37.83.84.83.46 0 .83-.37.83-.83v-3.34c0-.47-.37-.84-.83-.84zm0-13.37c-.47 0-.84.37-.84.84v3.34c0 .46.37.83.84.83.46 0 .83-.37.83-.83V5.65c0-.47-.37-.84-.83-.84zm4.13 12.14c-.33-.32-.86-.32-1.19 0-.32.33-.32.86 0 1.19l2.37 2.36c.16.16.37.24.59.24.21 0 .43-.08.59-.24.33-.33.33-.86 0-1.18l-2.36-2.37zm-9.98-3.79H7.79c-.47 0-.84.37-.84.84 0 .46.37.83.84.83h1.67c.46 0 .83-.37.83-.83 0-.47-.37-.84-.83-.84zm.53-5.66c-.33-.32-.86-.32-1.19 0-.32.33-.32.86 0 1.19l2.37 2.36c.16.16.37.24.59.24.21 0 .43-.08.59-.24.33-.33.33-.86 0-1.18L9.99 7.5zm13.67 5.66h-3.34c-.47 0-.84.37-.84.84 0 .46.37.83.84.83h3.34c.46 0 .83-.37.83-.83 0-.47-.37-.84-.83-.84zM20.62 7.5l-2.37 2.37c-.32.32-.32.85 0 1.18.17.16.38.24.6.24.21 0 .42-.08.59-.24l2.36-2.36c.33-.33.33-.86 0-1.19-.33-.32-.86-.32-1.18 0z" fill-rule="nonzero"/><path d="M37.73 9.05v7.71h4.05v1.53h-5.95V9.05h1.9z"/><use xlink:href="#B"/><path d="M55.08 12.51l-3.26 4.3h3.36v1.48h-5.7v-1.12l3.23-4.26h-3.13v-1.49h5.5v1.09zm2.54-1.09l1.28 4.27 1.27-4.27h1.97l-2.76 7.93-.16.37q-.61 1.34-2.03 1.34-.4 0-.81-.12v-1.39l.28.01q.52 0 .78-.16.25-.16.4-.53l.22-.56-2.41-6.89h1.97zm10.41-2.88v9.75h-1.84V8.54h1.84zm1.23 6.33v-.08q0-1.02.39-1.82.4-.8 1.14-1.24.74-.44 1.71-.44 1.39 0 2.27.85.88.85.98 2.31l.02.47q0 1.58-.89 2.54-.88.95-2.36.95-1.49 0-2.37-.95-.89-.95-.89-2.59zm1.83.05q0 .98.37 1.5.37.51 1.06.51.66 0 1.04-.51.37-.51.37-1.63 0-.96-.37-1.49-.38-.52-1.06-.52-.67 0-1.04.52-.37.52-.37 1.62z"/><use xlink:href="#B" x="34.14"/><path d="M83.58 14.81q0-1.61.72-2.56.72-.96 1.97-.96 1 0 1.66.75v-3.5h1.84v9.75h-1.66l-.09-.73q-.68.86-1.76.86-1.21 0-1.95-.96-.73-.95-.73-2.65zm1.83.13q0 .96.34 1.48.34.51.98.51.85 0 1.2-.72V13.5q-.34-.71-1.19-.71-1.33 0-1.33 2.15zm7.72-3.52v6.87h-1.84v-6.87h1.84zm-1.95-1.77q0-.42.28-.68.27-.27.75-.27.47 0 .75.27.28.26.28.68 0 .41-.29.68-.28.27-.74.27-.47 0-.75-.27-.28-.27-.28-.68zm3.42 1.77h1.73l.05.79q.74-.92 1.98-.92 1.09 0 1.62.64.54.64.55 1.92v4.44h-1.84v-4.4q0-.58-.25-.84-.25-.27-.84-.27-.78 0-1.17.66v4.85H94.6v-6.87zm7.05 3.46v-.08q0-1.58.75-2.55.75-.96 2.03-.96 1.13 0 1.76.77l.07-.64h1.67v6.64q0 .9-.41 1.56-.41.67-1.15 1.02-.75.35-1.74.35-.76 0-1.48-.3-.71-.3-1.08-.78l.81-1.12q.69.77 1.66.77.73 0 1.14-.39.41-.39.41-1.11v-.37q-.64.72-1.67.72-1.24 0-2.01-.97-.76-.96-.76-2.56zm1.83.05q0 .94.38 1.47.37.53 1.03.53.84 0 1.2-.63v-2.89q-.37-.63-1.19-.63-.66 0-1.04.54-.38.54-.38 1.61z"/></g><defs ><path id="B" d="M48.59 18.29h-1.86q-.12-.25-.18-.62-.67.74-1.73.74-1.01 0-1.68-.58-.66-.59-.66-1.47 0-1.1.81-1.68.81-.58 2.34-.59h.84v-.39q0-.48-.24-.77-.25-.28-.77-.28-.47 0-.73.22-.26.22-.26.61h-1.84q0-.6.37-1.1.37-.51 1.04-.8.67-.29 1.51-.29 1.27 0 2.02.64.74.64.74 1.79v2.98q.01.98.28 1.48v.11zm-3.37-1.28q.4 0 .74-.18.35-.18.51-.49v-1.18h-.68q-1.38 0-1.47.95l-.01.11q0 .34.25.57.24.22.66.22z"/></defs></svg>