<svg xmlns="http://www.w3.org/2000/svg" width="116" height="29" stroke="none" stroke-linecap="round" stroke-linejoin="round" fill="#fff" fill-rule="evenodd"><rect height="28" rx="4" width="114.5" fill="#000"/><path d="M31.64 22.32H8.44c-1.05 0-1.94-.89-1.94-1.94V7.61c0-1.05.89-1.94 1.94-1.94h23.12c1.05 0 1.94.89 1.94 1.94v12.77a1.9 1.9 0 0 1-1.86 1.94zM8.44 6.96c-.32 0-.65.33-.65.65v12.77c0 .41.33.65.65.65h23.12c.4 0 .65-.32.65-.65V7.61c0-.4-.33-.65-.65-.65H8.44zm1.94 11.48V9.55h2.59l2.58 3.23 2.59-3.23h2.59v8.89h-2.59v-5.09l-2.59 3.23-2.58-3.23v5.09h-2.59zm16.25 0l-3.88-4.28h2.59V9.55h2.58v4.53h2.59l-3.88 4.36z" fill-rule="nonzero"/><path d="M44.33 9.05h2.49l2.37 6.7 2.36-6.7h2.5v9.24h-1.91v-2.52l.19-4.36-2.49 6.88h-1.31l-2.49-6.88.19 4.36v2.52h-1.9V9.05zm17.1 9.24h-1.86q-.12-.25-.18-.62-.67.74-1.73.74-1.01 0-1.68-.58-.66-.59-.66-1.47 0-1.1.81-1.68.81-.58 2.34-.59h.84v-.39q0-.48-.24-.77-.25-.28-.77-.28-.47 0-.73.22-.26.22-.26.61h-1.84q0-.6.37-1.1.37-.51 1.04-.8.67-.29 1.51-.29 1.27 0 2.02.64.74.64.74 1.79v2.98q.01.98.28 1.48v.11zm-3.37-1.28q.4 0 .74-.18.35-.18.51-.49v-1.18h-.68q-1.38 0-1.47.95l-.01.11q0 .34.25.57.24.22.66.22zm8.39-5.64l-.02 1.77q-.38-.05-.66-.05-1.04 0-1.37.7v4.5h-1.83v-6.87h1.73l.05.82q.56-.95 1.53-.95.31 0 .57.08zm5.12 6.92l-1.77-2.75-.66.66v2.09h-1.83V8.54h1.83v5.4l.36-.46 1.76-2.06h2.2l-2.48 2.86 2.7 4.01h-2.11zm2.27-3.48q0-1.61.72-2.56.72-.96 1.97-.96 1 0 1.66.75v-3.5h1.84v9.75h-1.66l-.09-.73q-.68.86-1.76.86-1.21 0-1.95-.96-.73-.95-.73-2.65zm1.83.13q0 .96.34 1.48.34.51.98.51.85 0 1.2-.72V13.5q-.34-.71-1.19-.71-1.33 0-1.33 2.15zm5.5-.07v-.08q0-1.02.39-1.82.4-.8 1.14-1.24.74-.44 1.71-.44 1.39 0 2.27.85.88.85.98 2.31l.02.47q0 1.58-.89 2.54-.88.95-2.36.95-1.49 0-2.37-.95-.89-.95-.89-2.59zm1.83.05q0 .98.37 1.5.37.51 1.06.51.66 0 1.04-.51.37-.51.37-1.63 0-.96-.37-1.49-.38-.52-1.06-.52-.67 0-1.04.52-.37.52-.37 1.62zm10.52-3.5l1.25 4.37.9-4.37h1.77l-1.75 6.87h-1.54l-1.3-4.32-1.3 4.32h-1.53l-1.75-6.87h1.77l.9 4.37 1.25-4.37h1.33zm4.8 0h1.73l.05.79q.74-.92 1.98-.92 1.09 0 1.62.64.54.64.55 1.92v4.44h-1.84v-4.4q0-.58-.25-.84-.25-.27-.84-.27-.78 0-1.17.66v4.85h-1.83v-6.87z"/></svg>