<svg xmlns="http://www.w3.org/2000/svg" xmlns:xlink="http://www.w3.org/1999/xlink" width="114" height="29" stroke="#000" stroke-linecap="round" stroke-linejoin="round" fill="#fff" fill-rule="evenodd"><g stroke="none"><rect height="28" rx="4" width="112.5" fill="#0081cb"/><g fill-rule="nonzero"><path d="M7 15.54V6l8.27 4.77v3.18l-5.52-3.18v6.36z"/><path d="M15.26 10.77L23.53 6v9.54l-5.51 3.18-2.76-1.59 5.51-3.18v-3.18l-5.51 3.18z"/><path d="M15.27 17.13v3.18l5.51 3.18v-3.18z"/><path d="M20.77 23.5l8.27-4.78v-6.36l-2.76 1.59v3.18l-5.51 3.19zm5.51-12.73V7.59L29.04 6v3.18z"/></g><path d="M38.33 9.05h2.49l2.37 6.7 2.36-6.7h2.5v9.24h-1.91v-2.52l.19-4.37-2.49 6.89h-1.31l-2.49-6.88.19 4.36v2.52h-1.9V9.05z"/><use xlink:href="#B"/><path d="M56.93 9.73h1.84v1.69h1.17v1.34h-1.17v3.43q0 .38.14.55.15.16.56.16.31 0 .54-.04v1.39q-.54.16-1.11.16-1.93 0-1.97-1.95v-3.7h-1v-1.34h1V9.73zm7.19 8.68q-1.51 0-2.46-.92-.95-.93-.95-2.47v-.18q0-1.04.4-1.85.4-.82 1.13-1.26.74-.44 1.68-.44 1.4 0 2.21.89.81.89.81 2.52v.75h-4.37q.09.67.54 1.08.44.4 1.13.4 1.06 0 1.66-.76l.9 1q-.42.59-1.12.92-.7.32-1.56.32zm-.21-5.63q-.55 0-.89.36-.34.37-.43 1.06h2.55v-.15q-.01-.61-.33-.94-.32-.33-.9-.33zm7.96-1.41l-.02 1.77q-.38-.05-.66-.05-1.04 0-1.37.7v4.5h-1.83v-6.87h1.73l.05.82q.56-.95 1.53-.95.31 0 .57.08zm2.8.05v6.87h-1.84v-6.87h1.84zm-1.95-1.77q0-.42.28-.68.27-.27.75-.27.47 0 .75.27.28.26.28.68 0 .41-.29.68-.28.27-.74.27-.47 0-.75-.27-.28-.27-.28-.68z"/><use xlink:href="#B" x="26.58"/><path d="M85.08 8.54v9.75h-1.84V8.54h1.84zm9.95.51h1.91v6.09q0 1.51-.94 2.4-.95.88-2.6.88-1.62 0-2.57-.86-.95-.85-.97-2.35V9.05h1.9v6.1q0 .91.44 1.32.43.42 1.2.42 1.61 0 1.63-1.69V9.05zm5.5 0v9.24h-1.9V9.05h1.9z"/></g><defs ><path id="B" d="M55.43 18.29h-1.86q-.12-.25-.18-.62-.67.74-1.73.74-1.01 0-1.68-.58-.66-.59-.66-1.47 0-1.1.81-1.68.81-.58 2.34-.59h.84v-.39q0-.48-.24-.77-.25-.28-.77-.28-.47 0-.73.22-.26.22-.26.61h-1.84q0-.6.37-1.1.37-.51 1.04-.8.67-.29 1.51-.29 1.27 0 2.02.64.74.64.74 1.79v2.98q.01.98.28 1.48v.11zm-3.37-1.28q.4 0 .74-.18.35-.18.51-.49v-1.18h-.68q-1.38 0-1.47.95l-.01.11q0 .34.25.57.24.22.66.22z"/></defs></svg>