<svg xmlns="http://www.w3.org/2000/svg" xmlns:xlink="http://www.w3.org/1999/xlink" width="96" height="29" stroke="#000" stroke-linecap="round" stroke-linejoin="round" fill="#fff" fill-rule="evenodd"><g stroke="none"><rect height="28" rx="4" width="95" fill="#599636"/><g fill-rule="nonzero"><path d="M11.43 4.05l.53 1c.12.19.25.35.4.5.45.45.87.92 1.25 1.42.91 1.19 1.52 2.51 1.95 3.93.27.87.41 1.77.42 2.67a9.4 9.4 0 0 1-2.75 6.95c-.31.31-.63.59-.98.84-.19 0-.28-.14-.35-.27-.14-.25-.23-.51-.27-.79-.07-.32-.11-.65-.09-.99v-.15c-.02-.03-.18-15.03-.11-15.11z"/><path d="M11.43 4.02c-.02-.04-.04-.01-.07.01.01.22-.06.42-.18.6-.13.19-.31.33-.48.48-.97.84-1.73 1.85-2.34 2.99-.81 1.52-1.23 3.16-1.35 4.88a15.6 15.6 0 0 0 .39 3.44c.53 1.68 1.49 3.08 2.73 4.3l.97.83c.1 0 .11-.09.13-.15.05-.14.08-.28.1-.43l.22-1.63z"/><path d="M11.96 22.02c.02-.25.14-.45.27-.66-.13-.05-.23-.16-.3-.28a1.9 1.9 0 0 1-.16-.36c-.16-.46-.19-.94-.23-1.41v-.28c-.06.04-.07.41-.07.47a12.3 12.3 0 0 1-.19 1.47c-.04.2-.06.39-.18.57 0 .02 0 .04.01.07a6.3 6.3 0 0 1 .28 1.77v.22c0 .26-.01.2.21.29.09.03.18.04.27.11.07 0 .08-.06.08-.1l-.03-.36v-1c-.01-.18.02-.35.04-.51z"/></g><path d="M27.83 9.05h2.49l2.37 6.7 2.36-6.7h2.5v9.24h-1.91v-2.52l.19-4.37-2.49 6.89h-1.31l-2.49-6.88.19 4.36v2.52h-1.9V9.05z"/><use xlink:href="#B"/><path d="M46.41 11.43h1.73l.05.79q.74-.92 1.98-.92 1.09 0 1.62.64.54.64.55 1.92v4.44H50.5v-4.4q0-.58-.25-.84-.25-.27-.84-.27-.78 0-1.17.66v4.85h-1.83v-6.87zm7.05 3.46v-.08q0-1.58.75-2.55.75-.96 2.03-.96 1.13 0 1.76.77l.07-.64h1.67v6.64q0 .9-.41 1.56-.41.67-1.15 1.02-.75.35-1.74.35-.76 0-1.48-.3-.71-.3-1.08-.78l.81-1.12q.69.77 1.66.77.73 0 1.14-.39.41-.39.41-1.11v-.37q-.64.72-1.67.72-1.24 0-2.01-.97-.76-.96-.76-2.56zm1.83.05q0 .94.38 1.47.37.53 1.03.53.84 0 1.2-.63v-2.89q-.37-.63-1.19-.63-.66 0-1.04.54-.38.54-.38 1.61z"/><use xlink:href="#B" x="22.05"/><path d="M71.48 18.29h-2.86V9.05h2.84q1.22 0 2.18.55.97.55 1.51 1.56.53 1.01.53 2.3v.43q0 1.29-.53 2.29-.53 1-1.49 1.55-.96.56-2.18.56zm-.02-7.7h-.94v6.17h.92q1.12 0 1.71-.73.59-.73.61-2.09v-.48q0-1.41-.59-2.14-.58-.73-1.71-.73zm9.2 7.7h-3.59V9.05h3.24q1.68 0 2.55.64.87.65.87 1.89 0 .68-.35 1.2-.35.52-.97.76.71.18 1.12.72.41.53.41 1.32 0 1.33-.85 2.01-.85.69-2.43.7zm.06-4.02h-1.75v2.49h1.64q.67 0 1.05-.32.37-.32.37-.88 0-1.27-1.31-1.29zm-1.75-3.68v2.33h1.41q1.44-.02 1.44-1.15 0-.63-.36-.9-.37-.28-1.15-.28h-1.34z"/></g><defs ><path id="B" d="M38.81 14.88v-.08q0-1.02.39-1.82.4-.8 1.14-1.24.74-.44 1.71-.44 1.39 0 2.27.85.88.85.98 2.31l.02.47q0 1.58-.89 2.54-.88.95-2.36.95-1.49 0-2.37-.95-.89-.95-.89-2.59zm1.83.05q0 .98.37 1.5.37.51 1.06.51.66 0 1.04-.51.37-.51.37-1.63 0-.96-.37-1.49-.38-.52-1.06-.52-.67 0-1.04.52-.37.52-.37 1.62z"/></defs></svg>