<svg xmlns="http://www.w3.org/2000/svg" width="87" height="29" stroke="none" stroke-linecap="round" stroke-linejoin="round" fill="#fff" fill-rule="evenodd"><rect fill="#000" height="28" rx="4" width="86"/><g fill-rule="nonzero"><path d="M14.41 5c-.04.01-.16.02-.27.03-2.56.23-4.95 1.61-6.47 3.73-.84 1.18-1.39 2.52-1.59 3.93A7.1 7.1 0 0 0 6 14c0 .67.01.82.08 1.31.49 3.38 2.9 6.22 6.16 7.28a10.3 10.3 0 0 0 1.9.39c.27.03 1.45.03 1.72 0 1.21-.13 2.24-.43 3.25-.95.15-.08.18-.1.16-.12-.02-.01-.68-.89-1.47-1.96L16.36 18l-1.8-2.66-1.82-2.67-.01 2.63-.04 2.7c-.05.08-.08.12-.16.16-.05.03-.1.03-.37.03h-.3l-.08-.05c-.06-.03-.09-.08-.12-.13l-.04-.08.01-3.53v-3.53l.06-.06c.02-.04.08-.09.13-.11.07-.04.1-.04.4-.04.36 0 .42.01.51.12.03.02 1 1.5 2.17 3.27l3.55 5.38 1.43 2.15.07-.04a9.4 9.4 0 0 0 1.85-1.62 9 9 0 0 0 2.12-4.61c.07-.49.08-.64.08-1.31a7.1 7.1 0 0 0-.08-1.31c-.49-3.38-2.9-6.22-6.16-7.27-.57-.19-1.19-.31-1.87-.39A24.7 24.7 0 0 0 14.41 5zm3.69 5.45c.08.04.15.12.17.21.02.04.02 1.02.02 3.23l-.01 3.16-.56-.86-.56-.85v-2.3l.02-2.36c.03-.1.09-.18.18-.23.07-.03.09-.04.37-.04.26 0 .31.01.37.04z"/><path d="M19.79 21.63c-.06.04-.08.06-.03.03.04-.02.11-.07.09-.07l-.06.04zm-.12.08c-.03.02-.03.02.01 0 .02-.01.03-.02.03-.02 0-.02 0-.01-.04.02zm-.09.05c-.03.02-.03.03.01.01.02-.01.04-.03.04-.03 0-.01-.01-.01-.05.02zm-.09.05c-.03.03-.03.03.01.01.02-.01.04-.02.04-.03s-.01-.01-.05.02zm-.13.07c-.07.04-.06.05 0 .02.03-.02.05-.03.05-.04s0-.01-.05.02z"/></g><path d="M42.85 9.05v9.24h-1.91l-3.71-6.08v6.08h-1.9V9.05h1.9l3.72 6.09V9.05h1.9zm4.7 9.37q-1.51 0-2.46-.92-.95-.93-.95-2.47v-.18q0-1.04.4-1.85.4-.82 1.13-1.26.74-.44 1.68-.44 1.4 0 2.21.89.81.89.81 2.52v.75H46q.09.67.54 1.08.44.4 1.13.4 1.06 0 1.66-.76l.9 1q-.42.59-1.12.92-.7.32-1.56.32zm-.21-5.63q-.55 0-.89.36-.34.37-.43 1.06h2.55v-.15q-.01-.61-.33-.94-.32-.33-.9-.33zm5.56-1.37l1.13 2.05 1.15-2.05h1.96l-1.95 3.36 2.04 3.51h-1.97l-1.23-2.16-1.22 2.16h-1.97l2.04-3.51-1.95-3.36h1.97zm5.49-1.68h1.84v1.69h1.17v1.34h-1.17v3.43q0 .38.14.55.15.16.56.16.31 0 .54-.04v1.39q-.54.16-1.11.16-1.93 0-1.97-1.95v-3.7h-1v-1.34h1V9.74zm7.88 5.71v-6.4h1.9v6.4q0 .88-.39 1.56-.39.67-1.1 1.04-.71.37-1.61.37-1.46 0-2.28-.75-.82-.74-.82-2.11h1.92q0 .68.28 1.01.29.32.9.32.55 0 .87-.38.33-.37.33-1.06zm7.13.95q0-.34-.33-.53-.34-.2-1.07-.35-2.45-.51-2.45-2.08 0-.91.75-1.53.76-.61 1.99-.61 1.31 0 2.09.62.78.61.78 1.6h-1.83q0-.4-.25-.66-.26-.25-.8-.25-.46 0-.72.21-.25.21-.25.53 0 .3.29.49.29.19.97.33.69.13 1.16.3 1.45.54 1.45 1.85 0 .94-.8 1.52-.81.58-2.09.58-.86 0-1.53-.31-.67-.3-1.05-.84-.38-.54-.38-1.16h1.74q.02.49.36.75.34.26.9.26.53 0 .8-.2.27-.2.27-.52z"/></svg>