<svg xmlns="http://www.w3.org/2000/svg" width="90" height="29" stroke="none" stroke-linecap="round" stroke-linejoin="round" fill="#fff" fill-rule="evenodd"><rect height="28" rx="4" width="88.5" fill="#6da432"/><path d="M14.09 5.68c.42-.24.97-.24 1.39 0l6.36 3.59c.39.23.66.67.66 1.13v7.2c0 .48-.29.93-.71 1.15l-6.34 3.58a1.4 1.4 0 0 1-1.4-.04l-1.91-1.1c-.12-.08-.27-.14-.36-.27.08-.1.22-.12.34-.17a4.2 4.2 0 0 0 .75-.34c.06-.05.14-.03.2.01l1.62.93c.11.07.23-.02.33-.07l6.22-3.51c.08-.04.12-.12.11-.21v-7.12c.01-.1-.04-.19-.13-.23l-6.31-3.55c-.08-.06-.18-.06-.25 0l-6.31 3.55c-.09.04-.15.13-.14.23v7.13c0 .08.04.16.12.2l1.68.95c.32.17.71.27 1.06.14.31-.11.52-.43.52-.75v-7.09c-.01-.1.09-.19.19-.18h.81c.11 0 .19.11.18.22v7.13c0 .63-.26 1.32-.85 1.63-.72.37-1.61.29-2.33-.06l-1.81-1.01c-.42-.21-.71-.67-.71-1.15v-7.2c0-.47.27-.92.68-1.14l6.34-3.58zm1.84 4.99c.92-.06 1.91-.03 2.74.42a2.1 2.1 0 0 1 1.01 1.79c-.02.1-.12.15-.21.14h-.81c-.11.01-.17-.1-.19-.2-.08-.34-.26-.68-.58-.84-.5-.25-1.07-.24-1.6-.23-.4.02-.82.05-1.15.29-.26.17-.33.52-.24.81.08.2.32.27.51.33 1.11.29 2.29.26 3.38.64.45.16.89.46 1.04.93a2 2 0 0 1-.33 1.9c-.37.42-.9.64-1.43.77-.71.15-1.44.16-2.15.09-.68-.08-1.38-.26-1.9-.71-.44-.39-.66-.99-.64-1.57.01-.1.1-.17.2-.16h.81c.1-.01.18.08.19.19.05.32.17.66.45.85.55.36 1.24.33 1.86.34.52-.02 1.1-.03 1.53-.37.22-.2.29-.52.23-.8-.07-.24-.32-.35-.53-.42-1.1-.35-2.29-.23-3.37-.62-.44-.15-.87-.45-1.04-.9-.23-.64-.12-1.43.37-1.92s1.19-.68 1.85-.75z" fill-rule="nonzero"/><path d="M42.85 9.05v9.24h-1.91l-3.71-6.08v6.08h-1.9V9.05h1.9l3.72 6.09V9.05h1.9zm1.25 5.82v-.08q0-1.02.39-1.82.4-.8 1.14-1.24.74-.44 1.71-.44 1.39 0 2.27.85.88.85.98 2.31l.02.47q0 1.58-.89 2.54-.88.95-2.36.95-1.49 0-2.37-.95-.89-.95-.89-2.59zm1.83.05q0 .98.37 1.5.37.51 1.06.51.66 0 1.04-.51.37-.51.37-1.63 0-.96-.37-1.49-.38-.52-1.06-.52-.67 0-1.04.52-.37.52-.37 1.62zm5.52-.11q0-1.61.72-2.56.72-.96 1.97-.96 1 0 1.66.75v-3.5h1.84v9.75h-1.66l-.09-.73q-.68.86-1.76.86-1.21 0-1.95-.96-.73-.95-.73-2.65zm1.83.13q0 .96.34 1.48.34.51.98.51.85 0 1.2-.72V13.5q-.34-.71-1.19-.71-1.33 0-1.33 2.15zm8.95 3.47q-1.51 0-2.46-.92-.95-.93-.95-2.47v-.18q0-1.04.4-1.85.4-.82 1.13-1.26.74-.44 1.68-.44 1.4 0 2.21.89.81.89.81 2.52v.75h-4.37q.09.67.54 1.08.44.4 1.13.4 1.06 0 1.66-.76l.9 1q-.42.59-1.12.92-.7.32-1.56.32zm-.21-5.63q-.55 0-.89.36-.34.37-.43 1.06h2.55v-.15q-.01-.61-.33-.94-.32-.33-.9-.33zm7.92 2.67v-6.4h1.9v6.4q0 .88-.39 1.56-.39.67-1.1 1.04-.71.37-1.61.37-1.46 0-2.28-.75-.82-.74-.82-2.11h1.92q0 .68.28 1.01.29.32.9.32.55 0 .87-.38.33-.37.33-1.06zm7.13.94q0-.34-.33-.53-.34-.2-1.07-.35-2.45-.51-2.45-2.08 0-.91.75-1.53.76-.61 1.99-.61 1.31 0 2.09.62.78.61.78 1.6H77q0-.4-.25-.66-.26-.25-.8-.25-.46 0-.72.21-.25.21-.25.53 0 .3.29.49.29.19.97.33.69.13 1.16.3 1.45.54 1.45 1.85 0 .94-.8 1.52-.81.58-2.09.58-.86 0-1.53-.31-.67-.3-1.05-.84-.38-.54-.38-1.16h1.74q.02.49.36.75.34.26.9.26.53 0 .8-.2.27-.2.27-.52z"/></svg>