<svg xmlns="http://www.w3.org/2000/svg" xmlns:xlink="http://www.w3.org/1999/xlink" width="98" height="29" stroke="#000" stroke-linecap="round" stroke-linejoin="round" fill="#fff" fill-rule="evenodd"><g stroke="none"><path d="M0 4c0-2.22 2.27-4 5.08-4h86.34c2.81 0 5.08 1.78 5.08 4v20c0 2.22-2.27 4-5.08 4H5.08C2.27 28 0 26.22 0 24z" fill="#6599cd"/><path d="M22.74 13.14c-.42 0-.77-.34-.77-.76 0-2.13-.83-4.14-2.34-5.65-.29-.3-.29-.78 0-1.08.3-.29.78-.29 1.08 0 1.8 1.8 2.79 4.19 2.79 6.73 0 .42-.34.76-.76.76zm-15.23 0c-.42 0-.76-.34-.76-.76 0-2.54.99-4.93 2.79-6.73.29-.29.78-.29 1.07 0 .3.3.3.78 0 1.08-1.51 1.51-2.34 3.52-2.34 5.65 0 .42-.34.76-.76.76zm14.75 4.6a5.1 5.1 0 0 1-1.81-3.91v-2.12c0-2.68-1.99-4.89-4.57-5.27v-.82c0-.42-.34-.76-.76-.76s-.76.34-.76.76v.82c-2.58.38-4.57 2.59-4.57 5.27v2.12a5.1 5.1 0 0 1-1.81 3.91c-.3.26-.47.62-.47 1.01 0 .74.6 1.34 1.33 1.34H21.4c.74 0 1.34-.6 1.34-1.34a1.3 1.3 0 0 0-.48-1.01zm-7.13 5.39c1.38 0 2.53-.98 2.79-2.28h-5.59c.26 1.3 1.42 2.28 2.8 2.28z" fill-rule="nonzero"/><path d="M40.85 9.05v9.24h-1.91l-3.71-6.08v6.08h-1.9V9.05h1.9l3.72 6.09V9.05h1.9zm1.25 5.82v-.08q0-1.02.39-1.82.4-.8 1.14-1.24.74-.44 1.71-.44 1.39 0 2.27.85.88.85.98 2.31l.02.47q0 1.58-.89 2.54-.88.95-2.36.95-1.49 0-2.37-.95-.89-.95-.89-2.59zm1.83.05q0 .98.37 1.5.37.51 1.06.51.66 0 1.04-.51.37-.51.37-1.63 0-.96-.37-1.49-.38-.52-1.06-.52-.67 0-1.04.52-.37.52-.37 1.62z"/><use xlink:href="#B"/><path d="M56.07 11.42v6.87h-1.84v-6.87h1.84zm-1.95-1.77q0-.42.28-.68.27-.27.75-.27.47 0 .75.27.28.26.28.68 0 .41-.29.68-.28.27-.74.27-.47 0-.75-.27-.28-.27-.28-.68zm7.18 6.74q0-.34-.33-.53-.34-.2-1.07-.35-2.45-.51-2.45-2.08 0-.91.75-1.53.76-.61 1.99-.61 1.31 0 2.09.62.78.61.78 1.6h-1.83q0-.4-.25-.66-.26-.25-.8-.25-.46 0-.72.21-.25.21-.25.53 0 .3.29.49.29.19.97.33.69.13 1.16.3 1.45.54 1.45 1.85 0 .94-.8 1.52-.81.58-2.09.58-.86 0-1.53-.31-.67-.3-1.05-.84-.38-.54-.38-1.16h1.74q.02.49.36.75.34.26.9.26.53 0 .8-.2.27-.2.27-.52z"/><use xlink:href="#B" x="14.52"/><path d="M74.49 18.29h-1.86q-.12-.25-.18-.62-.67.74-1.73.74-1.01 0-1.68-.58-.66-.59-.66-1.47 0-1.1.81-1.68.81-.58 2.34-.59h.84v-.39q0-.48-.24-.77-.25-.28-.77-.28-.47 0-.73.22-.26.22-.26.61h-1.84q0-.6.37-1.1.37-.51 1.04-.8.67-.29 1.51-.29 1.27 0 2.02.64.74.64.74 1.79v2.98q.01.98.28 1.48v.11zm-3.37-1.28q.4 0 .74-.18.35-.18.51-.49v-1.18h-.68q-1.38 0-1.47.95l-.01.11q0 .34.25.57.24.22.66.22zm7.36-.08q.51 0 .83-.28.31-.28.33-.74h1.72q-.01.7-.38 1.28-.38.58-1.03.9-.65.32-1.44.32-1.47 0-2.32-.93-.85-.94-.85-2.59v-.12q0-1.59.84-2.53.85-.95 2.32-.95 1.29 0 2.07.73.77.74.79 1.96h-1.72q-.02-.54-.33-.87-.32-.33-.84-.33-.64 0-.97.46-.33.47-.33 1.52v.19q0 1.06.33 1.52.32.46.98.46zm8.18 1.36l-1.77-2.75-.66.66v2.09H82.4V8.54h1.83v5.4l.36-.46 1.76-2.06h2.2l-2.48 2.86 2.7 4.01h-2.11z"/></g><defs ><path id="B" d="M50.1 9.73h1.84v1.69h1.17v1.34h-1.17v3.43q0 .38.14.55.15.16.56.16.31 0 .54-.04v1.39q-.54.16-1.11.16-1.93 0-1.97-1.95v-3.7h-1v-1.34h1V9.73z"/></defs></svg>