<svg xmlns="http://www.w3.org/2000/svg" width="79" height="29" stroke="none" stroke-linecap="round" stroke-linejoin="round" fill="#fff" fill-rule="evenodd"><rect height="28" rx="4" width="78" fill="#15b5e0"/><path d="M23.94 14.02c0-1.19-1.49-2.32-3.77-3.01.53-2.33.29-4.18-.74-4.77-.24-.14-.52-.21-.82-.21v.82a.9.9 0 0 1 .42.09c.5.29.71 1.38.54 2.77-.04.35-.1.71-.18 1.08-.72-.18-1.5-.31-2.33-.4-.49-.68-1-1.29-1.52-1.83 1.2-1.11 2.31-1.71 3.07-1.71v-.82c-1 0-2.32.72-3.65 1.96-1.33-1.24-2.65-1.95-3.65-1.95v.82c.76 0 1.88.6 3.07 1.7-.51.54-1.02 1.15-1.51 1.83-.83.09-1.61.22-2.33.4l-.19-1.06c-.17-1.4.05-2.48.54-2.77.11-.07.25-.1.42-.1v-.81c-.31 0-.59.06-.83.2-1.02.6-1.26 2.44-.72 4.76-2.28.7-3.76 1.82-3.76 3.01s1.49 2.31 3.77 3.01c-.53 2.33-.29 4.18.74 4.77.24.14.51.2.82.2 1.01 0 2.32-.71 3.65-1.95 1.33 1.23 2.65 1.94 3.66 1.94.3 0 .58-.07.82-.2 1.03-.6 1.26-2.44.73-4.76 2.27-.7 3.75-1.83 3.75-3.01zm-4.76-2.44l-.5 1.44-.47-.87-.53-.86 1.5.29zm-1.68 3.89l-.88 1.4a17.9 17.9 0 0 1-1.65.07c-.55 0-1.11-.02-1.65-.07l-.88-1.38c-.28-.48-.53-.97-.76-1.46l.76-1.46.88-1.4 1.65-.07 1.64.07.89 1.39c.28.48.53.97.76 1.46l-.76 1.45zm1.18-.47c.2.49.37.98.51 1.45-.48.12-.98.22-1.51.3l.53-.87.47-.88zm-3.7 3.9l-1.02-1.17 1.01.03 1.01-.03-1 1.17zm-2.72-2.15l-1.5-.29a15.5 15.5 0 0 1 .49-1.45l.48.88.53.86zm2.7-7.61a13.3 13.3 0 0 1 1.01 1.17l-1-.03-1.02.03a13.3 13.3 0 0 1 1.01-1.17zm-2.71 2.15l-.52.87-.48.88a12.6 12.6 0 0 1-.5-1.46l1.5-.29zm-3.31 4.58c-1.29-.55-2.13-1.28-2.13-1.85s.84-1.3 2.13-1.85a9.4 9.4 0 0 1 1.02-.37 16.5 16.5 0 0 0 .82 2.23c-.34.76-.61 1.5-.81 2.21-.36-.11-.71-.24-1.03-.37zm1.97 5.22c-.5-.28-.71-1.37-.54-2.76.04-.35.1-.71.18-1.08a17.5 17.5 0 0 0 2.32.4c.5.68 1.01 1.29 1.53 1.83-1.2 1.11-2.32 1.71-3.08 1.71-.16 0-.3-.03-.41-.1zm8.67-2.78c.18 1.4-.04 2.48-.53 2.77-.11.07-.25.09-.42.09-.76 0-1.88-.6-3.07-1.7.51-.54 1.02-1.15 1.51-1.82.82-.09 1.61-.23 2.32-.41.09.37.15.73.19 1.07zm1.41-2.44l-1.01.37c-.21-.72-.48-1.46-.82-2.23.33-.76.6-1.5.81-2.21l1.03.37c1.29.55 2.13 1.28 2.13 1.85-.01.57-.84 1.3-2.14 1.85zm-7.7-1.85c0-.92.75-1.67 1.67-1.67.93 0 1.67.75 1.67 1.67 0 .93-.74 1.67-1.67 1.67-.92 0-1.67-.74-1.67-1.67z" fill-rule="nonzero"/><path d="M40.48 18.29l-1.73-3.38h-1.52v3.38h-1.9V9.05h3.43q1.64 0 2.53.73.89.73.89 2.06 0 .95-.41 1.58-.41.63-1.24 1.01l2 3.77v.09h-2.05zm-3.25-7.7v2.78h1.54q.72 0 1.11-.37.39-.36.39-1 0-.66-.37-1.03-.37-.38-1.14-.38h-1.53zm9.44 7.83q-1.51 0-2.46-.92-.95-.93-.95-2.47v-.18q0-1.04.4-1.85.4-.82 1.13-1.26.74-.44 1.68-.44 1.4 0 2.21.89.81.89.81 2.52v.75h-4.37q.09.67.54 1.08.44.4 1.13.4 1.06 0 1.66-.76l.9 1q-.42.59-1.12.92-.7.32-1.56.32zm-.21-5.63q-.55 0-.89.36-.34.37-.43 1.06h2.55v-.15q-.01-.61-.33-.94-.32-.33-.9-.33zm9.91 5.51h-1.86q-.12-.25-.18-.62-.67.74-1.73.74-1.01 0-1.68-.58-.66-.59-.66-1.47 0-1.1.81-1.68.81-.58 2.34-.59h.84v-.39q0-.48-.24-.77-.25-.28-.77-.28-.47 0-.73.22-.26.22-.26.61h-1.84q0-.6.37-1.1.37-.51 1.04-.8.67-.29 1.51-.29 1.27 0 2.02.64.74.64.74 1.79v2.98q.01.98.28 1.48v.11zM53 17.02q.4 0 .74-.18.35-.18.51-.49v-1.18h-.68q-1.38 0-1.47.95l-.01.11q0 .34.25.57.24.22.66.22zm7.36-.08q.51 0 .83-.28.31-.28.33-.74h1.72q-.01.7-.38 1.28-.38.58-1.03.9-.65.32-1.44.32-1.47 0-2.32-.93-.85-.94-.85-2.59v-.12q0-1.59.84-2.53.85-.95 2.32-.95 1.29 0 2.07.73.77.74.79 1.96h-1.72q-.02-.54-.33-.87-.32-.33-.84-.33-.64 0-.97.46-.33.47-.33 1.52v.19q0 1.06.33 1.52.32.46.98.46zm4.28-7.2h1.84v1.69h1.17v1.34h-1.17v3.43q0 .38.14.55.15.16.56.16.31 0 .54-.04v1.39q-.54.16-1.11.16-1.93 0-1.97-1.95v-3.7h-1v-1.34h1V9.74z"/></svg>