<svg xmlns="http://www.w3.org/2000/svg" width="82" height="29" stroke="none" stroke-linecap="round" stroke-linejoin="round" fill="#fff" fill-rule="evenodd"><rect height="28" rx="4" width="81" fill="#764abc"/><path d="M17.98 16.75c.61-.06 1.07-.59 1.05-1.22s-.55-1.14-1.18-1.14h-.04c-.65.02-1.16.57-1.14 1.23.02.31.15.59.34.78-.72 1.41-1.81 2.44-3.46 3.31a5.7 5.7 0 0 1-3.43.65c-.95-.13-1.69-.55-2.15-1.24-.68-1.04-.74-2.16-.17-3.27.4-.8 1.03-1.39 1.43-1.69l-.27-1.07c-3.06 2.21-2.74 5.2-1.82 6.62.7 1.05 2.11 1.7 3.67 1.7.42 0 .84-.04 1.27-.14a8.1 8.1 0 0 0 5.9-4.52zm3.71-2.61c-1.6-1.88-3.96-2.91-6.66-2.91h-.34c-.19-.38-.59-.63-1.03-.63h-.05c-.65.02-1.15.57-1.13 1.22.02.63.54 1.14 1.18 1.14h.04c.46-.02.86-.32 1.03-.72h.38a8.1 8.1 0 0 1 4.49 1.37c1.06.7 1.82 1.6 2.24 2.7.36.89.33 1.75-.05 2.49-.59 1.12-1.58 1.73-2.88 1.73-.85 0-1.65-.26-2.07-.45-.23.22-.65.55-.95.76.91.43 1.84.66 2.72.66 2.03 0 3.52-1.12 4.09-2.24.61-1.22.57-3.33-1.01-5.12zm-10.71 2.97c.02.63.55 1.14 1.18 1.14h.04c.66-.02 1.16-.57 1.14-1.22-.02-.63-.55-1.14-1.18-1.14h-.04c-.04 0-.11 0-.15.02a7.8 7.8 0 0 1-1.1-4.68 5.7 5.7 0 0 1 1.25-3.27c.61-.78 1.79-1.16 2.59-1.18 2.24-.04 3.18 2.74 3.25 3.86a11.1 11.1 0 0 1 1.05.32c-.25-3.42-2.36-5.19-4.38-5.19-1.9 0-3.65 1.37-4.35 3.39-.97 2.7-.33 5.3.85 7.34-.11.15-.17.38-.15.61z" fill-rule="nonzero"/><path d="M40.48 18.29l-1.73-3.38h-1.52v3.38h-1.9V9.05h3.43q1.64 0 2.53.73.89.73.89 2.06 0 .95-.41 1.58-.41.63-1.24 1.01l2 3.77v.09h-2.05zm-3.25-7.7v2.78h1.54q.72 0 1.11-.37.39-.36.39-1 0-.66-.37-1.03-.37-.38-1.14-.38h-1.53zm9.44 7.82q-1.51 0-2.46-.92-.95-.93-.95-2.47v-.18q0-1.04.4-1.85.4-.82 1.13-1.26.74-.44 1.68-.44 1.4 0 2.21.89.81.89.81 2.52v.75h-4.37q.09.67.54 1.08.44.4 1.13.4 1.06 0 1.66-.76l.9 1q-.42.59-1.12.92-.7.32-1.56.32zm-.21-5.63q-.55 0-.89.36-.34.37-.43 1.06h2.55v-.15q-.01-.61-.33-.94-.32-.33-.9-.33zm3.79 2.03q0-1.61.72-2.56.72-.96 1.97-.96 1 0 1.66.75v-3.5h1.84v9.75h-1.66l-.09-.73q-.68.86-1.76.86-1.21 0-1.95-.96-.73-.95-.73-2.65zm1.83.13q0 .96.34 1.48.34.51.98.51.85 0 1.2-.72V13.5q-.34-.71-1.19-.71-1.33 0-1.33 2.15zm9.94 3.35l-.05-.7q-.68.83-1.88.83-1.11 0-1.69-.64-.58-.63-.59-1.86v-4.5h1.83v4.44q0 1.07.98 1.07.94 0 1.28-.65v-4.86h1.85v6.87h-1.73zm4.6-6.87l1.13 2.05 1.15-2.05h1.96l-1.95 3.36 2.04 3.51h-1.97l-1.23-2.16-1.22 2.16h-1.97l2.04-3.51-1.95-3.36h1.97z"/></svg>