<svg xmlns="http://www.w3.org/2000/svg" width="79" height="29" stroke="none" stroke-linecap="round" stroke-linejoin="round" fill="#fff" fill-rule="evenodd"><rect height="28" rx="4" width="77.5" fill="#cf649a"/><path d="M25.64 14.84a4.7 4.7 0 0 0-2.12.5c-.22-.44-.44-.83-.47-1.12-.04-.34-.09-.55-.04-.95s.28-.98.28-1.02c-.01-.05-.05-.25-.53-.26-.47 0-.87.1-.92.22l-.2.72a17.4 17.4 0 0 1-1.43 2.83c-.16-.32-.29-.6-.32-.83-.04-.34-.09-.54-.04-.95.05-.4.28-.97.28-1.02-.01-.04-.05-.25-.52-.25-.47-.01-.88.09-.93.22-.04.12-.09.42-.19.71-.1.3-1.24 2.9-1.54 3.58l-.38.82c-.09.18 0 .01-.01.03l-.13.25h0c-.06.12-.13.23-.17.23-.02 0-.06-.31.01-.74.17-.91.58-2.32.58-2.37 0-.03.08-.28-.27-.4-.33-.13-.45.08-.48.08-.02 0-.05.08-.05.08s.37-1.59-.7-1.59c-.68 0-1.61.75-2.07 1.44l-1.58.88-.76.43-.05-.06c-1.3-1.43-3.72-2.44-3.62-4.36.04-.7.27-2.54 4.64-4.78 3.58-1.83 6.45-1.33 6.95-.21.7 1.6-1.53 4.56-5.26 4.99-1.41.16-2.16-.4-2.34-.61-.2-.22-.23-.23-.3-.19-.12.07-.05.26 0 .38.11.3.57.82 1.34 1.08.68.23 2.35.36 4.36-.44 2.25-.89 4.01-3.38 3.49-5.46-.52-2.11-3.94-2.81-7.17-1.63-1.93.7-4.01 1.8-5.51 3.24-1.78 1.71-2.07 3.2-1.95 3.82.42 2.21 3.39 3.65 4.57 4.71l-.16.1c-.59.3-2.86 1.51-3.42 2.8-.64 1.45.1 2.5.59 2.64 1.53.43 3.09-.35 3.94-1.64.84-1.29.74-2.96.35-3.73l-.02-.03.47-.28.86-.49c-.15.4-.25.89-.31 1.59-.06.83.27 1.9.7 2.32.19.18.42.19.56.19.51 0 .74-.43.99-.94.31-.63.58-1.35.58-1.35s-.34 1.96.6 1.96c.34 0 .68-.46.84-.69h0s.01-.01.03-.04c.01-.03.03-.06.05-.09v-.01l.9-1.73 1.16-2.68a7.9 7.9 0 0 0 .22.96c.1.36.32.75.49 1.13l-.22.31h.01l-.37.47-1.09 1.41c-.09.23-.07.39.1.52.12.09.34.11.57.09.42-.02.72-.13.86-.2a2.7 2.7 0 0 0 .74-.4c.46-.34.74-.84.71-1.49-.01-.36-.13-.72-.27-1.06l.13-.18c.72-1.09 1.28-2.28 1.28-2.28a7.8 7.8 0 0 0 .22.97c.09.3.26.63.42.96-.68.57-1.11 1.23-1.25 1.66-.27.8-.06 1.16.34 1.24.17.04.43-.05.62-.13.24-.08.53-.22.79-.42.46-.34.9-.83.88-1.48a3.3 3.3 0 0 0-.2-.88c.57-.24 1.32-.38 2.27-.26 2.03.24 2.43 1.54 2.35 2.09-.07.54-.5.84-.64.94-.14.09-.19.12-.17.18.01.1.08.1.2.08.17-.03 1.07-.45 1.11-1.45.05-1.29-1.14-2.7-3.26-2.68zM9.96 20.26c-.67.76-1.62 1.04-2.02.8-.44-.26-.27-1.37.56-2.17.5-.49 1.16-.94 1.59-1.22l.41-.25.05-.03c.03-.02.07-.04.1-.07.31 1.15.02 2.15-.69 2.94zm4.91-3.43c-.23.59-.73 2.1-1.02 2.01-.26-.07-.41-1.21-.05-2.33a5.1 5.1 0 0 1 .8-1.51c.37-.42.77-.56.87-.39.12.23-.45 1.86-.6 2.22zm4.05 1.99c-.1.05-.19.09-.23.06-.03-.01.04-.08.04-.08l.71-.82.4-.52v.05c0 .68-.63 1.13-.92 1.31zm3.13-.73c-.07-.05-.06-.23.18-.77a2.9 2.9 0 0 1 .7-.92c.04.14.07.27.07.4-.01.85-.59 1.16-.95 1.29z" fill-rule="nonzero"/><path d="M44.12 15.86q0-.54-.38-.82-.38-.29-1.37-.61-.99-.32-1.57-.63-1.57-.86-1.57-2.3 0-.75.42-1.33.42-.59 1.21-.92.79-.33 1.77-.33.99 0 1.77.36.77.36 1.2 1.01.43.65.43 1.49h-1.9q0-.64-.4-.99-.4-.35-1.13-.35-.7 0-1.08.29-.39.3-.39.78 0 .45.45.76.46.3 1.34.57 1.62.49 2.37 1.21.74.72.74 1.8 0 1.2-.91 1.88-.91.69-2.44.69-1.07 0-1.94-.39-.88-.39-1.34-1.07-.46-.68-.46-1.58h1.91q0 1.53 1.83 1.53.68 0 1.06-.27.38-.28.38-.78zm8.92 2.43h-1.86q-.12-.25-.18-.62-.67.74-1.73.74-1.01 0-1.68-.58-.66-.59-.66-1.47 0-1.1.81-1.68.81-.58 2.34-.59h.84v-.39q0-.48-.24-.77-.25-.28-.77-.28-.47 0-.73.22-.26.22-.26.61h-1.84q0-.6.37-1.1.37-.51 1.04-.8.67-.29 1.51-.29 1.27 0 2.02.64.74.64.74 1.79v2.98q.01.98.28 1.48v.11zm-3.37-1.28q.4 0 .74-.18.35-.18.51-.49v-1.18h-.68q-1.38 0-1.47.95l-.01.11q0 .34.25.57.24.22.66.22zm8.22-.62q0-.34-.33-.53-.34-.2-1.07-.35-2.45-.51-2.45-2.08 0-.91.75-1.53.76-.61 1.99-.61 1.31 0 2.09.62.78.61.78 1.6h-1.83q0-.4-.25-.66-.26-.25-.8-.25-.46 0-.72.21-.25.21-.25.53 0 .3.29.49.29.19.97.33.69.13 1.16.3 1.45.54 1.45 1.85 0 .94-.8 1.52-.81.58-2.09.58-.86 0-1.53-.31-.67-.3-1.05-.84-.38-.54-.38-1.16h1.74q.02.49.36.75.34.26.9.26.53 0 .8-.2.27-.2.27-.52zm6.68 0q0-.34-.33-.53-.34-.2-1.07-.35-2.45-.51-2.45-2.08 0-.91.75-1.53.76-.61 1.99-.61 1.31 0 2.09.62.78.61.78 1.6H64.5q0-.4-.25-.66-.26-.25-.8-.25-.46 0-.72.21-.25.21-.25.53 0 .3.29.49.29.19.97.33.69.13 1.16.3 1.45.54 1.45 1.85 0 .94-.8 1.52-.81.58-2.09.58-.86 0-1.53-.31-.67-.3-1.05-.84-.38-.54-.38-1.16h1.74q.02.49.36.75.34.26.9.26.53 0 .8-.2.27-.2.27-.52z"/></svg>