<svg xmlns="http://www.w3.org/2000/svg" xmlns:xlink="http://www.w3.org/1999/xlink" width="163" height="29" stroke="#000" stroke-linecap="round" stroke-linejoin="round" fill="#fff" fill-rule="evenodd"><g stroke="none"><rect height="28" rx="4" width="161.5" fill="#f96989"/><g fill-rule="nonzero"><path d="M23.23 8.32v2.56c0 .29.23.52.52.52.28 0 .51-.23.51-.52V8.61l-1.03-.29z"/><path d="M23.37 11.17c-.02.63-.2 2.24-1.3 3.16-.14.11-.13.32 0 .43l.56.46c.21.18.54.11.66-.13.3-.62.77-1.93.79-3.89-.21.18-.52.17-.71-.03zm-7.18 2.29l-3.87.78-4.27 3.43c-.35.28-.55.7-.55 1.15v3.17l8.29-6.66c.57-.46.72-1.24.4-1.87z"/><path d="M8.31 18.67l6.02-4.83-2.01.41-4.27 3.42c-.35.28-.55.71-.55 1.16v.93c.17-.42.45-.79.81-1.09zm12.6-.54l-3.66.38-6.23 5h4.89c.44 0 .87-.16 1.22-.43l3.37-2.71c.68-.55.85-1.51.42-2.24z"/><path d="M18.86 18.34l-1.61.17-6.23 4.99h1.41z"/><path d="M19.74 14.6l-4.15.89-8.09 6.48v.72c0 .45.36.81.8.81h2.72l8.34-6.69a1.7 1.7 0 0 0 .38-2.21z"/><path d="M17.25 18.5s-.05.73.31 1.08c.36.36 1.16.44 1.78 0 .61-.43 2.97-2.62 2.86-3.54-.17-1.34-3.29 1.13-3.29 1.13l-1.66 1.33z"/><path d="M22.2 16.04c-.17-1.34-3.29 1.13-3.29 1.13l-1.66 1.33s-.04.59.21.97c.83-.66 3.55-3.02 4.6-2.85.1-.22.16-.42.14-.58zm3.3-10.08c0-.25-.21-.46-.46-.46h-2.52c-.25 0-.46.21-.46.46v1.72c0 .25.16.46.4.53l2.43.69c.3.09.61-.14.61-.46V5.96z"/><path d="M22.99 5.79c0-.11.04-.21.1-.29h-.57c-.25 0-.46.21-.46.46v1.72c0 .25.16.46.4.53l.53.15c-.01-.09 0 .05 0-2.57zM8.45 22.29l8.94-7.18-1.8.39-8.09 6.48v.72c0 .19.07.36.18.5.19-.35.45-.66.77-.91zm3.87-8.04s-.05.7.29 1.04 1.11.41 1.7 0c.59-.42 2.83-2.52 2.73-3.4-.17-1.28-3.13 1.09-3.13 1.09l-1.59 1.27z"/><path d="M14.16 13.98s1.84-1.47 2.7-1.46c.13-.24.2-.46.18-.63-.17-1.28-3.13 1.09-3.13 1.09l-1.59 1.27s-.05.65.26 1l1.58-1.27zm1.43 1.51s-.05.74.31 1.1c.36.37 1.18.44 1.8 0s3-2.66 2.89-3.6c-.17-1.36-3.32 1.16-3.32 1.16l-1.68 1.34z"/><path d="M17.44 15.07s2.21-1.77 3.02-1.53c.1-.21.14-.39.13-.55-.17-1.36-3.32 1.16-3.32 1.16l-1.68 1.34s-.04.54.18.92l1.67-1.34z"/></g><path d="M43.12 15.86q0-.54-.38-.82-.38-.29-1.37-.61-.99-.32-1.57-.63-1.57-.86-1.57-2.3 0-.75.42-1.33.42-.59 1.21-.92.79-.33 1.77-.33.99 0 1.77.36.77.36 1.2 1.01.43.65.43 1.49h-1.9q0-.64-.4-.99-.4-.35-1.13-.35-.7 0-1.08.29-.39.3-.39.78 0 .45.45.76.46.3 1.34.57 1.62.49 2.37 1.21.74.72.74 1.8 0 1.2-.91 1.88-.91.69-2.44.69-1.07 0-1.94-.39-.88-.39-1.34-1.07-.46-.68-.46-1.58h1.91q0 1.53 1.83 1.53.68 0 1.06-.27.38-.28.38-.78zm3.44-6.13h1.84v1.69h1.17v1.34H48.4v3.43q0 .38.14.55.15.16.56.16.31 0 .54-.04v1.39q-.54.16-1.11.16-1.93 0-1.97-1.95v-3.7h-1v-1.34h1V9.73zm5.32 1.69l1.28 4.27 1.27-4.27h1.97l-2.76 7.93-.16.37q-.61 1.34-2.03 1.34-.4 0-.81-.12v-1.39l.28.01q.52 0 .78-.16.25-.16.4-.53l.22-.56-2.41-6.89h1.97zm7.17-2.88v9.75h-1.84V8.54h1.84z"/><use xlink:href="#B"/><path d="M67.3 14.81q0-1.61.72-2.56.72-.96 1.97-.96 1 0 1.66.75v-3.5h1.84v9.75h-1.66l-.09-.73q-.68.86-1.76.86-1.21 0-1.95-.96-.73-.95-.73-2.65zm1.83.13q0 .96.34 1.48.34.51.98.51.85 0 1.2-.72V13.5q-.34-.71-1.19-.71-1.33 0-1.33 2.15zm14.49.27h1.9q-.1 1.49-1.1 2.35-.99.86-2.62.86-1.77 0-2.79-1.2-1.02-1.2-1.02-3.29v-.56q0-1.33.47-2.35.47-1.01 1.34-1.56.88-.54 2.03-.54 1.6 0 2.58.86.98.85 1.13 2.4h-1.91q-.07-.89-.5-1.3-.42-.4-1.3-.4-.95 0-1.42.68-.48.69-.49 2.12v.7q0 1.5.45 2.19.46.69 1.43.69.89 0 1.32-.4.44-.41.5-1.25z"/><use xlink:href="#C"/><path d="M94.01 11.42h1.72l.06.77q.73-.9 1.97-.9 1.33 0 1.82 1.05.73-1.05 2.07-1.05 1.11 0 1.66.65.55.65.55 1.96v4.39h-1.85v-4.38q0-.59-.22-.86-.23-.27-.81-.27-.83 0-1.14.79v4.72h-1.83v-4.38q0-.6-.24-.86-.23-.27-.8-.27-.78 0-1.13.65v4.86h-1.83v-6.87zm17.43 3.4v.09q0 1.59-.72 2.55-.72.95-1.94.95-1.04 0-1.69-.72v3.24h-1.83v-9.51h1.7l.06.67q.67-.8 1.74-.8 1.27 0 1.98.94.7.94.7 2.59zm-1.83-.04q0-.96-.34-1.48-.34-.52-.99-.52-.86 0-1.19.66v2.81q.34.68 1.2.68 1.32 0 1.32-2.15z"/><use xlink:href="#C" x="25.93"/><use xlink:href="#D"/><use xlink:href="#B" x="66.65"/><use xlink:href="#D" x="14.31"/><path d="M141.88 9.73h1.84v1.69h1.17v1.34h-1.17v3.43q0 .38.14.55.15.16.56.16.31 0 .54-.04v1.39q-.54.16-1.11.16-1.93 0-1.97-1.95v-3.7h-1v-1.34h1V9.73zm7.75 6.66q0-.34-.33-.53-.34-.2-1.07-.35-2.45-.51-2.45-2.08 0-.91.75-1.53.76-.61 1.99-.61 1.31 0 2.09.62.78.61.78 1.6h-1.83q0-.4-.25-.66-.26-.25-.8-.25-.46 0-.72.21-.25.21-.25.53 0 .3.29.49.29.19.97.33.69.13 1.16.3 1.45.54 1.45 1.85 0 .94-.8 1.52-.81.58-2.09.58-.86 0-1.53-.31-.67-.3-1.05-.84-.38-.54-.38-1.16h1.74q.02.49.36.75.34.26.9.26.53 0 .8-.2.27-.2.27-.52z"/></g><defs ><path id="B" d="M63.73 18.41q-1.51 0-2.46-.92-.95-.93-.95-2.47v-.18q0-1.04.4-1.85.4-.82 1.13-1.26.74-.44 1.68-.44 1.4 0 2.21.89.81.89.81 2.52v.75h-4.37q.09.67.54 1.08.44.4 1.13.4 1.06 0 1.66-.76l.9 1q-.42.59-1.12.92-.7.32-1.56.32zm-.21-5.63q-.55 0-.89.36-.34.37-.43 1.06h2.55v-.15q-.01-.61-.33-.94-.32-.33-.9-.33z"/><path id="C" d="M86.37 14.87v-.08q0-1.02.39-1.82.4-.8 1.14-1.24.74-.44 1.71-.44 1.39 0 2.27.85.88.85.98 2.31l.02.47q0 1.58-.89 2.54-.88.95-2.36.95-1.49 0-2.37-.95-.89-.95-.89-2.59zm1.83.05q0 .98.37 1.5.37.51 1.06.51.66 0 1.04-.51.37-.51.37-1.63 0-.96-.37-1.49-.38-.52-1.06-.52-.67 0-1.04.52-.37.52-.37 1.62z"/><path id="D" d="M119.89 11.42h1.73l.05.79q.74-.92 1.98-.92 1.09 0 1.62.64.54.64.55 1.92v4.44h-1.84v-4.4q0-.58-.25-.84-.25-.27-.84-.27-.78 0-1.17.66v4.85h-1.83v-6.87z"/></defs></svg>