<svg xmlns="http://www.w3.org/2000/svg" xmlns:xlink="http://www.w3.org/1999/xlink" width="109" height="29" stroke="#000" stroke-linecap="round" stroke-linejoin="round" fill="#fff" fill-rule="evenodd"><g stroke="none"><rect height="28" rx="4" width="107.5" fill="#8a3d9b"/><g fill-rule="nonzero"><path d="M25.58 15.27c0 4.55-3.69 8.24-8.24 8.24-4.54 0-8.23-3.69-8.23-8.24 0-4.54 3.69-8.23 8.23-8.23 4.55 0 8.24 3.69 8.24 8.23z" fill="#fdcc80"/><path d="M19.35 14.21c0 1.67-1.36 3.03-3.03 3.03s-3.02-1.36-3.02-3.03 1.35-3.02 3.02-3.02 3.03 1.35 3.03 3.02z"/><path d="M12.97 21.73c-.54.02-2.62-1.11-3.48-4.07-.16-.54-.37-1.38-.37-2.43a8.2 8.2 0 0 1 8.19-8.19 8.4 8.4 0 0 1 2.43.37c2.83.85 3.94 2.8 3.69 3.33-.26.52-.87-.28-1.88-.21-.12.01-.35.33-.35.51 0 .59 1.11 1.05 1.2 1.31.14.41.28.51.19.78-.12.39-.24.3-.43.48-.07.08-.46.06-1.36-.14-.49-.1-1.48-.92-1.48-.93 0-.04-1.33-1.1-2.48-1.22-.55-.06-2.31-.23-3.23 1.58a14.6 14.6 0 0 0-.34 1.85c.07.98.57 2.03.99 2.26.96.52 1.06 1.21 1.06 1.18-.01-.03.64 1.21.67 1.42.02.18-.07.61-.31.72-.28.12-.63-.14-.69-.17-.06-.04-.87-1.34-1.6-1.08a5 5 0 0 0-.62.41c-.03.02.39 1.27.46 1.52.04.15-.19.72-.26.72z" fill="#fa7471" opacity=".5"/><path d="M15.15 7.35h-.02c-.18.04-.31.22-.27.41.03.18.21.31.4.28.06-.01.12-.05.17-.09.08-.07.13-.19.12-.3-.03-.19-.21-.32-.4-.3z"/><use xlink:href="#B"/><use xlink:href="#B" x="-7.18" y="9.21"/><path d="M9.42 13.19c-.19-.01-.35.14-.37.33l-.04.69c-.01.19.14.35.33.37.1.01.18-.03.25-.09.08-.07.11-.14.12-.24l.04-.69c.01-.19-.14-.35-.33-.37zm7.54-5.22l-.51.46c-.13.13-.15.35-.02.5.13.14.34.15.49.02l.51-.46c.14-.13.16-.34.03-.49s-.36-.16-.5-.03zm-5.21 3.17l-.68-.04c-.19-.01-.35.14-.37.33s.14.35.33.37l.68.04c.1.01.18-.03.26-.09.06-.06.1-.14.11-.24.01-.2-.14-.36-.33-.37zm7.83-.97l-.68-.04c-.19-.01-.35.14-.37.33s.14.35.33.37l.68.04c.1.01.18-.03.26-.09.07-.07.1-.14.11-.24.01-.2-.13-.36-.33-.37zm-4.65-.6l-.58-.36c-.17-.1-.38-.05-.48.12-.1.16-.05.37.12.47l.58.36c.08.05.17.07.26.04.09-.01.17-.07.22-.15.09-.17.04-.38-.12-.48zm-3.64 3.95c-.17.09-.23.31-.14.47l.33.61c.09.17.31.23.47.14.09-.05.15-.13.17-.23.03-.08.01-.17-.03-.24l-.33-.61c-.09-.16-.3-.23-.47-.14zm11.86-7.31c-.18.25-.38.49-.59.71-.15.16-.14.4.01.55s.4.14.55-.01a6.2 6.2 0 0 0 .65-.79c.13-.18.09-.42-.09-.55-.17-.12-.41-.09-.53.09zm-7.21-2.48c.01.31.01.62-.02.92-.02.22.14.41.35.42.22.02.41-.14.42-.35a6 6 0 0 0 .02-1.04c-.02-.21-.2-.38-.41-.36-.21.01-.37.2-.36.41z"/><path d="M8.92 6.83a5.7 5.7 0 0 1 .71.59c.16.14.41.14.56-.02.14-.16.13-.4-.02-.55a7.5 7.5 0 0 0-.81-.66c-.17-.12-.42-.08-.54.09a.4.4 0 0 0 .1.55zM5.9 14a4.7 4.7 0 0 1 .92.03c.22.02.41-.14.43-.35.03-.21-.13-.4-.34-.43a7.2 7.2 0 0 0-1.04-.02c-.21.01-.38.19-.37.4.01.22.19.39.4.37zm3.09 7.45a5.8 5.8 0 0 1 .6-.71c.14-.16.14-.4-.01-.55-.16-.15-.4-.15-.55.01-.24.24-.46.52-.67.8-.12.17-.08.41.09.54.17.11.41.08.54-.09z"/></g></g><path d="M24.47 14.29a8.2 8.2 0 0 1-8.17 8.17 8.2 8.2 0 0 1-8.17-8.17 8.2 8.2 0 0 1 8.17-8.17 8.2 8.2 0 0 1 8.17 8.17z" stroke="#fff" stroke-linejoin="miter" fill="none" stroke-width=".97"/><g stroke="none"><g fill="#8a3d9b" fill-rule="nonzero"><path d="M19.86 13.51c.35-.36.79.04 1.12.24.33.19.65.28 1.02.19.72-.16 1.14-.81.84-1.52-.16-.36-.45-.61-.78-.8-.19-.12-.45-.21-.58-.41-.21-.33.22-.46.47-.36.38.14.68.26 1.09.12.28-.1.62-.14.67-.51.06-.43-.61-.62-.67-.18 0 .02 0 .04-.01.06l.2-.16c-.13.05-.27.09-.4.13-.26.08-.43-.01-.66-.11-.34-.13-.71-.13-1.03.08-.73.48-.38 1.36.23 1.75.32.2.84.38.86.83.02.51-.62.47-.92.3-.63-.37-1.33-.76-1.95-.13-.29.32.19.8.5.48zm-4.92 4.16c-.08.31-.04.61.1.9.15.3.65.66.63.99-.01.26-.23.34-.45.29-.23-.05-.35-.19-.47-.37-.19-.27-.37-.54-.67-.7-.56-.28-1.3-.24-1.6.37-.15.3-.17.66-.07.99.05.19.16.35.27.52.06.1.13.18.1.3-.03.14-.1.13-.25.15-.44.05-.44.74 0 .69.33-.04.67-.11.86-.4.19-.31.12-.67-.05-.96-.11-.22-.28-.41-.3-.65-.03-.35.18-.53.51-.46.48.11.59.6.91.91.47.45 1.43.48 1.76-.14.17-.32.18-.72.01-1.04-.21-.37-.74-.72-.63-1.2.1-.44-.56-.63-.66-.19z"/><path d="M15.41 11.41c1.1-.24 2.27-.06 3.08.77.64.66.97 1.61.84 2.53-.32 2.25-3.08 3.23-4.8 1.8-1-.83-1.17-2.13-.86-3.33.12-.46-.59-.66-.71-.2-.35 1.34-.2 2.77.79 3.81.76.82 1.94 1.25 3.05 1.14 1.43-.15 2.68-1.14 3.13-2.52.38-1.15.11-2.45-.61-3.4-.98-1.29-2.57-1.64-4.1-1.31-.47.09-.27.81.19.71z"/></g><path d="M12.21 8.55l-.66.2c-.18.06-.29.25-.24.43.06.18.25.28.43.24l.66-.2c.09-.03.16-.09.2-.17.04-.07.06-.17.03-.26-.04-.18-.24-.29-.42-.24zm-1.44 7.02h-.02c-.26.05-.4.39-.15.64.18.1.34.06.45-.04.08-.07.13-.19.11-.3-.03-.19-.2-.32-.39-.3z" fill-rule="nonzero"/><path d="M14.26 11.26c-.26.14-.5.36-.68.59-.11.15-.09.4.07.52s.38.09.52-.07l.09-.11.01-.01c.02-.03.05-.04.07-.07.05-.03.08-.07.13-.11.02-.02.05-.03.07-.04.07-.05-.05.02.01-.01.17-.09.29-.3.19-.5-.07-.16-.29-.28-.48-.18z" fill-rule="nonzero" fill="#8a3d9b"/><path d="M38.62 15.86q0-.54-.38-.82-.38-.29-1.37-.61-.99-.32-1.57-.63-1.57-.86-1.57-2.3 0-.75.42-1.33.42-.59 1.21-.92.79-.33 1.77-.33.99 0 1.77.36.77.36 1.2 1.01.43.65.43 1.49h-1.9q0-.64-.4-.99-.4-.35-1.13-.35-.7 0-1.08.29-.39.3-.39.78 0 .45.45.76.46.3 1.34.57 1.62.49 2.37 1.21.74.72.74 1.8 0 1.2-.91 1.88-.91.69-2.44.69-1.07 0-1.94-.39-.88-.39-1.34-1.07-.46-.68-.46-1.58h1.91q0 1.53 1.83 1.53.68 0 1.06-.27.38-.28.38-.78zm7.8-4.44l1.25 4.37.9-4.37h1.77l-1.75 6.87h-1.54l-1.3-4.32-1.3 4.32h-1.53l-1.75-6.87h1.77l.9 4.37 1.25-4.37h1.33z"/><use xlink:href="#C"/><use xlink:href="#C" x="7.03"/><path d="M65.66 9.73h1.84v1.69h1.17v1.34H67.5v3.43q0 .38.14.55.15.16.56.16.31 0 .54-.04v1.39q-.54.16-1.11.16-1.93 0-1.97-1.95v-3.7h-1v-1.34h1V9.73z"/><path d="M75.68 18.29l-.64-1.9H71.7l-.64 1.9h-2.02l3.44-9.24h1.77l3.45 9.24h-2.02zm-2.32-6.9l-1.15 3.46h2.31l-1.16-3.46zm7.02-2.85v9.75h-1.84V8.54h1.84zm4.67 9.87q-1.51 0-2.46-.92-.95-.93-.95-2.47v-.18q0-1.04.4-1.85.4-.82 1.13-1.26.74-.44 1.68-.44 1.4 0 2.21.89.81.89.81 2.52v.75H83.5q.09.67.54 1.08.44.4 1.13.4 1.06 0 1.66-.76l.9 1q-.42.59-1.12.92-.7.32-1.56.32zm-.21-5.63q-.55 0-.89.36-.34.37-.43 1.06h2.55v-.15q-.01-.61-.33-.94-.32-.33-.9-.33zm7.96-1.41l-.02 1.77q-.38-.05-.66-.05-1.04 0-1.37.7v4.5h-1.83v-6.87h1.73l.05.82q.56-.95 1.53-.95.31 0 .57.08zm1.22-1.64h1.84v1.69h1.17v1.34h-1.17v3.43q0 .38.14.55.15.16.56.16.31 0 .54-.04v1.39q-.54.16-1.11.16-1.93 0-1.97-1.95v-3.7h-1v-1.34h1V9.73z"/></g><defs ><path id="B" d="M18.98 7.71c-.19-.01-.35.14-.37.33l-.04.69c-.01.19.14.35.33.37.1.01.18-.03.25-.09s.11-.14.12-.24l.04-.69c.01-.2-.14-.36-.33-.37z"/><path id="C" d="M54.41 18.41q-1.51 0-2.46-.92-.95-.93-.95-2.47v-.18q0-1.04.4-1.85.4-.82 1.13-1.26.74-.44 1.68-.44 1.4 0 2.21.89.81.89.81 2.52v.75h-4.37q.09.67.54 1.08.44.4 1.13.4 1.06 0 1.66-.76l.9 1q-.42.59-1.12.92-.7.32-1.56.32zm-.21-5.63q-.55 0-.89.36-.34.37-.43 1.06h2.55v-.15q-.01-.61-.33-.94-.32-.33-.9-.33z"/></defs></svg>