<svg xmlns="http://www.w3.org/2000/svg" xmlns:xlink="http://www.w3.org/1999/xlink" width="127" height="29" stroke="#000" stroke-linecap="round" stroke-linejoin="round" fill="#fff" fill-rule="evenodd"><g stroke="none"><rect height="28" rx="4" width="126" fill="#06b6d4"/><path d="M18.74 6c-3.66 0-5.96 1.83-6.87 5.5 1.37-1.83 2.98-2.52 4.81-2.06 1.05.26 1.79 1.02 2.62 1.86 1.35 1.37 2.91 2.95 6.32 2.95 3.67 0 5.96-1.83 6.88-5.5-1.38 1.83-2.98 2.52-4.82 2.06-1.04-.26-1.79-1.02-2.62-1.86C23.71 7.58 22.15 6 18.74 6zm-6.87 8.25c-3.67 0-5.96 1.83-6.88 5.5 1.38-1.83 2.98-2.52 4.81-2.06 1.05.26 1.8 1.02 2.63 1.86 1.34 1.36 2.9 2.95 6.31 2.95 3.67 0 5.96-1.83 6.88-5.5-1.38 1.83-2.98 2.52-4.81 2.06-1.05-.26-1.8-1.02-2.63-1.86-1.34-1.37-2.91-2.95-6.31-2.95z" fill-rule="nonzero"/><path d="M48.28 9.05v1.54h-2.83v7.7h-1.91v-7.7h-2.79V9.05h7.53zm5.73 9.24h-1.86q-.12-.25-.18-.62-.67.74-1.73.74-1.01 0-1.68-.58-.66-.59-.66-1.47 0-1.1.81-1.68.81-.58 2.34-.59h.84v-.39q0-.48-.24-.77-.25-.28-.77-.28-.47 0-.73.22-.26.22-.26.61h-1.84q0-.6.37-1.1.37-.51 1.04-.8.67-.29 1.51-.29 1.27 0 2.02.64.74.64.74 1.79v2.98q.01.98.28 1.48v.11zm-3.37-1.28q.4 0 .74-.18.35-.18.51-.49v-1.18h-.68q-1.38 0-1.47.95l-.01.11q0 .34.25.57.24.22.66.22z"/><use xlink:href="#B"/><path d="M60.53 8.54v9.75h-1.84V8.54h1.84zm6.23 2.88l1.25 4.37.9-4.37h1.77l-1.75 6.87h-1.54l-1.3-4.32-1.3 4.32h-1.53l-1.75-6.87h1.77l.9 4.37 1.25-4.37h1.33z"/><use xlink:href="#B" x="16.45"/><path d="M75 11.42h1.73l.05.79q.74-.92 1.98-.92 1.09 0 1.62.64.54.64.55 1.92v4.44h-1.84v-4.4q0-.58-.25-.84-.25-.27-.84-.27-.78 0-1.17.66v4.85H75v-6.87zm7.04 3.39q0-1.61.72-2.56.72-.96 1.97-.96 1 0 1.66.75v-3.5h1.84v9.75h-1.66l-.09-.73q-.68.86-1.76.86-1.21 0-1.95-.96-.73-.95-.73-2.65zm1.83.13q0 .96.34 1.48.34.51.98.51.85 0 1.2-.72V13.5q-.34-.71-1.19-.71-1.33 0-1.33 2.15zm14.48.27h1.9q-.1 1.49-1.1 2.35-.99.86-2.62.86-1.77 0-2.79-1.2-1.02-1.2-1.02-3.29v-.56q0-1.33.47-2.35.47-1.01 1.34-1.56.88-.54 2.03-.54 1.6 0 2.58.86.98.85 1.13 2.4h-1.91q-.07-.89-.5-1.3-.42-.4-1.3-.4-.95 0-1.42.68-.48.69-.49 2.12v.7q0 1.5.45 2.19.46.69 1.43.69.89 0 1.32-.4.44-.41.5-1.25z"/><use xlink:href="#C"/><use xlink:href="#C" x="7.99"/></g><defs ><path id="B" d="M57.08 11.42v6.87h-1.84v-6.87h1.84zm-1.95-1.77q0-.42.28-.68.27-.27.75-.27.47 0 .75.27.28.26.28.68 0 .41-.29.68-.28.27-.74.27-.47 0-.75-.27-.28-.27-.28-.68z"/><path id="C" d="M106.3 15.86q0-.54-.38-.82-.38-.29-1.37-.61-.99-.32-1.57-.63-1.57-.86-1.57-2.3 0-.75.42-1.33.42-.59 1.21-.92.79-.33 1.77-.33.99 0 1.77.36.77.36 1.2 1.01.43.65.43 1.49h-1.9q0-.64-.4-.99-.4-.35-1.13-.35-.7 0-1.08.29-.39.3-.39.78 0 .45.45.76.46.3 1.34.57 1.62.49 2.37 1.21.74.72.74 1.8 0 1.2-.91 1.88-.91.69-2.44.69-1.07 0-1.94-.39-.88-.39-1.34-1.07-.46-.68-.46-1.58h1.91q0 1.53 1.83 1.53.68 0 1.06-.27.38-.28.38-.78z"/></defs></svg>