<svg xmlns="http://www.w3.org/2000/svg" xmlns:xlink="http://www.w3.org/1999/xlink" width="92" height="29" stroke="#000" stroke-linecap="round" stroke-linejoin="round" fill="#fff" fill-rule="evenodd"><g stroke="none"><rect height="28" rx="4" width="91" fill="#ff8200"/><path d="M17.1 9.05v1.54h-2.83v7.7h-1.91v-7.7H9.57V9.05h7.53z"/><use xlink:href="#B"/><path d="M26.46 8.54v9.75h-1.84V8.54h1.84z"/><use xlink:href="#B" x="10.47"/><path d="M34.73 14.88v-.08q0-1.58.75-2.55.75-.96 2.03-.96 1.13 0 1.76.77l.07-.64h1.67v6.64q0 .9-.41 1.56-.41.67-1.15 1.02-.75.35-1.74.35-.76 0-1.48-.3-.71-.3-1.08-.78l.81-1.12q.69.77 1.66.77.73 0 1.14-.39.41-.39.41-1.11v-.37q-.64.72-1.67.72-1.24 0-2.01-.97-.76-.96-.76-2.56zm1.83.05q0 .94.38 1.47.37.53 1.03.53.84 0 1.2-.63v-2.89q-.37-.63-1.19-.63-.66 0-1.04.54-.38.54-.38 1.61zm9.74-3.56l-.02 1.77q-.38-.05-.66-.05-1.04 0-1.37.7v4.5h-1.83v-6.87h1.73l.05.82q.56-.95 1.53-.95.31 0 .57.08zm6.51 6.92h-1.86q-.12-.25-.18-.62-.67.74-1.73.74-1.01 0-1.68-.58-.66-.59-.66-1.47 0-1.1.81-1.68.81-.58 2.34-.59h.84v-.39q0-.48-.24-.77-.25-.28-.77-.28-.47 0-.73.22-.26.22-.26.61h-1.84q0-.6.37-1.1.37-.51 1.04-.8.67-.29 1.51-.29 1.27 0 2.02.64.74.64.74 1.79v2.98q.01.98.28 1.48v.11zm-3.37-1.28q.4 0 .74-.18.35-.18.51-.49v-1.18h-.68q-1.38 0-1.47.95l-.01.11q0 .34.25.57.24.22.66.22zm10.68-2.19v.09q0 1.59-.72 2.55-.72.95-1.94.95-1.04 0-1.69-.72v3.24h-1.83v-9.51h1.7l.06.67q.67-.8 1.74-.8 1.27 0 1.98.94.7.94.7 2.59zm-1.83-.04q0-.96-.34-1.48-.34-.52-.99-.52-.86 0-1.19.66v2.81q.34.68 1.2.68 1.32 0 1.32-2.15zm4.75-6.24v3.63q.73-.88 1.84-.88 2.23 0 2.27 2.6v4.4h-1.84v-4.35q0-.59-.25-.87-.26-.28-.85-.28-.8 0-1.17.62v4.88h-1.83V8.54h1.83zm5.59 8.84q0-.43.3-.71.29-.27.73-.27.46 0 .75.27.3.28.3.71 0 .44-.3.71-.29.27-.75.27-.45 0-.74-.27-.29-.27-.29-.71zm3.78-5.96h1.84v7.25q0 1.13-.6 1.76-.61.64-1.74.64-.48 0-.91-.11V19.5q.33.06.58.06.83 0 .83-.88v-7.26zm-.15-1.77q0-.42.28-.68.28-.27.75-.27.48 0 .75.27.28.26.28.68 0 .41-.28.68-.29.27-.75.27-.46 0-.74-.27-.29-.27-.29-.68zm7.15 6.74q0-.34-.33-.53-.34-.2-1.07-.35-2.45-.51-2.45-2.08 0-.91.75-1.53.76-.61 1.99-.61 1.31 0 2.09.62.78.61.78 1.6h-1.83q0-.4-.25-.66-.26-.25-.8-.25-.46 0-.72.21-.25.21-.25.53 0 .3.29.49.29.19.97.33.69.13 1.16.3 1.45.54 1.45 1.85 0 .94-.8 1.52-.81.58-2.09.58-.86 0-1.53-.31-.67-.3-1.05-.84-.38-.54-.38-1.16h1.74q.02.49.36.75.34.26.9.26.53 0 .8-.2.27-.2.27-.52z"/></g><defs ><path id="B" d="M20.66 18.41q-1.51 0-2.46-.92-.95-.93-.95-2.47v-.18q0-1.04.4-1.85.4-.82 1.13-1.26.74-.44 1.68-.44 1.4 0 2.21.89.81.89.81 2.52v.75h-4.37q.09.67.54 1.08.44.4 1.13.4 1.06 0 1.66-.76l.9 1q-.42.59-1.12.92-.7.32-1.56.32zm-.21-5.63q-.55 0-.89.36-.34.37-.43 1.06h2.55v-.15q-.01-.61-.33-.94-.32-.33-.9-.33z"/></defs></svg>