<svg xmlns="http://www.w3.org/2000/svg" width="91" height="29" stroke="none" stroke-linecap="round" stroke-linejoin="round" fill="#fff" fill-rule="evenodd"><rect height="28" rx="4" width="89.5" fill="#0877b9"/><g fill-rule="nonzero"><path d="M6.79 11.45s-.41-.3.08-.69l1.16-1.04s.34-.35.69-.05l10.69 8.1v3.88s-.01.61-.79.54z"/><path d="M9.55 13.95L6.8 16.46s-.29.21 0 .58l1.28 1.17s.3.32.75-.05l2.92-2.21zm4.84.02l5.05-3.86-.03-3.86s-.21-.84-.93-.4l-6.73 6.12z"/><path d="M18.62 22.2c.29.3.65.2.65.2l3.94-1.94c.5-.35.43-.77.43-.77V8.1c0-.51-.52-.69-.52-.69L19.7 5.77c-.74-.47-1.23.08-1.23.08s.63-.45.94.4v15.33c0 .1-.03.21-.07.3-.09.18-.29.35-.75.28z"/></g><path d="M34.15 9.05L36.24 16l2.09-6.95h2.12l-3.22 9.24h-1.98l-3.21-9.24h2.11zm11.96 6.81q0-.54-.38-.82-.38-.29-1.37-.61-.99-.32-1.57-.63-1.57-.86-1.57-2.3 0-.75.42-1.33.42-.59 1.21-.92.79-.33 1.77-.33.99 0 1.77.36.77.36 1.2 1.01.43.65.43 1.49h-1.9q0-.64-.4-.99-.4-.35-1.13-.35-.7 0-1.08.29-.39.3-.39.78 0 .45.45.76.46.3 1.34.57 1.62.49 2.37 1.21.74.72.74 1.8 0 1.2-.91 1.88-.91.69-2.44.69-1.07 0-1.94-.39-.88-.39-1.34-1.07-.46-.68-.46-1.58h1.91q0 1.53 1.83 1.53.68 0 1.06-.27.38-.28.38-.78zm11.79-.65h1.9q-.1 1.49-1.1 2.35-.99.86-2.62.86-1.77 0-2.79-1.2-1.02-1.2-1.02-3.29v-.56q0-1.33.47-2.35.47-1.01 1.34-1.56.88-.54 2.03-.54 1.6 0 2.58.86.98.85 1.13 2.4h-1.91q-.07-.89-.5-1.3-.42-.4-1.3-.4-.95 0-1.42.68-.48.69-.49 2.12v.7q0 1.5.45 2.19.46.69 1.43.69.89 0 1.32-.4.44-.41.5-1.25zm2.75-.34v-.08q0-1.02.39-1.82.4-.8 1.14-1.24.74-.44 1.71-.44 1.39 0 2.27.85.88.85.98 2.31l.02.47q0 1.58-.89 2.54-.88.95-2.36.95-1.49 0-2.37-.95-.89-.95-.89-2.59zm1.83.05q0 .98.37 1.5.37.51 1.06.51.66 0 1.04-.51.37-.51.37-1.63 0-.96-.37-1.49-.38-.52-1.06-.52-.67 0-1.04.52-.37.52-.37 1.62zm5.52-.11q0-1.61.72-2.56.72-.96 1.97-.96 1 0 1.66.75v-3.5h1.84v9.75h-1.66l-.09-.73q-.68.86-1.76.86-1.21 0-1.95-.96-.73-.95-.73-2.65zm1.83.13q0 .96.34 1.48.34.51.98.51.85 0 1.2-.72V13.5q-.34-.71-1.19-.71-1.33 0-1.33 2.15zm8.94 3.47q-1.51 0-2.46-.92-.95-.93-.95-2.47v-.18q0-1.04.4-1.85.4-.82 1.13-1.26.74-.44 1.68-.44 1.4 0 2.21.89.81.89.81 2.52v.75h-4.37q.09.67.54 1.08.44.4 1.13.4 1.06 0 1.66-.76l.9 1q-.42.59-1.12.92-.7.32-1.56.32zm-.21-5.63q-.55 0-.89.36-.34.37-.43 1.06h2.55v-.15q-.01-.61-.33-.94-.32-.33-.9-.33z"/></svg>