<svg xmlns="http://www.w3.org/2000/svg" width="98" height="29" stroke="none" stroke-linecap="round" stroke-linejoin="round" fill="#fff" fill-rule="evenodd"><path d="M0 4c0-2.22 2.27-4 5.08-4h86.34c2.81 0 5.08 1.78 5.08 4v20c0 2.22-2.27 4-5.08 4H5.08C2.27 28 0 26.22 0 24z" fill="#1c78c0"/><g fill-rule="nonzero"><path d="M16.21 4.05L25 9.02v9.95l-8.79 4.97-8.79-4.97V9.02z"/><path d="M23.44 18.63l-6.94 3.92V19.5l4.32-2.38 2.62 1.51zm.47-.43V10l-2.54 1.47v5.27l2.54 1.46zm-14.95.43l6.94 3.92V19.5l-4.32-2.38-2.62 1.51zm-.47-.43V10l2.54 1.47v5.27L8.49 18.2zm.3-8.73l7.11-4.02V8.4l-4.56 2.51-.03.02-2.52-1.46zm14.82 0L16.5 5.45V8.4l4.56 2.51.03.02 2.52-1.46zm-7.72 9.33l-4.26-2.34v-4.64l4.26 2.46v4.52m.61 0l4.26-2.34v-4.64l-4.26 2.46v4.52m-4.58-7.52l4.28-2.35 4.27 2.35-4.27 2.47-4.28-2.47" fill="#1c78c0"/></g><path d="M40 9.05l1.52 6.58 1.25-6.58h1.89l-2.05 9.24H40.7l-1.51-6.18-1.5 6.18h-1.92l-2.05-9.24h1.9l1.25 6.56 1.52-6.56H40zm8.54 9.36q-1.51 0-2.46-.92-.95-.93-.95-2.47v-.18q0-1.04.4-1.85.4-.82 1.13-1.26.74-.44 1.68-.44 1.4 0 2.21.89.81.89.81 2.52v.75h-4.37q.09.67.54 1.08.44.4 1.13.4 1.06 0 1.66-.76l.9 1q-.42.59-1.12.92-.7.32-1.56.32zm-.21-5.63q-.55 0-.89.36-.34.37-.43 1.06h2.55v-.15q-.01-.61-.33-.94-.32-.33-.9-.33zm10.26 2.04v.1q0 1.65-.71 2.57-.7.93-1.96.93-1.12 0-1.79-.86l-.08.73H52.4V8.54h1.83v3.5q.64-.75 1.67-.75 1.26 0 1.97.93.72.92.72 2.6zm-1.84-.03q0-1.04-.33-1.52-.33-.48-.98-.48-.88 0-1.21.71v2.71q.34.73 1.22.73.89 0 1.17-.88.13-.42.13-1.27zm9.15.03v.09q0 1.59-.72 2.55-.72.95-1.94.95-1.04 0-1.69-.72v3.24h-1.83v-9.51h1.7l.06.67q.67-.8 1.74-.8 1.27 0 1.98.94.7.94.7 2.59zm-1.83-.04q0-.96-.34-1.48-.34-.52-.99-.52-.86 0-1.19.66v2.81q.34.68 1.2.68 1.32 0 1.32-2.15zm8.81 3.51h-1.86q-.12-.25-.18-.62-.67.74-1.73.74-1.01 0-1.68-.58-.66-.59-.66-1.47 0-1.1.81-1.68.81-.58 2.34-.59h.84v-.39q0-.48-.24-.77-.25-.28-.77-.28-.47 0-.73.22-.26.22-.26.61h-1.84q0-.6.37-1.1.37-.51 1.04-.8.67-.29 1.51-.29 1.27 0 2.02.64.74.64.74 1.79v2.98q.01.98.28 1.48v.11zm-3.37-1.28q.4 0 .74-.18.35-.18.51-.49v-1.18h-.68q-1.38 0-1.47.95l-.01.11q0 .34.25.57.24.22.66.22zm7.35-.08q.51 0 .83-.28.31-.28.33-.74h1.72q-.01.7-.38 1.28-.38.58-1.03.9-.65.32-1.44.32-1.47 0-2.32-.93-.85-.94-.85-2.59v-.12q0-1.59.84-2.53.85-.95 2.32-.95 1.29 0 2.07.73.77.74.79 1.96h-1.72q-.02-.54-.33-.87-.32-.33-.84-.33-.64 0-.97.46-.33.47-.33 1.52v.19q0 1.06.33 1.52.32.46.98.46zm8.19 1.36l-1.77-2.75-.66.66v2.09h-1.83V8.54h1.83v5.4l.36-.46 1.76-2.06h2.2l-2.48 2.86 2.7 4.01h-2.11z"/></svg>